<svg width="96" height="51" viewBox="0 0 96 51" fill="none" xmlns="http://www.w3.org/2000/svg">
<path d="M18.1508 48.9695C18.0781 48.5065 17.6543 48.2019 16.8552 48.0801C16.056 47.9583 15.1842 47.8974 14.2397 47.9217C13.1257 47.9705 11.8906 48.0923 10.5345 48.275C9.55369 48.4334 8.64554 48.6283 7.79794 48.8598C7.05931 49.0426 6.3328 49.274 5.64261 49.5664C4.95242 49.8467 4.46807 50.1634 4.20168 50.4802C3.76577 50.87 3.18456 51.0406 2.48226 50.9919C1.76786 50.9431 1.29562 50.4802 1.06556 49.603C0.992905 49.2619 0.896036 48.9451 0.762842 48.6527C0.665973 48.409 0.556996 48.1654 0.43591 47.8974C0.314824 47.6293 0.16952 47.4344 0 47.3004C0.508561 46.2648 1.05345 45.3267 1.64677 44.4617C2.24009 43.6089 2.89396 42.7561 3.62047 41.9033C4.34699 41.0504 5.15826 40.1976 6.0543 39.3204C6.95034 38.4554 7.95535 37.4686 9.06934 36.3599C10.1228 35.3731 11.2247 34.2035 12.3871 32.8755C13.5495 31.5476 14.6393 30.0856 15.6322 28.5018C16.6251 26.918 17.4727 25.2123 18.1629 23.4092C18.8531 21.6061 19.2527 19.7056 19.3617 17.7197C19.4343 16.0872 19.1316 15.015 18.4777 14.479C17.8239 13.9429 17.0005 13.7602 16.0197 13.9186C15.5474 13.9917 15.0026 14.2597 14.3971 14.7227C13.7917 15.1856 13.1984 15.7826 12.6414 16.5258C12.0844 17.2689 11.5879 18.0974 11.1762 19.0233C10.7524 19.9492 10.5224 20.8873 10.486 21.8498C10.4497 22.1056 10.4739 22.3493 10.5345 22.5564C10.6071 22.7392 10.6798 22.9097 10.7645 23.0681C10.8493 23.2265 10.9946 23.3361 11.2005 23.4092C10.6556 23.9087 10.1107 24.2621 9.5779 24.4814C9.31151 24.591 9.05723 24.6641 8.81506 24.7006C8.54867 24.7494 8.22174 24.7737 7.84637 24.7859C7.47101 24.7859 7.13197 24.7372 6.80503 24.6154C6.4781 24.4935 6.21171 24.2742 5.99376 23.9575C5.7758 23.6407 5.67893 23.1778 5.71526 22.5686C5.75159 21.9594 6.03008 21.1066 6.55075 20.0101C7.07142 18.9137 7.87059 17.7928 8.93615 16.6598C10.0017 15.5267 11.3336 14.479 12.9199 13.5287C14.5061 12.5784 16.3708 11.9327 18.5019 11.5916C19.9186 11.3601 21.0084 11.4819 21.7713 11.9327C22.5341 12.3835 23.079 12.9805 23.418 13.7115C23.7571 14.4424 23.9387 15.2222 23.975 16.0262C24.0114 16.8303 24.0114 17.4882 23.975 17.9999C23.9024 19.3401 23.5754 20.7655 22.9821 22.2518C22.3888 23.7382 21.626 25.2489 20.6936 26.7596C19.7612 28.2703 18.7199 29.7688 17.5454 31.2552C16.3829 32.7415 15.2084 34.1548 14.0218 35.4827C12.8351 36.8107 11.6727 38.0412 10.5466 39.1864C9.40838 40.3194 8.42759 41.2819 7.57998 42.086C6.67184 42.9632 5.96954 43.8038 5.47309 44.6079C4.97663 45.412 4.61338 46.1552 4.38331 46.8252C5.19459 46.3135 6.30858 45.7531 7.7374 45.144C9.1541 44.5348 10.7767 44.084 12.6051 43.7916C13.6827 43.6211 14.6877 43.5114 15.5959 43.4627C16.3708 43.4018 17.1216 43.4018 17.8239 43.4627C18.5383 43.5236 19.0226 43.6942 19.289 43.9622C19.3617 44.3033 19.3859 44.6079 19.3859 44.9003C19.3859 45.1927 19.3738 45.4607 19.3374 45.7166C19.3011 46.009 19.2527 46.2648 19.18 46.5085C19.1074 46.7765 19.0347 47.0445 18.9257 47.3126C18.7562 47.7877 18.4898 48.3359 18.1145 48.9695H18.1508Z" fill="#F9E6CB"/>
<path d="M41.4841 7.91228C42.7676 7.70516 43.8816 7.98537 44.8139 8.74073C45.7463 9.49608 46.4849 10.5682 47.0177 11.9571C47.5626 13.346 47.9016 14.9907 48.059 16.8913C48.2043 18.7918 48.168 20.7655 47.9258 22.8366C47.4173 27.0154 46.5576 30.5607 45.3346 33.4603C44.1116 36.3721 42.7918 38.7356 41.3509 40.5753C39.9099 42.4028 38.4569 43.7794 36.9918 44.681C35.5145 45.5826 34.2552 46.1186 33.2139 46.2892C32.4026 46.4232 31.6034 46.3135 30.8043 45.9602C30.0051 45.6069 29.2907 44.9612 28.6489 44.0231C28.0072 43.0728 27.4865 41.818 27.0748 40.2463C26.6752 38.6747 26.4452 36.7376 26.421 34.4228C26.3846 32.973 26.5542 31.3283 26.9295 29.513C27.3049 27.6855 27.8135 25.8337 28.4794 23.9331C29.1333 22.0325 29.9325 20.1807 30.8648 18.3654C31.7972 16.5501 32.8143 14.9054 33.9404 13.4191C35.0544 11.9449 36.2531 10.7144 37.5367 9.72756C38.8202 8.74073 40.14 8.14375 41.4962 7.93664L41.4841 7.91228ZM44.0269 22.1787C44.0269 22.0204 44.0632 21.6061 44.1237 20.9482C44.1964 20.2903 44.2327 19.5228 44.2448 18.6456C44.2569 17.7684 44.2448 16.8669 44.1964 15.9166C44.148 14.9663 44.0027 14.1135 43.7605 13.346C43.5183 12.5784 43.1793 11.9571 42.7191 11.5063C42.259 11.0555 41.6657 10.885 40.915 11.0068C40.1763 11.1286 39.2319 11.8718 38.0937 13.2607C36.9554 14.6496 35.8657 16.4892 34.8001 18.7918C33.7346 21.0823 32.8264 23.7625 32.0636 26.8205C31.3007 29.8785 30.9375 33.1314 30.9738 36.5914C30.9738 36.9447 31.0222 37.4929 31.107 38.2605C31.1918 39.028 31.3371 39.7834 31.5671 40.5387C31.7851 41.2941 32.0999 41.952 32.4995 42.488C32.9112 43.0241 33.4318 43.2434 34.0736 43.1459C35.0544 42.9875 36.0836 42.2322 37.1492 40.8677C38.2147 39.5032 39.2076 37.8219 40.14 35.7995C41.0724 33.7771 41.8836 31.5598 42.5738 29.1475C43.264 26.7352 43.7484 24.4083 44.0148 22.1787H44.0269Z" fill="#F9E6CB"/>
<path d="M66.8516 41.2088C66.7789 40.7458 66.3551 40.4413 65.556 40.3194C64.7568 40.1854 63.885 40.1367 62.9405 40.1611C61.8265 40.2098 60.5914 40.3316 59.2353 40.5144C58.2545 40.6727 57.3463 40.8677 56.4987 41.0992C55.7601 41.2819 55.0336 41.5134 54.3434 41.7936C53.6532 42.0738 53.1689 42.3906 52.9025 42.7195C52.4666 43.1094 51.8854 43.2799 51.1831 43.2312C50.4686 43.1825 49.9964 42.7195 49.7663 41.8423C49.6937 41.5012 49.5968 41.1844 49.4636 40.892C49.3668 40.6606 49.2578 40.4047 49.1367 40.1367C49.0156 39.8687 48.8703 39.6737 48.7008 39.5397C49.2094 38.5041 49.7542 37.566 50.3476 36.701C50.9409 35.8482 51.5947 34.9954 52.3213 34.1426C53.0478 33.3019 53.8591 32.4369 54.7551 31.5598C55.6511 30.6826 56.6561 29.6957 57.7701 28.5993C58.8236 27.6124 59.9255 26.4428 61.0879 25.1149C62.2503 23.7869 63.3401 22.3249 64.333 20.7411C65.3259 19.1573 66.1735 17.4517 66.8637 15.6486C67.5539 13.8455 67.9535 11.9449 68.0503 9.95904C68.123 8.3265 67.8203 7.25439 67.1664 6.71833C66.5004 6.19445 65.6892 5.99952 64.7084 6.1579C64.2361 6.231 63.6912 6.49903 63.0858 6.96199C62.4804 7.42495 61.8871 8.02192 61.3301 8.7651C60.7731 9.50827 60.2766 10.3367 59.8649 11.2626C59.4411 12.1886 59.2111 13.1267 59.1747 14.0891C59.1384 14.345 59.1626 14.5886 59.2232 14.7958C59.2958 14.9785 59.3685 15.1491 59.4532 15.3074C59.538 15.4658 59.6833 15.5755 59.8891 15.6486C59.3443 16.1481 58.8115 16.5014 58.2666 16.7207C58.0002 16.8303 57.7459 16.9034 57.5037 16.94C57.2374 16.9887 56.9104 17.0131 56.5472 17.0253C56.1718 17.0253 55.8328 16.9765 55.5058 16.8547C55.1789 16.7329 54.9125 16.5136 54.6945 16.1968C54.4766 15.8801 54.3797 15.4171 54.4161 14.8079C54.4524 14.1988 54.7309 13.346 55.2515 12.2495C55.7722 11.153 56.5714 10.0321 57.6369 8.89911C58.7025 7.76608 60.0344 6.71833 61.6207 5.76804C63.2069 4.81776 65.0716 4.17205 67.2027 3.83092C68.6194 3.59944 69.7092 3.72127 70.4721 4.17205C71.2349 4.62283 71.7798 5.2198 72.1188 5.95079C72.4579 6.69396 72.6395 7.4615 72.6758 8.26559C72.7121 9.06967 72.7121 9.72756 72.6758 10.2393C72.6032 11.5794 72.2762 13.0048 71.6829 14.4912C71.0896 15.9775 70.3268 17.4882 69.3944 18.9989C68.462 20.5096 67.4207 22.0082 66.2462 23.5067C65.0716 25.0052 63.9092 26.4063 62.7226 27.7343C61.5359 29.0622 60.3856 30.2927 59.2474 31.4257C58.1092 32.5588 57.1284 33.5212 56.2808 34.3253C55.3726 35.2025 54.6703 36.0432 54.1739 36.8472C53.6774 37.6513 53.3142 38.3945 53.0841 39.0646C53.8954 38.5529 55.0094 37.9925 56.4382 37.3833C57.8549 36.7741 59.4774 36.3234 61.3058 36.031C62.3835 35.8604 63.3885 35.7508 64.2967 35.702C65.0716 35.6411 65.8223 35.6411 66.5247 35.702C67.2391 35.7629 67.7234 35.9335 68.0019 36.2015C68.0745 36.5427 68.0988 36.8594 68.0988 37.1396C68.0988 37.4198 68.0867 37.7001 68.0503 37.9559C68.014 38.2483 67.9656 38.5163 67.905 38.7478C67.8324 39.0158 67.7476 39.2839 67.6507 39.5519C67.4812 40.027 67.2148 40.5753 66.8395 41.2088H66.8516Z" fill="#F9E6CB"/>
<path d="M90.1485 37.493C90.0759 37.03 89.6521 36.7254 88.8529 36.6036C88.0537 36.4696 87.1819 36.4208 86.2374 36.4452C85.1235 36.4939 83.8884 36.6158 82.5322 36.7985C81.5514 36.9569 80.6433 37.1518 79.7957 37.3833C79.0449 37.566 78.3305 37.7975 77.6403 38.0777C76.9501 38.358 76.4658 38.6747 76.1994 39.0037C75.7635 39.3935 75.1823 39.5641 74.48 39.5154C73.7656 39.4666 73.2934 39.0037 73.0633 38.1265C72.9906 37.7853 72.8938 37.4686 72.7606 37.1762C72.6637 36.9447 72.5547 36.6889 72.4336 36.4208C72.3126 36.1528 72.1673 35.9579 71.9977 35.8239C72.5063 34.7883 73.0512 33.8502 73.6445 32.9852C74.2378 32.1324 74.8917 31.2795 75.6182 30.4267C76.3447 29.5861 77.156 28.7211 78.052 27.8439C78.9481 26.9667 79.9531 25.9799 81.0671 24.8834C82.1205 23.8966 83.2224 22.727 84.3848 21.399C85.5473 20.0711 86.637 18.6091 87.6299 17.0253C88.6228 15.4415 89.4704 13.7358 90.1606 11.9327C90.8508 10.1296 91.2504 8.22904 91.3594 6.24318C91.432 4.61064 91.1293 3.53853 90.4755 3.00247C89.8216 2.47859 88.9982 2.28366 88.0174 2.44204C87.5452 2.51514 87.0003 2.78317 86.3949 3.24613C85.7894 3.70909 85.2082 4.30606 84.6512 5.04924C84.0942 5.79241 83.5978 6.62086 83.174 7.54678C82.7502 8.4727 82.5201 9.4108 82.4838 10.3733C82.4474 10.6291 82.4717 10.8728 82.5322 11.0799C82.6049 11.2626 82.6775 11.4332 82.7623 11.5916C82.847 11.75 82.9923 11.8596 83.1982 11.9327C82.6533 12.4322 82.1084 12.7855 81.5756 13.0048C81.3092 13.1145 81.055 13.1876 80.8128 13.2241C80.5464 13.2729 80.2195 13.2972 79.8441 13.3094C79.4687 13.3094 79.1297 13.2607 78.8028 13.1388C78.4758 13.017 78.2094 12.7977 77.9915 12.481C77.7735 12.1642 77.6767 11.7012 77.713 11.0921C77.7493 10.4829 78.0278 9.6301 78.5485 8.53362C79.0692 7.43713 79.8683 6.31628 80.9339 5.18325C81.9994 4.05022 83.3314 3.00247 84.9176 2.05218C86.5038 1.1019 88.3686 0.456191 90.4997 0.115063C91.9164 -0.116417 93.0061 0.0054147 93.769 0.444008C94.5318 0.894784 95.0767 1.49176 95.4158 2.23493C95.7548 2.9781 95.9364 3.74564 95.9728 4.54973C96.0091 5.35382 96.0091 6.0117 95.9728 6.5234C95.9001 7.86354 95.5732 9.28897 94.9799 10.7753C94.3865 12.2617 93.6237 13.7724 92.7034 15.2831C91.7711 16.7938 90.7297 18.2923 89.5552 19.7787C88.3928 21.265 87.2182 22.6782 86.0316 24.0062C84.845 25.3342 83.6946 26.5647 82.5564 27.6977C81.4182 28.8307 80.4374 29.7932 79.5898 30.5973C78.6817 31.4745 77.9794 32.3151 77.4829 33.1192C76.9865 33.9233 76.6232 34.6665 76.3932 35.3365C77.2044 34.8248 78.3184 34.2644 79.7472 33.6553C81.1639 33.0461 82.7865 32.5953 84.6149 32.3029C85.6926 32.1324 86.6976 32.0227 87.6057 31.974C88.3807 31.9131 89.1314 31.9131 89.8337 31.974C90.5481 32.0349 91.0325 32.2055 91.2988 32.4735C91.3715 32.8146 91.3957 33.1192 91.3957 33.4116C91.3957 33.704 91.3836 33.972 91.3473 34.2279C91.3109 34.5203 91.2625 34.7761 91.1899 35.0198C91.1172 35.2878 91.0446 35.5558 90.9356 35.8239C90.7661 36.299 90.4997 36.8472 90.1243 37.4808L90.1485 37.493Z" fill="#F9E6CB"/>
</svg>
