<svg width="26" height="26" viewBox="0 0 26 26" fill="none" xmlns="http://www.w3.org/2000/svg">
<path fill-rule="evenodd" clip-rule="evenodd" d="M0.880188 12.553C0.880188 5.63035 6.4921 0.0184326 13.4148 0.0184326C20.3374 0.0184326 25.9493 5.63035 25.9493 12.553C25.9493 19.4756 20.3374 25.0876 13.4148 25.0876C6.4921 25.0876 0.880188 19.4756 0.880188 12.553ZM13.4148 6.28571C16.8618 6.28571 19.682 9.10599 19.682 12.553C19.682 15.6866 17.4101 18.3502 14.2765 18.8203V14.3548H15.765L16.0783 12.553H14.3548V11.3779C14.3548 10.9078 14.5899 10.4378 15.3733 10.4378H16.1567V8.87097C16.1567 8.87097 15.4516 8.71429 14.7465 8.71429C13.3364 8.71429 12.3963 9.57604 12.3963 11.1429V12.553H10.8295V14.3548H12.3963V18.7419C9.41936 18.2719 7.14747 15.6866 7.14747 12.553C7.14747 9.10599 9.96775 6.28571 13.4148 6.28571Z" fill="#F9E6CB"/>
</svg>
