<svg width="603" height="149" viewBox="0 0 603 149" fill="none" xmlns="http://www.w3.org/2000/svg">
<g clip-path="url(#clip0_50_67)">
<path d="M42.9106 140.252C41.276 141.013 39.7867 141.593 38.4548 141.98C37.123 142.366 35.5489 142.705 33.7569 142.995C24.7002 144.42 17.726 143.176 12.8223 139.249C7.91859 135.322 5.46068 129.014 5.46068 120.326C5.46068 115.191 6.63515 110.466 8.97198 106.164C11.3088 101.863 14.7233 98.2378 19.1911 95.3257C23.6589 92.4136 28.9501 90.4682 35.0525 89.5015C39.0844 88.8611 42.741 88.9094 46.0102 89.6344C49.2793 90.3594 51.8947 91.7128 53.8561 93.6944C55.8176 95.6761 56.7984 98.129 56.7984 101.077C56.7984 104.485 55.4907 107.421 52.8754 109.898C50.2601 112.375 46.7972 113.946 42.4868 114.623C39.8715 115.034 37.4862 114.949 35.331 114.345C33.1758 113.741 31.4564 112.702 30.1851 111.191C28.9017 109.693 28.2599 107.844 28.2599 105.657C28.2599 102.914 29.2649 100.57 31.2869 98.6244C33.309 96.679 36.0332 95.4344 39.4598 94.8907C39.7867 94.5282 39.9562 94.1778 39.9562 93.8274C39.9562 93.4165 39.7625 93.1386 39.3871 92.9694C38.9997 92.8003 38.5154 92.764 37.91 92.8607C35.7305 93.2111 33.6964 94.0086 31.8197 95.2773C29.9429 96.5461 28.4295 98.129 27.2792 100.038C26.1289 101.947 25.5599 103.989 25.5599 106.177C25.5599 108.364 26.0079 110.285 26.9039 111.795C27.7998 113.306 29.2891 114.683 31.3596 115.928C31.856 116.206 32.2071 116.544 32.4251 116.943C32.643 117.342 32.752 117.897 32.752 118.61V137.219C32.752 138.596 33.2484 139.2 34.2292 139.043C35.2099 138.886 35.7063 138.125 35.7063 136.747V120.205C35.7063 119.239 35.9122 118.526 36.3238 118.042C36.7355 117.571 37.4257 117.257 38.4064 117.1L61.3025 113.475C61.9564 113.366 62.2833 113.572 62.2833 114.079V114.997C62.2833 115.203 62.247 115.372 62.1622 115.517C62.0774 115.662 61.8474 115.855 61.472 116.121C59.8859 117.184 58.8567 118.139 58.3603 118.973C57.876 119.819 57.6217 121.051 57.6217 122.67V135.249C57.6217 136.216 57.4159 136.929 57.0042 137.4C56.5925 137.871 55.9024 138.185 54.9216 138.342L42.8984 140.24L42.9106 140.252Z" fill="white"/>
<path d="M88.4606 130.38C88.4606 131.346 88.2548 132.059 87.8431 132.53C87.4315 133.002 86.7413 133.316 85.7606 133.473L69.2453 136.083C68.2646 136.24 67.5744 136.143 67.1628 135.805C66.7511 135.467 66.5453 134.814 66.5453 133.847V94.504C66.5453 93.2353 66.4363 92.329 66.2183 91.7732C66.0004 91.2173 65.613 90.7461 65.0681 90.3473C64.5232 89.9486 63.5909 89.4532 62.2833 88.8369C62.0048 88.7282 61.8716 88.5227 61.8716 88.2207V87.3023C61.8716 86.7948 62.1985 86.4927 62.8523 86.384L85.7485 82.759C86.7292 82.6019 87.4194 82.6986 87.831 83.0369C88.2427 83.3752 88.4485 84.0398 88.4485 84.9944V130.355L88.4606 130.38Z" fill="white"/>
<path d="M140.149 109.475C140.416 109.536 140.694 109.536 140.973 109.499C141.3 109.451 141.602 109.282 141.869 109.016C142.135 108.738 142.28 108.424 142.28 108.074C142.28 107.409 141.978 106.696 141.384 105.923L122.569 79.9194C122.29 79.5569 122.121 79.2911 122.036 79.1219C121.951 78.9527 121.915 78.7473 121.915 78.4935V78.0344C121.915 77.6236 122 77.3456 122.157 77.2006C122.327 77.0435 122.593 76.9469 122.98 76.8744L143.915 73.5635C144.896 73.4065 145.586 73.5031 145.998 73.8415C146.409 74.1798 146.615 74.8444 146.615 75.799V121.16C146.615 122.127 146.409 122.84 145.998 123.311C145.586 123.782 144.896 124.096 143.915 124.253L133.442 125.909C130.935 126.307 128.974 126.211 127.557 125.619C126.141 125.027 124.724 123.758 123.307 121.788L104.092 95.2411C103.814 95.1807 103.571 95.1686 103.353 95.2049C103.027 95.2532 102.712 95.4223 102.409 95.7003C102.106 95.9782 101.961 96.2923 101.961 96.6549C101.961 97.2107 102.264 97.9236 102.857 98.7936L121.673 124.797C121.939 125.16 122.121 125.425 122.205 125.595C122.29 125.764 122.327 125.969 122.327 126.223V126.682C122.327 127.032 122.254 127.298 122.121 127.48C121.988 127.649 121.697 127.782 121.261 127.842L100.326 131.153C99.3457 131.31 98.6555 131.213 98.2439 130.875C97.8322 130.537 97.6264 129.884 97.6264 128.917V89.574C97.6264 88.3052 97.5174 87.399 97.2995 86.8432C97.0815 86.2873 96.6941 85.8161 96.1492 85.4294C95.6043 85.0427 94.6841 84.5352 93.3644 83.919C93.0859 83.8102 92.9527 83.6048 92.9527 83.3027V82.3844C92.9527 81.8769 93.2796 81.5748 93.9334 81.4661L110.776 78.8077C113.282 78.409 115.243 78.5056 116.66 79.0977C118.077 79.6898 119.493 80.9586 120.91 82.9281L140.125 109.475H140.149Z" fill="white"/>
<path d="M189.792 117.027C188.157 117.789 186.668 118.369 185.336 118.755C184.004 119.142 182.43 119.48 180.638 119.758C171.594 121.184 164.608 119.94 159.704 116.012C154.8 112.085 152.342 105.778 152.342 97.0899C152.342 91.9544 153.517 87.2298 155.853 82.9281C158.19 78.6265 161.605 75.0015 166.073 72.0894C170.54 69.1773 175.832 67.2319 181.934 66.2652C185.966 65.6248 189.623 65.6731 192.892 66.3981C196.161 67.1231 198.776 68.4764 200.738 70.4581C202.699 72.4398 203.68 74.8927 203.68 77.841C203.68 81.2486 202.372 84.1848 199.757 86.6619C197.142 89.139 193.679 90.7098 189.368 91.3865C186.753 91.7973 184.368 91.7128 182.212 91.1086C180.057 90.5044 178.338 89.4653 177.067 87.9548C175.783 86.4565 175.141 84.6077 175.141 82.4206C175.141 79.6777 176.146 77.3335 178.168 75.3881C180.19 73.4427 182.915 72.1981 186.341 71.6544C186.668 71.2919 186.838 70.9414 186.838 70.591C186.838 70.1802 186.644 69.9023 186.269 69.7331C185.881 69.5639 185.397 69.5277 184.791 69.6244C182.612 69.9748 180.578 70.7723 178.701 72.041C176.824 73.3098 175.311 74.8927 174.161 76.8019C173.01 78.7111 172.441 80.7531 172.441 82.9402C172.441 85.1273 172.889 87.0486 173.797 88.559C174.693 90.0694 176.183 91.4469 178.253 92.6915C178.75 92.9694 179.101 93.3078 179.319 93.7065C179.537 94.1053 179.646 94.6611 179.646 95.374V113.982C179.646 115.36 180.142 115.964 181.123 115.807C182.104 115.65 182.588 114.889 182.588 113.511V96.969C182.588 96.0024 182.794 95.2894 183.205 94.8061C183.617 94.3348 184.307 94.0207 185.288 93.8636L208.184 90.2386C208.838 90.1298 209.165 90.3353 209.165 90.8428V91.7611C209.165 91.9665 209.128 92.1357 209.044 92.2807C208.959 92.4257 208.729 92.619 208.354 92.8848C206.767 93.9482 205.738 94.9028 205.242 95.7365C204.745 96.5824 204.503 97.8149 204.503 99.434V112.013C204.503 112.979 204.297 113.692 203.886 114.164C203.474 114.635 202.784 114.949 201.803 115.106L189.78 117.003L189.792 117.027Z" fill="white"/>
<path d="M257.427 55.6439C258.408 55.4868 259.098 55.5835 259.51 55.9218C259.921 56.2602 260.127 56.9247 260.127 57.8793V66.9539C260.127 70.156 259.389 72.6452 257.923 74.4335C256.458 76.2219 254.194 77.3456 251.131 77.829L241.069 79.424C240.028 79.5931 239.301 79.4965 238.866 79.1581C238.43 78.8198 238.212 78.1673 238.212 77.2006V64.0056C238.212 62.8818 237.752 62.3985 236.819 62.5435C236.165 62.6402 235.669 62.9302 235.342 63.3893V82.6019L250.877 80.149C251.53 80.0402 251.857 80.2698 251.857 80.8377V82.8194C251.857 83.3269 251.53 83.629 250.877 83.7377L235.342 86.1907V105.403C235.669 105.754 236.165 105.887 236.819 105.778C237.752 105.633 238.212 105.004 238.212 103.881V90.8428C238.212 89.8761 238.43 89.1632 238.866 88.6798C239.301 88.2086 240.04 87.8823 241.069 87.7252L251.131 86.1302C254.182 85.6469 256.446 86.0698 257.923 87.3869C259.401 88.704 260.127 90.9636 260.127 94.1657V103.24C260.127 104.207 259.921 104.92 259.51 105.391C259.098 105.862 258.408 106.177 257.427 106.334L216.127 112.859C215.146 113.016 214.456 112.919 214.044 112.581C213.633 112.242 213.427 111.59 213.427 110.623V71.2798C213.427 70.011 213.318 69.1048 213.1 68.5489C212.882 67.9931 212.494 67.5219 211.95 67.1231C211.405 66.7243 210.472 66.2289 209.165 65.6127C208.886 65.5039 208.753 65.2985 208.753 64.9964V64.0781C208.753 63.5706 209.08 63.2685 209.734 63.1598L257.415 55.6197L257.427 55.6439Z" fill="white"/>
<path d="M289.731 77.1402V98.564C289.731 99.5307 289.525 100.244 289.114 100.715C288.702 101.186 288.012 101.5 287.031 101.657L270.516 104.267C269.535 104.424 268.845 104.328 268.433 103.989C268.021 103.651 267.816 102.999 267.816 102.032V62.616C267.816 60.9848 267.574 59.8368 267.077 59.1481C266.593 58.4593 265.551 57.8431 263.965 57.2752C263.59 57.1302 263.348 57.0093 263.275 56.8885C263.19 56.7797 263.154 56.6106 263.154 56.4172V55.4989C263.154 54.9914 263.481 54.6893 264.135 54.5806L294.647 49.7593C301.791 48.6356 307.058 48.8651 310.472 50.4601C313.874 52.0551 315.582 55.0639 315.582 59.4864C315.582 62.2777 314.407 64.9843 312.07 67.5944C309.721 70.2044 306.803 72.041 303.316 73.0923C312.034 72.1256 316.405 75.6298 316.405 83.6048V88.414C316.405 90.0452 316.647 91.1932 317.143 91.8819C317.64 92.5707 318.669 93.1869 320.255 93.7548C320.631 93.8998 320.873 94.0328 320.945 94.1415C321.03 94.2503 321.066 94.4194 321.066 94.6128V95.5311C321.066 96.0386 320.739 96.3407 320.086 96.4494L295.555 100.328C294.574 100.485 293.884 100.389 293.472 100.05C293.061 99.7119 292.855 99.0594 292.855 98.0928V78.5781C292.855 77.3094 292.177 76.7777 290.809 76.9952L289.743 77.1644L289.731 77.1402ZM289.731 73.7085L290.797 73.5394C292.165 73.3219 292.843 72.5848 292.843 71.3039V55.5956C292.843 55.0397 292.71 54.6047 292.431 54.2906C292.153 53.9764 291.777 53.8556 291.281 53.9402C290.567 54.0489 290.058 54.3389 289.731 54.7981V73.7085Z" fill="white"/>
<path d="M352.45 40.6122C358.771 39.6093 363.565 39.8268 366.81 41.2405C370.055 42.6543 371.678 45.228 371.678 48.9376C371.678 50.8226 371.242 52.5747 370.37 54.2181C369.498 55.8614 368.215 57.3356 366.532 58.6406C364.837 59.9456 362.766 61.021 360.32 61.8668C364.958 61.6373 368.493 62.3985 370.951 64.1506C373.409 65.9027 374.632 68.5731 374.632 72.186C374.632 76.9711 372.61 81.0794 368.578 84.5352C364.546 87.9911 359.122 90.2627 352.305 91.3382L327.52 95.2532C326.539 95.4103 325.849 95.3136 325.437 94.9753C325.026 94.6369 324.82 93.9844 324.82 93.0178V53.6743C324.82 52.4056 324.711 51.4993 324.493 50.9435C324.275 50.3876 323.888 49.9164 323.343 49.5176C322.798 49.1189 321.866 48.6235 320.558 48.0072C320.279 47.8985 320.146 47.6931 320.146 47.391V46.4726C320.146 45.9651 320.473 45.663 321.127 45.5543L352.45 40.6001V40.6122ZM346.723 62.4831L347.789 62.3139C349.145 62.0964 349.835 61.3593 349.835 60.0906V46.5935C349.835 46.0376 349.702 45.6026 349.423 45.2885C349.145 44.9743 348.769 44.8535 348.273 44.938C347.571 45.0468 347.05 45.3368 346.723 45.796V62.4952V62.4831ZM346.723 65.9148V87.9548C347.05 88.3052 347.571 88.4261 348.273 88.3173C348.769 88.2448 349.145 88.0032 349.423 87.6044C349.69 87.2057 349.835 86.7223 349.835 86.1665V67.3406C349.835 66.0718 349.072 65.5523 347.546 65.7939L346.723 65.9269V65.9148Z" fill="white"/>
<path d="M401.112 59.5347V80.9586C401.112 81.9252 400.906 82.6381 400.495 83.1094C400.083 83.5806 399.393 83.8948 398.412 84.0519L381.897 86.6619C380.916 86.819 380.226 86.7223 379.814 86.384C379.403 86.0457 379.197 85.3932 379.197 84.4265V45.0105C379.197 43.3793 378.955 42.2314 378.458 41.5426C377.962 40.8539 376.932 40.2376 375.346 39.6697C374.959 39.5247 374.729 39.4039 374.644 39.283C374.559 39.1743 374.523 39.0051 374.523 38.8118V37.8934C374.523 37.3859 374.85 37.0839 375.504 36.9751L406.004 32.1538C413.147 31.0301 418.414 31.2597 421.829 32.8547C425.231 34.4497 426.938 37.4584 426.938 41.881C426.938 44.6722 425.764 47.3789 423.427 49.9889C421.078 52.5989 418.16 54.4356 414.673 55.4868C423.391 54.5201 427.762 58.0243 427.762 65.9993V70.8085C427.762 72.4398 428.004 73.5877 428.5 74.2765C428.997 74.9652 430.026 75.5815 431.612 76.1494C431.987 76.2944 432.229 76.4273 432.302 76.536C432.387 76.6448 432.423 76.814 432.423 77.0073V77.9256C432.423 78.4331 432.096 78.7352 431.442 78.844L406.912 82.7227C405.931 82.8798 405.241 82.7832 404.829 82.4448C404.418 82.1065 404.212 81.454 404.212 80.4873V60.9727C404.212 59.7039 403.534 59.1722 402.165 59.3898L401.1 59.5589L401.112 59.5347ZM401.112 56.1031L402.178 55.9339C403.534 55.7164 404.224 54.9793 404.224 53.6985V37.9901C404.224 37.4343 404.091 36.9993 403.812 36.6851C403.534 36.3709 403.158 36.2501 402.662 36.3347C401.947 36.4434 401.439 36.7334 401.112 37.1926V56.1031Z" fill="white"/>
<path d="M480.189 20.433C481.17 20.2759 481.86 20.3726 482.272 20.7109C482.683 21.0492 482.889 21.7138 482.889 22.6684V31.743C482.889 34.9451 482.151 37.4343 480.685 39.2226C479.208 41.0109 476.944 42.1347 473.893 42.618L463.831 44.213C462.79 44.3822 462.063 44.2855 461.628 43.9472C461.192 43.6089 460.974 42.9564 460.974 41.9897V28.7947C460.974 27.683 460.514 27.1876 459.581 27.3326C458.928 27.4413 458.431 27.7192 458.116 28.1784V47.391L473.651 44.938C474.305 44.8293 474.631 45.0589 474.631 45.6268V47.6085C474.631 48.116 474.305 48.4181 473.651 48.5268L458.116 50.9797V70.1923C458.443 70.5548 458.94 70.6756 459.581 70.5669C460.514 70.4219 460.974 69.7935 460.974 68.6698V55.6318C460.974 54.6652 461.192 53.9522 461.628 53.4689C462.063 52.9976 462.802 52.6714 463.831 52.5143L473.893 50.9193C476.944 50.436 479.208 50.8589 480.685 52.176C482.151 53.4931 482.889 55.7527 482.889 58.9548V68.0294C482.889 68.996 482.683 69.709 482.272 70.1802C481.86 70.6514 481.17 70.9656 480.189 71.1227L438.889 77.6477C437.908 77.8048 437.218 77.7081 436.806 77.3698C436.395 77.0315 436.189 76.379 436.189 75.4123V36.0689C436.189 34.8001 436.08 33.8938 435.862 33.338C435.644 32.7822 435.256 32.3109 434.712 31.9122C434.167 31.5134 433.234 31.018 431.927 30.4018C431.648 30.293 431.515 30.0876 431.515 29.7855V28.8672C431.515 28.3597 431.842 28.0576 432.496 27.9488L480.177 20.4088L480.189 20.433Z" fill="white"/>
<path d="M512.905 53.0701L509.878 53.5535L512.251 61.7218C512.578 62.8335 512.747 63.631 512.747 64.0902C512.747 65.3589 511.9 66.1323 510.217 66.3981L488.87 69.7694C487.781 69.9385 486.945 69.8298 486.376 69.4431C485.807 69.0564 485.517 68.4281 485.517 67.5581C485.517 66.386 486.776 62.6281 489.282 56.2843C491.788 49.9406 496.038 39.7905 502.044 25.8222C502.371 25.0609 502.54 24.3963 502.54 23.8405C502.54 22.9826 502.31 22.2817 501.85 21.738C501.39 21.1942 500.53 20.6505 499.271 20.0826C498.726 19.8651 498.448 19.5751 498.448 19.2246V18.3063C498.448 17.7988 498.775 17.4967 499.429 17.388L518.402 14.3913C520.206 14.1013 521.659 14.21 522.773 14.6934C523.887 15.1767 524.746 16.1071 525.352 17.4846L541.14 53.7226C542.182 56.0547 542.69 57.7464 542.69 58.8097C542.69 60.441 541.794 61.3956 539.99 61.6735L519.467 64.9239C518.317 65.1052 517.494 65.0085 516.973 64.6339C516.452 64.2593 516.004 63.4135 515.617 62.1085L512.917 53.0822L512.905 53.0701ZM508.897 50.1218L511.924 49.6385L506.197 30.0393C505.931 29.8338 505.567 29.7613 505.131 29.8218C504.696 29.8943 504.344 30.0634 504.066 30.3293C503.787 30.5951 503.654 30.9213 503.654 31.2718C503.654 31.4772 503.678 31.6947 503.739 31.9484C503.787 32.1901 503.872 32.4922 503.981 32.8184L508.885 50.1097L508.897 50.1218Z" fill="white"/>
<path d="M571.955 5.92085C580.019 4.64001 586.303 5.87252 590.807 9.61836C595.311 13.3642 597.551 19.1884 597.551 27.1151C597.551 32.0934 596.51 36.673 594.44 40.8418C592.369 45.0105 589.379 48.4785 585.48 51.2576C581.581 54.0368 577.041 55.8372 571.858 56.6468L549.447 60.1873C548.466 60.3443 547.776 60.2477 547.364 59.9093C546.952 59.571 546.746 58.9185 546.746 57.9518V18.5238C546.746 16.8925 546.528 15.7688 546.093 15.1525C545.657 14.5363 544.458 13.7992 542.497 12.9413C542.218 12.8325 542.085 12.6271 542.085 12.325V11.4067C542.085 10.8992 542.412 10.5971 543.066 10.4884L571.931 5.92085H571.955ZM568.686 52.8768C569.013 53.2272 569.534 53.3481 570.236 53.2393C570.732 53.1668 571.108 52.9251 571.386 52.5264C571.653 52.1276 571.798 51.6443 571.798 51.0885V11.5155C571.798 10.9596 571.665 10.5246 571.386 10.2104C571.108 9.89628 570.732 9.77545 570.236 9.86003C569.534 9.96878 569.013 10.2588 568.686 10.7179V52.8768Z" fill="white"/>
<path d="M42.9106 140.252C41.276 141.013 39.7867 141.593 38.4548 141.98C37.123 142.366 35.5489 142.705 33.7569 142.995C24.7002 144.42 17.726 143.176 12.8223 139.249C7.91859 135.322 5.46068 129.014 5.46068 120.326C5.46068 115.191 6.63515 110.466 8.97198 106.164C11.3088 101.863 14.7233 98.2378 19.1911 95.3257C23.6589 92.4136 28.9501 90.4682 35.0525 89.5015C39.0844 88.8611 42.741 88.9094 46.0102 89.6344C49.2793 90.3594 51.8947 91.7128 53.8561 93.6944C55.8176 95.6761 56.7984 98.129 56.7984 101.077C56.7984 104.485 55.4907 107.421 52.8754 109.898C50.2601 112.375 46.7972 113.946 42.4868 114.623C39.8715 115.034 37.4862 114.949 35.331 114.345C33.1758 113.741 31.4564 112.702 30.1851 111.191C28.9017 109.693 28.2599 107.844 28.2599 105.657C28.2599 102.914 29.2649 100.57 31.2869 98.6244C33.309 96.679 36.0332 95.4344 39.4598 94.8907C39.7867 94.5282 39.9562 94.1778 39.9562 93.8274C39.9562 93.4165 39.7625 93.1386 39.3871 92.9694C38.9997 92.8003 38.5154 92.764 37.91 92.8607C35.7305 93.2111 33.6964 94.0086 31.8197 95.2773C29.9429 96.5461 28.4295 98.129 27.2792 100.038C26.1289 101.947 25.5599 103.989 25.5599 106.177C25.5599 108.364 26.0079 110.285 26.9039 111.795C27.7998 113.306 29.2891 114.683 31.3596 115.928C31.856 116.206 32.2071 116.544 32.4251 116.943C32.643 117.342 32.752 117.897 32.752 118.61V137.219C32.752 138.596 33.2484 139.2 34.2292 139.043C35.2099 138.886 35.7063 138.125 35.7063 136.747V120.205C35.7063 119.239 35.9122 118.526 36.3238 118.042C36.7355 117.571 37.4257 117.257 38.4064 117.1L61.3025 113.475C61.9564 113.366 62.2833 113.572 62.2833 114.079V114.997C62.2833 115.203 62.247 115.372 62.1622 115.517C62.0774 115.662 61.8474 115.855 61.472 116.121C59.8859 117.184 58.8567 118.139 58.3603 118.973C57.876 119.819 57.6217 121.051 57.6217 122.67V135.249C57.6217 136.216 57.4159 136.929 57.0042 137.4C56.5925 137.871 55.9024 138.185 54.9216 138.342L42.8984 140.24L42.9106 140.252Z" stroke="white" stroke-width="9" stroke-miterlimit="10"/>
<path d="M88.4606 130.38C88.4606 131.346 88.2548 132.059 87.8431 132.53C87.4315 133.002 86.7413 133.316 85.7606 133.473L69.2453 136.083C68.2646 136.24 67.5744 136.143 67.1628 135.805C66.7511 135.467 66.5453 134.814 66.5453 133.847V94.504C66.5453 93.2353 66.4363 92.329 66.2183 91.7732C66.0004 91.2173 65.613 90.7461 65.0681 90.3473C64.5232 89.9486 63.5909 89.4532 62.2833 88.8369C62.0048 88.7282 61.8716 88.5227 61.8716 88.2207V87.3023C61.8716 86.7948 62.1985 86.4927 62.8523 86.384L85.7485 82.759C86.7292 82.6019 87.4194 82.6986 87.831 83.0369C88.2427 83.3752 88.4485 84.0398 88.4485 84.9944V130.355L88.4606 130.38Z" stroke="white" stroke-width="9" stroke-miterlimit="10"/>
<path d="M140.149 109.475C140.416 109.536 140.694 109.536 140.973 109.499C141.3 109.451 141.602 109.282 141.869 109.016C142.135 108.738 142.28 108.424 142.28 108.074C142.28 107.409 141.978 106.696 141.384 105.923L122.569 79.9194C122.29 79.5569 122.121 79.2911 122.036 79.1219C121.951 78.9527 121.915 78.7473 121.915 78.4935V78.0344C121.915 77.6236 122 77.3456 122.157 77.2006C122.327 77.0435 122.593 76.9469 122.98 76.8744L143.915 73.5635C144.896 73.4065 145.586 73.5031 145.998 73.8415C146.409 74.1798 146.615 74.8444 146.615 75.799V121.16C146.615 122.127 146.409 122.84 145.998 123.311C145.586 123.782 144.896 124.096 143.915 124.253L133.442 125.909C130.935 126.307 128.974 126.211 127.557 125.619C126.141 125.027 124.724 123.758 123.307 121.788L104.092 95.2411C103.814 95.1807 103.571 95.1686 103.353 95.2049C103.027 95.2532 102.712 95.4223 102.409 95.7003C102.106 95.9782 101.961 96.2923 101.961 96.6549C101.961 97.2107 102.264 97.9236 102.857 98.7936L121.673 124.797C121.939 125.16 122.121 125.425 122.205 125.595C122.29 125.764 122.327 125.969 122.327 126.223V126.682C122.327 127.032 122.254 127.298 122.121 127.48C121.988 127.649 121.697 127.782 121.261 127.842L100.326 131.153C99.3457 131.31 98.6555 131.213 98.2439 130.875C97.8322 130.537 97.6264 129.884 97.6264 128.917V89.574C97.6264 88.3052 97.5174 87.399 97.2995 86.8432C97.0815 86.2873 96.6941 85.8161 96.1492 85.4294C95.6043 85.0427 94.6841 84.5352 93.3644 83.919C93.0859 83.8102 92.9527 83.6048 92.9527 83.3027V82.3844C92.9527 81.8769 93.2796 81.5748 93.9334 81.4661L110.776 78.8077C113.282 78.409 115.243 78.5056 116.66 79.0977C118.077 79.6898 119.493 80.9586 120.91 82.9281L140.125 109.475H140.149Z" stroke="white" stroke-width="9" stroke-miterlimit="10"/>
<path d="M189.792 117.027C188.157 117.789 186.668 118.369 185.336 118.755C184.004 119.142 182.43 119.48 180.638 119.758C171.594 121.184 164.608 119.94 159.704 116.012C154.8 112.085 152.342 105.778 152.342 97.0899C152.342 91.9544 153.517 87.2298 155.853 82.9281C158.19 78.6265 161.605 75.0015 166.073 72.0894C170.54 69.1773 175.832 67.2319 181.934 66.2652C185.966 65.6248 189.623 65.6731 192.892 66.3981C196.161 67.1231 198.776 68.4764 200.738 70.4581C202.699 72.4398 203.68 74.8927 203.68 77.841C203.68 81.2486 202.372 84.1848 199.757 86.6619C197.142 89.139 193.679 90.7098 189.368 91.3865C186.753 91.7973 184.368 91.7128 182.212 91.1086C180.057 90.5044 178.338 89.4653 177.067 87.9548C175.783 86.4565 175.141 84.6077 175.141 82.4206C175.141 79.6777 176.146 77.3335 178.168 75.3881C180.19 73.4427 182.915 72.1981 186.341 71.6544C186.668 71.2919 186.838 70.9414 186.838 70.591C186.838 70.1802 186.644 69.9023 186.269 69.7331C185.881 69.5639 185.397 69.5277 184.791 69.6244C182.612 69.9748 180.578 70.7723 178.701 72.041C176.824 73.3098 175.311 74.8927 174.161 76.8019C173.01 78.7111 172.441 80.7531 172.441 82.9402C172.441 85.1273 172.889 87.0486 173.797 88.559C174.693 90.0694 176.183 91.4469 178.253 92.6915C178.75 92.9694 179.101 93.3078 179.319 93.7065C179.537 94.1053 179.646 94.6611 179.646 95.374V113.982C179.646 115.36 180.142 115.964 181.123 115.807C182.104 115.65 182.588 114.889 182.588 113.511V96.969C182.588 96.0024 182.794 95.2894 183.205 94.8061C183.617 94.3348 184.307 94.0207 185.288 93.8636L208.184 90.2386C208.838 90.1298 209.165 90.3353 209.165 90.8428V91.7611C209.165 91.9665 209.128 92.1357 209.044 92.2807C208.959 92.4257 208.729 92.619 208.354 92.8848C206.767 93.9482 205.738 94.9028 205.242 95.7365C204.745 96.5824 204.503 97.8149 204.503 99.434V112.013C204.503 112.979 204.297 113.692 203.886 114.164C203.474 114.635 202.784 114.949 201.803 115.106L189.78 117.003L189.792 117.027Z" stroke="white" stroke-width="9" stroke-miterlimit="10"/>
<path d="M257.427 55.6439C258.408 55.4868 259.098 55.5835 259.51 55.9218C259.921 56.2602 260.127 56.9247 260.127 57.8793V66.9539C260.127 70.156 259.389 72.6452 257.923 74.4335C256.458 76.2219 254.194 77.3456 251.131 77.829L241.069 79.424C240.028 79.5931 239.301 79.4965 238.866 79.1581C238.43 78.8198 238.212 78.1673 238.212 77.2006V64.0056C238.212 62.8818 237.752 62.3985 236.819 62.5435C236.165 62.6402 235.669 62.9302 235.342 63.3893V82.6019L250.877 80.149C251.53 80.0402 251.857 80.2698 251.857 80.8377V82.8194C251.857 83.3269 251.53 83.629 250.877 83.7377L235.342 86.1907V105.403C235.669 105.754 236.165 105.887 236.819 105.778C237.752 105.633 238.212 105.004 238.212 103.881V90.8428C238.212 89.8761 238.43 89.1632 238.866 88.6798C239.301 88.2086 240.04 87.8823 241.069 87.7252L251.131 86.1302C254.182 85.6469 256.446 86.0698 257.923 87.3869C259.401 88.704 260.127 90.9636 260.127 94.1657V103.24C260.127 104.207 259.921 104.92 259.51 105.391C259.098 105.862 258.408 106.177 257.427 106.334L216.127 112.859C215.146 113.016 214.456 112.919 214.044 112.581C213.633 112.242 213.427 111.59 213.427 110.623V71.2798C213.427 70.011 213.318 69.1048 213.1 68.5489C212.882 67.9931 212.494 67.5219 211.95 67.1231C211.405 66.7243 210.472 66.2289 209.165 65.6127C208.886 65.5039 208.753 65.2985 208.753 64.9964V64.0781C208.753 63.5706 209.08 63.2685 209.734 63.1598L257.415 55.6197L257.427 55.6439Z" stroke="white" stroke-width="9" stroke-miterlimit="10"/>
<path d="M289.731 77.1402V98.564C289.731 99.5307 289.525 100.244 289.114 100.715C288.702 101.186 288.012 101.5 287.031 101.657L270.516 104.267C269.535 104.424 268.845 104.328 268.433 103.989C268.021 103.651 267.816 102.999 267.816 102.032V62.616C267.816 60.9848 267.574 59.8368 267.077 59.1481C266.593 58.4593 265.551 57.8431 263.965 57.2752C263.59 57.1302 263.348 57.0093 263.275 56.8885C263.19 56.7797 263.154 56.6106 263.154 56.4172V55.4989C263.154 54.9914 263.481 54.6893 264.135 54.5806L294.647 49.7593C301.791 48.6356 307.058 48.8651 310.472 50.4601C313.874 52.0551 315.582 55.0639 315.582 59.4864C315.582 62.2777 314.407 64.9843 312.07 67.5944C309.721 70.2044 306.803 72.041 303.316 73.0923C312.034 72.1256 316.405 75.6298 316.405 83.6048V88.414C316.405 90.0452 316.647 91.1932 317.143 91.8819C317.64 92.5707 318.669 93.1869 320.255 93.7548C320.631 93.8998 320.873 94.0328 320.945 94.1415C321.03 94.2503 321.066 94.4194 321.066 94.6128V95.5311C321.066 96.0386 320.739 96.3407 320.086 96.4494L295.555 100.328C294.574 100.485 293.884 100.389 293.472 100.05C293.061 99.7119 292.855 99.0594 292.855 98.0928V78.5781C292.855 77.3094 292.177 76.7777 290.809 76.9952L289.743 77.1644L289.731 77.1402ZM289.731 73.7085L290.797 73.5394C292.165 73.3219 292.843 72.5848 292.843 71.3039V55.5956C292.843 55.0397 292.71 54.6047 292.431 54.2906C292.153 53.9764 291.777 53.8556 291.281 53.9402C290.567 54.0489 290.058 54.3389 289.731 54.7981V73.7085Z" stroke="white" stroke-width="9" stroke-miterlimit="10"/>
<path d="M352.45 40.6122C358.771 39.6093 363.565 39.8268 366.81 41.2405C370.055 42.6543 371.678 45.228 371.678 48.9376C371.678 50.8226 371.242 52.5747 370.37 54.2181C369.498 55.8614 368.215 57.3356 366.532 58.6406C364.837 59.9456 362.766 61.021 360.32 61.8668C364.958 61.6373 368.493 62.3985 370.951 64.1506C373.409 65.9027 374.632 68.5731 374.632 72.186C374.632 76.9711 372.61 81.0794 368.578 84.5352C364.546 87.9911 359.122 90.2627 352.305 91.3382L327.52 95.2532C326.539 95.4103 325.849 95.3136 325.437 94.9753C325.026 94.6369 324.82 93.9844 324.82 93.0178V53.6743C324.82 52.4056 324.711 51.4993 324.493 50.9435C324.275 50.3876 323.888 49.9164 323.343 49.5176C322.798 49.1189 321.866 48.6235 320.558 48.0072C320.279 47.8985 320.146 47.6931 320.146 47.391V46.4726C320.146 45.9651 320.473 45.663 321.127 45.5543L352.45 40.6001V40.6122ZM346.723 62.4831L347.789 62.3139C349.145 62.0964 349.835 61.3593 349.835 60.0906V46.5935C349.835 46.0376 349.702 45.6026 349.423 45.2885C349.145 44.9743 348.769 44.8535 348.273 44.938C347.571 45.0468 347.05 45.3368 346.723 45.796V62.4952V62.4831ZM346.723 65.9148V87.9548C347.05 88.3052 347.571 88.4261 348.273 88.3173C348.769 88.2448 349.145 88.0032 349.423 87.6044C349.69 87.2057 349.835 86.7223 349.835 86.1665V67.3406C349.835 66.0718 349.072 65.5523 347.546 65.7939L346.723 65.9269V65.9148Z" stroke="white" stroke-width="9" stroke-miterlimit="10"/>
<path d="M401.112 59.5347V80.9586C401.112 81.9252 400.906 82.6381 400.495 83.1094C400.083 83.5806 399.393 83.8948 398.412 84.0519L381.897 86.6619C380.916 86.819 380.226 86.7223 379.814 86.384C379.403 86.0457 379.197 85.3932 379.197 84.4265V45.0105C379.197 43.3793 378.955 42.2314 378.458 41.5426C377.962 40.8539 376.932 40.2376 375.346 39.6697C374.959 39.5247 374.729 39.4039 374.644 39.283C374.559 39.1743 374.523 39.0051 374.523 38.8118V37.8934C374.523 37.3859 374.85 37.0839 375.504 36.9751L406.004 32.1538C413.147 31.0301 418.414 31.2597 421.829 32.8547C425.231 34.4497 426.938 37.4584 426.938 41.881C426.938 44.6722 425.764 47.3789 423.427 49.9889C421.078 52.5989 418.16 54.4356 414.673 55.4868C423.391 54.5201 427.762 58.0243 427.762 65.9993V70.8085C427.762 72.4398 428.004 73.5877 428.5 74.2765C428.997 74.9652 430.026 75.5815 431.612 76.1494C431.987 76.2944 432.229 76.4273 432.302 76.536C432.387 76.6448 432.423 76.814 432.423 77.0073V77.9256C432.423 78.4331 432.096 78.7352 431.442 78.844L406.912 82.7227C405.931 82.8798 405.241 82.7832 404.829 82.4448C404.418 82.1065 404.212 81.454 404.212 80.4873V60.9727C404.212 59.7039 403.534 59.1722 402.165 59.3898L401.1 59.5589L401.112 59.5347ZM401.112 56.1031L402.178 55.9339C403.534 55.7164 404.224 54.9793 404.224 53.6985V37.9901C404.224 37.4343 404.091 36.9993 403.812 36.6851C403.534 36.3709 403.158 36.2501 402.662 36.3347C401.947 36.4434 401.439 36.7334 401.112 37.1926V56.1031Z" stroke="white" stroke-width="9" stroke-miterlimit="10"/>
<path d="M480.189 20.433C481.17 20.2759 481.86 20.3726 482.272 20.7109C482.683 21.0492 482.889 21.7138 482.889 22.6684V31.743C482.889 34.9451 482.151 37.4343 480.685 39.2226C479.208 41.0109 476.944 42.1347 473.893 42.618L463.831 44.213C462.79 44.3822 462.063 44.2855 461.628 43.9472C461.192 43.6089 460.974 42.9564 460.974 41.9897V28.7947C460.974 27.683 460.514 27.1876 459.581 27.3326C458.928 27.4413 458.431 27.7192 458.116 28.1784V47.391L473.651 44.938C474.305 44.8293 474.631 45.0589 474.631 45.6268V47.6085C474.631 48.116 474.305 48.4181 473.651 48.5268L458.116 50.9797V70.1923C458.443 70.5548 458.94 70.6756 459.581 70.5669C460.514 70.4219 460.974 69.7935 460.974 68.6698V55.6318C460.974 54.6652 461.192 53.9522 461.628 53.4689C462.063 52.9976 462.802 52.6714 463.831 52.5143L473.893 50.9193C476.944 50.436 479.208 50.8589 480.685 52.176C482.151 53.4931 482.889 55.7527 482.889 58.9548V68.0294C482.889 68.996 482.683 69.709 482.272 70.1802C481.86 70.6514 481.17 70.9656 480.189 71.1227L438.889 77.6477C437.908 77.8048 437.218 77.7081 436.806 77.3698C436.395 77.0315 436.189 76.379 436.189 75.4123V36.0689C436.189 34.8001 436.08 33.8938 435.862 33.338C435.644 32.7822 435.256 32.3109 434.712 31.9122C434.167 31.5134 433.234 31.018 431.927 30.4018C431.648 30.293 431.515 30.0876 431.515 29.7855V28.8672C431.515 28.3597 431.842 28.0576 432.496 27.9488L480.177 20.4088L480.189 20.433Z" stroke="white" stroke-width="9" stroke-miterlimit="10"/>
<path d="M512.905 53.0701L509.878 53.5535L512.251 61.7218C512.578 62.8335 512.747 63.631 512.747 64.0902C512.747 65.3589 511.9 66.1323 510.217 66.3981L488.87 69.7694C487.781 69.9385 486.945 69.8298 486.376 69.4431C485.807 69.0564 485.517 68.4281 485.517 67.5581C485.517 66.386 486.776 62.6281 489.282 56.2843C491.788 49.9406 496.038 39.7905 502.044 25.8222C502.371 25.0609 502.54 24.3963 502.54 23.8405C502.54 22.9826 502.31 22.2817 501.85 21.738C501.39 21.1942 500.53 20.6505 499.271 20.0826C498.726 19.8651 498.448 19.5751 498.448 19.2246V18.3063C498.448 17.7988 498.775 17.4967 499.429 17.388L518.402 14.3913C520.206 14.1013 521.659 14.21 522.773 14.6934C523.887 15.1767 524.746 16.1071 525.352 17.4846L541.14 53.7226C542.182 56.0547 542.69 57.7464 542.69 58.8097C542.69 60.441 541.794 61.3956 539.99 61.6735L519.467 64.9239C518.317 65.1052 517.494 65.0085 516.973 64.6339C516.452 64.2593 516.004 63.4135 515.617 62.1085L512.917 53.0822L512.905 53.0701ZM508.897 50.1218L511.924 49.6385L506.197 30.0393C505.931 29.8338 505.567 29.7613 505.131 29.8218C504.696 29.8943 504.344 30.0634 504.066 30.3293C503.787 30.5951 503.654 30.9213 503.654 31.2718C503.654 31.4772 503.678 31.6947 503.739 31.9484C503.787 32.1901 503.872 32.4922 503.981 32.8184L508.885 50.1097L508.897 50.1218Z" stroke="white" stroke-width="9" stroke-miterlimit="10"/>
<path d="M571.955 5.92085C580.019 4.64001 586.303 5.87252 590.807 9.61836C595.311 13.3642 597.551 19.1884 597.551 27.1151C597.551 32.0934 596.51 36.673 594.44 40.8418C592.369 45.0105 589.379 48.4785 585.48 51.2576C581.581 54.0368 577.041 55.8372 571.858 56.6468L549.447 60.1873C548.466 60.3443 547.776 60.2477 547.364 59.9093C546.952 59.571 546.746 58.9185 546.746 57.9518V18.5238C546.746 16.8925 546.528 15.7688 546.093 15.1525C545.657 14.5363 544.458 13.7992 542.497 12.9413C542.218 12.8325 542.085 12.6271 542.085 12.325V11.4067C542.085 10.8992 542.412 10.5971 543.066 10.4884L571.931 5.92085H571.955ZM568.686 52.8768C569.013 53.2272 569.534 53.3481 570.236 53.2393C570.732 53.1668 571.108 52.9251 571.386 52.5264C571.653 52.1276 571.798 51.6443 571.798 51.0885V11.5155C571.798 10.9596 571.665 10.5246 571.386 10.2104C571.108 9.89628 570.732 9.77545 570.236 9.86003C569.534 9.96878 569.013 10.2588 568.686 10.7179V52.8768Z" stroke="white" stroke-width="9" stroke-miterlimit="10"/>
<path d="M42.9106 140.252C41.276 141.013 39.7867 141.593 38.4548 141.98C37.123 142.366 35.5489 142.705 33.7569 142.995C24.7002 144.42 17.726 143.176 12.8223 139.249C7.91859 135.322 5.46068 129.014 5.46068 120.326C5.46068 115.191 6.63515 110.466 8.97198 106.164C11.3088 101.863 14.7233 98.2378 19.1911 95.3257C23.6589 92.4136 28.9501 90.4682 35.0525 89.5015C39.0844 88.8611 42.741 88.9094 46.0102 89.6344C49.2793 90.3594 51.8947 91.7128 53.8561 93.6944C55.8176 95.6761 56.7984 98.129 56.7984 101.077C56.7984 104.485 55.4907 107.421 52.8754 109.898C50.2601 112.375 46.7972 113.946 42.4868 114.623C39.8715 115.034 37.4862 114.949 35.331 114.345C33.1758 113.741 31.4564 112.702 30.1851 111.191C28.9017 109.693 28.2599 107.844 28.2599 105.657C28.2599 102.914 29.2649 100.57 31.2869 98.6244C33.309 96.679 36.0332 95.4344 39.4598 94.8907C39.7867 94.5282 39.9562 94.1778 39.9562 93.8274C39.9562 93.4165 39.7625 93.1386 39.3871 92.9694C38.9997 92.8003 38.5154 92.764 37.91 92.8607C35.7305 93.2111 33.6964 94.0086 31.8197 95.2773C29.9429 96.5461 28.4295 98.129 27.2792 100.038C26.1289 101.947 25.5599 103.989 25.5599 106.177C25.5599 108.364 26.0079 110.285 26.9039 111.795C27.7998 113.306 29.2891 114.683 31.3596 115.928C31.856 116.206 32.2071 116.544 32.4251 116.943C32.643 117.342 32.752 117.897 32.752 118.61V137.219C32.752 138.596 33.2484 139.2 34.2292 139.043C35.2099 138.886 35.7063 138.125 35.7063 136.747V120.205C35.7063 119.239 35.9122 118.526 36.3238 118.042C36.7355 117.571 37.4257 117.257 38.4064 117.1L61.3025 113.475C61.9564 113.366 62.2833 113.572 62.2833 114.079V114.997C62.2833 115.203 62.247 115.372 62.1622 115.517C62.0774 115.662 61.8474 115.855 61.472 116.121C59.8859 117.184 58.8567 118.139 58.3603 118.973C57.876 119.819 57.6217 121.051 57.6217 122.67V135.249C57.6217 136.216 57.4159 136.929 57.0042 137.4C56.5925 137.871 55.9024 138.185 54.9216 138.342L42.8984 140.24L42.9106 140.252Z" fill="#A6683A"/>
<path d="M88.4606 130.38C88.4606 131.346 88.2548 132.059 87.8431 132.53C87.4315 133.002 86.7413 133.316 85.7606 133.473L69.2453 136.083C68.2646 136.24 67.5744 136.143 67.1628 135.805C66.7511 135.467 66.5453 134.814 66.5453 133.847V94.504C66.5453 93.2353 66.4363 92.329 66.2183 91.7732C66.0004 91.2173 65.613 90.7461 65.0681 90.3473C64.5232 89.9486 63.5909 89.4532 62.2833 88.8369C62.0048 88.7282 61.8716 88.5227 61.8716 88.2207V87.3023C61.8716 86.7948 62.1985 86.4927 62.8523 86.384L85.7485 82.759C86.7292 82.6019 87.4194 82.6986 87.831 83.0369C88.2427 83.3752 88.4485 84.0398 88.4485 84.9944V130.355L88.4606 130.38Z" fill="#A6683A"/>
<path d="M140.149 109.475C140.416 109.536 140.694 109.536 140.973 109.499C141.3 109.451 141.602 109.282 141.869 109.016C142.135 108.738 142.28 108.424 142.28 108.074C142.28 107.409 141.978 106.696 141.384 105.923L122.569 79.9194C122.29 79.5569 122.121 79.2911 122.036 79.1219C121.951 78.9527 121.915 78.7473 121.915 78.4935V78.0344C121.915 77.6236 122 77.3456 122.157 77.2006C122.327 77.0435 122.593 76.9469 122.98 76.8744L143.915 73.5635C144.896 73.4065 145.586 73.5031 145.998 73.8415C146.409 74.1798 146.615 74.8444 146.615 75.799V121.16C146.615 122.127 146.409 122.84 145.998 123.311C145.586 123.782 144.896 124.096 143.915 124.253L133.442 125.909C130.935 126.307 128.974 126.211 127.557 125.619C126.141 125.027 124.724 123.758 123.307 121.788L104.092 95.2411C103.814 95.1807 103.571 95.1686 103.353 95.2049C103.027 95.2532 102.712 95.4223 102.409 95.7003C102.106 95.9782 101.961 96.2923 101.961 96.6549C101.961 97.2107 102.264 97.9236 102.857 98.7936L121.673 124.797C121.939 125.16 122.121 125.425 122.205 125.595C122.29 125.764 122.327 125.969 122.327 126.223V126.682C122.327 127.032 122.254 127.298 122.121 127.48C121.988 127.649 121.697 127.782 121.261 127.842L100.326 131.153C99.3457 131.31 98.6555 131.213 98.2439 130.875C97.8322 130.537 97.6264 129.884 97.6264 128.917V89.574C97.6264 88.3052 97.5174 87.399 97.2995 86.8432C97.0815 86.2873 96.6941 85.8161 96.1492 85.4294C95.6043 85.0427 94.6841 84.5352 93.3644 83.919C93.0859 83.8102 92.9527 83.6048 92.9527 83.3027V82.3844C92.9527 81.8769 93.2796 81.5748 93.9334 81.4661L110.776 78.8077C113.282 78.409 115.243 78.5056 116.66 79.0977C118.077 79.6898 119.493 80.9586 120.91 82.9281L140.125 109.475H140.149Z" fill="#A6683A"/>
<path d="M189.792 117.027C188.157 117.789 186.668 118.369 185.336 118.755C184.004 119.142 182.43 119.48 180.638 119.758C171.594 121.184 164.608 119.94 159.704 116.012C154.8 112.085 152.342 105.778 152.342 97.0899C152.342 91.9544 153.517 87.2298 155.853 82.9281C158.19 78.6265 161.605 75.0015 166.073 72.0894C170.54 69.1773 175.832 67.2319 181.934 66.2652C185.966 65.6248 189.623 65.6731 192.892 66.3981C196.161 67.1231 198.776 68.4764 200.738 70.4581C202.699 72.4398 203.68 74.8927 203.68 77.841C203.68 81.2486 202.372 84.1848 199.757 86.6619C197.142 89.139 193.679 90.7098 189.368 91.3865C186.753 91.7973 184.368 91.7128 182.212 91.1086C180.057 90.5044 178.338 89.4653 177.067 87.9548C175.783 86.4565 175.141 84.6077 175.141 82.4206C175.141 79.6777 176.146 77.3335 178.168 75.3881C180.19 73.4427 182.915 72.1981 186.341 71.6544C186.668 71.2919 186.838 70.9414 186.838 70.591C186.838 70.1802 186.644 69.9023 186.269 69.7331C185.881 69.5639 185.397 69.5277 184.791 69.6244C182.612 69.9748 180.578 70.7723 178.701 72.041C176.824 73.3098 175.311 74.8927 174.161 76.8019C173.01 78.7111 172.441 80.7531 172.441 82.9402C172.441 85.1273 172.889 87.0486 173.797 88.559C174.693 90.0694 176.183 91.4469 178.253 92.6915C178.75 92.9694 179.101 93.3078 179.319 93.7065C179.537 94.1053 179.646 94.6611 179.646 95.374V113.982C179.646 115.36 180.142 115.964 181.123 115.807C182.104 115.65 182.588 114.889 182.588 113.511V96.969C182.588 96.0024 182.794 95.2894 183.205 94.8061C183.617 94.3348 184.307 94.0207 185.288 93.8636L208.184 90.2386C208.838 90.1298 209.165 90.3353 209.165 90.8428V91.7611C209.165 91.9665 209.128 92.1357 209.044 92.2807C208.959 92.4257 208.729 92.619 208.354 92.8848C206.767 93.9482 205.738 94.9028 205.242 95.7365C204.745 96.5824 204.503 97.8149 204.503 99.434V112.013C204.503 112.979 204.297 113.692 203.886 114.164C203.474 114.635 202.784 114.949 201.803 115.106L189.78 117.003L189.792 117.027Z" fill="#A6683A"/>
<path d="M257.427 55.6439C258.408 55.4868 259.098 55.5835 259.51 55.9218C259.921 56.2602 260.127 56.9247 260.127 57.8793V66.9539C260.127 70.156 259.389 72.6452 257.923 74.4335C256.458 76.2219 254.194 77.3456 251.131 77.829L241.069 79.424C240.028 79.5931 239.301 79.4965 238.866 79.1581C238.43 78.8198 238.212 78.1673 238.212 77.2006V64.0056C238.212 62.8818 237.752 62.3985 236.819 62.5435C236.165 62.6402 235.669 62.9302 235.342 63.3893V82.6019L250.877 80.149C251.53 80.0402 251.857 80.2698 251.857 80.8377V82.8194C251.857 83.3269 251.53 83.629 250.877 83.7377L235.342 86.1907V105.403C235.669 105.754 236.165 105.887 236.819 105.778C237.752 105.633 238.212 105.004 238.212 103.881V90.8428C238.212 89.8761 238.43 89.1632 238.866 88.6798C239.301 88.2086 240.04 87.8823 241.069 87.7252L251.131 86.1302C254.182 85.6469 256.446 86.0698 257.923 87.3869C259.401 88.704 260.127 90.9636 260.127 94.1657V103.24C260.127 104.207 259.921 104.92 259.51 105.391C259.098 105.862 258.408 106.177 257.427 106.334L216.127 112.859C215.146 113.016 214.456 112.919 214.044 112.581C213.633 112.242 213.427 111.59 213.427 110.623V71.2798C213.427 70.011 213.318 69.1048 213.1 68.5489C212.882 67.9931 212.494 67.5219 211.95 67.1231C211.405 66.7243 210.472 66.2289 209.165 65.6127C208.886 65.5039 208.753 65.2985 208.753 64.9964V64.0781C208.753 63.5706 209.08 63.2685 209.734 63.1598L257.415 55.6197L257.427 55.6439Z" fill="#A6683A"/>
<path d="M289.731 77.1402V98.564C289.731 99.5307 289.525 100.244 289.114 100.715C288.702 101.186 288.012 101.5 287.031 101.657L270.516 104.267C269.535 104.424 268.845 104.328 268.433 103.989C268.021 103.651 267.816 102.999 267.816 102.032V62.616C267.816 60.9848 267.574 59.8368 267.077 59.1481C266.593 58.4593 265.551 57.8431 263.965 57.2752C263.59 57.1302 263.348 57.0093 263.275 56.8885C263.19 56.7797 263.154 56.6106 263.154 56.4172V55.4989C263.154 54.9914 263.481 54.6893 264.135 54.5806L294.647 49.7593C301.791 48.6356 307.058 48.8651 310.472 50.4601C313.874 52.0551 315.582 55.0639 315.582 59.4864C315.582 62.2777 314.407 64.9843 312.07 67.5944C309.721 70.2044 306.803 72.041 303.316 73.0923C312.034 72.1256 316.405 75.6298 316.405 83.6048V88.414C316.405 90.0452 316.647 91.1932 317.143 91.8819C317.64 92.5707 318.669 93.1869 320.255 93.7548C320.631 93.8998 320.873 94.0328 320.945 94.1415C321.03 94.2503 321.066 94.4194 321.066 94.6128V95.5311C321.066 96.0386 320.739 96.3407 320.086 96.4494L295.555 100.328C294.574 100.485 293.884 100.389 293.472 100.05C293.061 99.7119 292.855 99.0594 292.855 98.0928V78.5781C292.855 77.3094 292.177 76.7777 290.809 76.9952L289.743 77.1644L289.731 77.1402ZM289.731 73.7085L290.797 73.5394C292.165 73.3219 292.843 72.5848 292.843 71.3039V55.5956C292.843 55.0397 292.71 54.6047 292.431 54.2906C292.153 53.9764 291.777 53.8556 291.281 53.9402C290.567 54.0489 290.058 54.3389 289.731 54.7981V73.7085Z" fill="#A6683A"/>
<path d="M352.45 40.6122C358.771 39.6093 363.565 39.8268 366.81 41.2405C370.055 42.6543 371.678 45.228 371.678 48.9376C371.678 50.8226 371.242 52.5747 370.37 54.2181C369.498 55.8614 368.215 57.3356 366.532 58.6406C364.837 59.9456 362.766 61.021 360.32 61.8668C364.958 61.6373 368.493 62.3985 370.951 64.1506C373.409 65.9027 374.632 68.5731 374.632 72.186C374.632 76.9711 372.61 81.0794 368.578 84.5352C364.546 87.9911 359.122 90.2627 352.305 91.3382L327.52 95.2532C326.539 95.4103 325.849 95.3136 325.437 94.9753C325.026 94.6369 324.82 93.9844 324.82 93.0178V53.6743C324.82 52.4056 324.711 51.4993 324.493 50.9435C324.275 50.3876 323.888 49.9164 323.343 49.5176C322.798 49.1189 321.866 48.6235 320.558 48.0072C320.279 47.8985 320.146 47.6931 320.146 47.391V46.4726C320.146 45.9651 320.473 45.663 321.127 45.5543L352.45 40.6001V40.6122ZM346.723 62.4831L347.789 62.3139C349.145 62.0964 349.835 61.3593 349.835 60.0906V46.5935C349.835 46.0376 349.702 45.6026 349.423 45.2885C349.145 44.9743 348.769 44.8535 348.273 44.938C347.571 45.0468 347.05 45.3368 346.723 45.796V62.4952V62.4831ZM346.723 65.9148V87.9548C347.05 88.3052 347.571 88.4261 348.273 88.3173C348.769 88.2448 349.145 88.0032 349.423 87.6044C349.69 87.2057 349.835 86.7223 349.835 86.1665V67.3406C349.835 66.0718 349.072 65.5523 347.546 65.7939L346.723 65.9269V65.9148Z" fill="#A6683A"/>
<path d="M401.112 59.5347V80.9586C401.112 81.9252 400.906 82.6381 400.495 83.1094C400.083 83.5806 399.393 83.8948 398.412 84.0519L381.897 86.6619C380.916 86.819 380.226 86.7223 379.814 86.384C379.403 86.0457 379.197 85.3932 379.197 84.4265V45.0105C379.197 43.3793 378.955 42.2314 378.458 41.5426C377.962 40.8539 376.932 40.2376 375.346 39.6697C374.959 39.5247 374.729 39.4039 374.644 39.283C374.559 39.1743 374.523 39.0051 374.523 38.8118V37.8934C374.523 37.3859 374.85 37.0839 375.504 36.9751L406.004 32.1538C413.147 31.0301 418.414 31.2597 421.829 32.8547C425.231 34.4497 426.938 37.4584 426.938 41.881C426.938 44.6722 425.764 47.3789 423.427 49.9889C421.078 52.5989 418.16 54.4356 414.673 55.4868C423.391 54.5201 427.762 58.0243 427.762 65.9993V70.8085C427.762 72.4398 428.004 73.5877 428.5 74.2765C428.997 74.9652 430.026 75.5815 431.612 76.1494C431.987 76.2944 432.229 76.4273 432.302 76.536C432.387 76.6448 432.423 76.814 432.423 77.0073V77.9256C432.423 78.4331 432.096 78.7352 431.442 78.844L406.912 82.7227C405.931 82.8798 405.241 82.7832 404.829 82.4448C404.418 82.1065 404.212 81.454 404.212 80.4873V60.9727C404.212 59.7039 403.534 59.1722 402.165 59.3898L401.1 59.5589L401.112 59.5347ZM401.112 56.1031L402.178 55.9339C403.534 55.7164 404.224 54.9793 404.224 53.6985V37.9901C404.224 37.4343 404.091 36.9993 403.812 36.6851C403.534 36.3709 403.158 36.2501 402.662 36.3347C401.947 36.4434 401.439 36.7334 401.112 37.1926V56.1031Z" fill="#A6683A"/>
<path d="M480.189 20.433C481.17 20.2759 481.86 20.3726 482.272 20.7109C482.683 21.0492 482.889 21.7138 482.889 22.6684V31.743C482.889 34.9451 482.151 37.4343 480.685 39.2226C479.208 41.0109 476.944 42.1347 473.893 42.618L463.831 44.213C462.79 44.3822 462.063 44.2855 461.628 43.9472C461.192 43.6089 460.974 42.9564 460.974 41.9897V28.7947C460.974 27.683 460.514 27.1876 459.581 27.3326C458.928 27.4413 458.431 27.7192 458.116 28.1784V47.391L473.651 44.938C474.305 44.8293 474.631 45.0589 474.631 45.6268V47.6085C474.631 48.116 474.305 48.4181 473.651 48.5268L458.116 50.9797V70.1923C458.443 70.5548 458.94 70.6756 459.581 70.5669C460.514 70.4219 460.974 69.7935 460.974 68.6698V55.6318C460.974 54.6652 461.192 53.9522 461.628 53.4689C462.063 52.9976 462.802 52.6714 463.831 52.5143L473.893 50.9193C476.944 50.436 479.208 50.8589 480.685 52.176C482.151 53.4931 482.889 55.7527 482.889 58.9548V68.0294C482.889 68.996 482.683 69.709 482.272 70.1802C481.86 70.6514 481.17 70.9656 480.189 71.1227L438.889 77.6477C437.908 77.8048 437.218 77.7081 436.806 77.3698C436.395 77.0315 436.189 76.379 436.189 75.4123V36.0689C436.189 34.8001 436.08 33.8938 435.862 33.338C435.644 32.7822 435.256 32.3109 434.712 31.9122C434.167 31.5134 433.234 31.018 431.927 30.4018C431.648 30.293 431.515 30.0876 431.515 29.7855V28.8672C431.515 28.3597 431.842 28.0576 432.496 27.9488L480.177 20.4088L480.189 20.433Z" fill="#A6683A"/>
<path d="M512.905 53.0701L509.878 53.5535L512.251 61.7218C512.578 62.8335 512.747 63.631 512.747 64.0902C512.747 65.3589 511.9 66.1323 510.217 66.3981L488.87 69.7694C487.781 69.9385 486.945 69.8298 486.376 69.4431C485.807 69.0564 485.517 68.4281 485.517 67.5581C485.517 66.386 486.776 62.6281 489.282 56.2843C491.788 49.9406 496.038 39.7905 502.044 25.8222C502.371 25.0609 502.54 24.3963 502.54 23.8405C502.54 22.9826 502.31 22.2817 501.85 21.738C501.39 21.1942 500.53 20.6505 499.271 20.0826C498.726 19.8651 498.448 19.5751 498.448 19.2246V18.3063C498.448 17.7988 498.775 17.4967 499.429 17.388L518.402 14.3913C520.206 14.1013 521.659 14.21 522.773 14.6934C523.887 15.1767 524.746 16.1071 525.352 17.4846L541.14 53.7226C542.182 56.0547 542.69 57.7464 542.69 58.8097C542.69 60.441 541.794 61.3956 539.99 61.6735L519.467 64.9239C518.317 65.1052 517.494 65.0085 516.973 64.6339C516.452 64.2593 516.004 63.4135 515.617 62.1085L512.917 53.0822L512.905 53.0701ZM508.897 50.1218L511.924 49.6385L506.197 30.0393C505.931 29.8338 505.567 29.7613 505.131 29.8218C504.696 29.8943 504.344 30.0634 504.066 30.3293C503.787 30.5951 503.654 30.9213 503.654 31.2718C503.654 31.4772 503.678 31.6947 503.739 31.9484C503.787 32.1901 503.872 32.4922 503.981 32.8184L508.885 50.1097L508.897 50.1218Z" fill="#A6683A"/>
<path d="M571.955 5.92085C580.019 4.64001 586.303 5.87252 590.807 9.61836C595.311 13.3642 597.551 19.1884 597.551 27.1151C597.551 32.0934 596.51 36.673 594.44 40.8418C592.369 45.0105 589.379 48.4785 585.48 51.2576C581.581 54.0368 577.041 55.8372 571.858 56.6468L549.447 60.1873C548.466 60.3443 547.776 60.2477 547.364 59.9093C546.952 59.571 546.746 58.9185 546.746 57.9518V18.5238C546.746 16.8925 546.528 15.7688 546.093 15.1525C545.657 14.5363 544.458 13.7992 542.497 12.9413C542.218 12.8325 542.085 12.6271 542.085 12.325V11.4067C542.085 10.8992 542.412 10.5971 543.066 10.4884L571.931 5.92085H571.955ZM568.686 52.8768C569.013 53.2272 569.534 53.3481 570.236 53.2393C570.732 53.1668 571.108 52.9251 571.386 52.5264C571.653 52.1276 571.798 51.6443 571.798 51.0885V11.5155C571.798 10.9596 571.665 10.5246 571.386 10.2104C571.108 9.89628 570.732 9.77545 570.236 9.86003C569.534 9.96878 569.013 10.2588 568.686 10.7179V52.8768Z" fill="#A6683A"/>
</g>
<defs>
<clipPath id="clip0_50_67">
<rect width="603" height="149" fill="white"/>
</clipPath>
</defs>
</svg>
