<svg width="342" height="127" viewBox="0 0 342 127" fill="none" xmlns="http://www.w3.org/2000/svg">
<g clip-path="url(#clip0_50_104)">
<path d="M143.284 24.8089C143.453 23.5248 143.562 22.2892 143.598 21.1021C143.634 19.9149 143.405 19.1639 142.91 18.8489C142.741 18.4855 142.366 18.2917 141.774 18.2675C141.182 18.2432 140.554 18.2796 139.89 18.3886C139.129 18.5097 138.295 18.7157 137.365 19.0185C136.435 19.3213 135.517 19.6605 134.587 20.0482C133.826 20.3268 133.053 20.6417 132.256 21.0052C131.459 21.3686 130.722 21.8047 130.045 22.3013C130.299 23.3673 130.42 24.5666 130.42 25.8991C130.42 27.2316 130.335 28.552 130.166 29.8239C129.997 31.2655 129.792 32.7554 129.538 34.2818C129.031 36.4865 128.113 40.4476 126.772 46.1653C125.588 50.9866 123.897 57.9883 121.662 67.1341C121.566 67.5581 121.457 67.9821 121.348 68.4182C120.913 68.8179 120.454 69.2177 119.959 69.6538C118.28 71.0953 116.444 72.5489 114.475 74.0026C112.506 75.4562 110.465 76.8614 108.363 78.2181C106.261 79.5749 104.244 80.762 102.311 81.7675C102.396 81.1254 102.48 80.3502 102.565 79.4295C102.65 78.5089 102.686 77.7457 102.686 77.1158C102.686 74.051 102.142 71.5193 101.043 69.5326C99.9438 67.546 98.6271 65.9712 97.0689 64.7962C95.5107 63.6333 93.9162 62.8216 92.2855 62.3734C90.6428 61.9252 89.2778 61.7556 88.1907 61.8404C87.937 61.8041 87.7075 61.7556 87.5021 61.7193C87.2968 61.6708 87.0552 61.6708 86.8136 61.7193C85.3037 61.9616 83.7455 62.3855 82.151 62.9912C80.5566 63.5969 79.0587 64.348 77.6817 65.2323C76.2926 66.1166 75.0726 67.1583 74.0217 68.3455C72.9708 69.5326 72.1977 70.8409 71.6904 72.2582C70.265 74.0631 69.0209 75.9892 67.97 78.0364C66.9191 80.0958 66.0615 82.1188 65.385 84.1054C64.7086 86.1042 64.1892 88.0302 63.8147 89.8957C63.5852 91.0344 63.4282 92.0883 63.3436 93.0816C63.2228 93.227 63.1141 93.3603 62.9933 93.5056C61.8096 94.9108 60.6016 96.3039 59.3333 97.6849C58.0771 99.0658 56.9416 100.229 55.927 101.174C51.4697 105.268 48.1358 107.812 45.9133 108.842C43.6907 109.859 42.1928 109.811 41.4439 108.672C40.8521 107.824 40.7675 106.734 41.1903 105.413C41.613 104.093 42.1928 102.47 42.9538 100.532C44.041 97.7575 44.9952 95.3348 45.7925 93.2391C46.5897 91.1435 47.242 89.2537 47.7493 87.5699C48.2566 85.874 48.6553 84.3356 48.9452 82.9546C49.2351 81.5736 49.3921 80.2532 49.3921 78.9934C49.4766 76.9341 49.3075 75.2503 48.8848 73.942C48.462 72.6337 47.858 71.6283 47.0608 70.9257C46.2636 70.2231 45.3335 69.787 44.2826 69.5932C43.2317 69.3994 42.1204 69.4115 40.9487 69.5932C38.6778 69.9566 36.5398 70.744 34.5225 71.9675C32.5053 73.191 30.5968 74.6325 28.7849 76.3042C26.973 77.9638 25.3181 79.7445 23.8082 81.6342C22.2983 83.5239 20.9937 85.341 19.8945 87.0854C21.7427 79.9504 23.7599 73.2031 25.9462 66.8434C28.1326 60.4837 30.1015 53.9786 31.8651 47.3282C32.2879 45.5354 32.6623 43.8637 33.0005 42.3131C33.1696 41.0291 33.2784 39.7935 33.3146 38.6064C33.3508 37.4192 33.1213 36.6682 32.6261 36.3532C32.457 35.9898 32.0825 35.796 31.4906 35.7717C30.8987 35.7475 30.2706 35.7839 29.6063 35.8929C28.8453 36.014 28.0118 36.2321 27.0817 36.5349C26.1516 36.8378 25.2336 37.1769 24.3035 37.5646C23.5425 37.8432 22.7694 38.1581 21.9722 38.5216C21.1749 38.885 20.4381 39.3211 19.7617 39.8177C20.0153 40.8837 20.1361 42.083 20.1361 43.4155C20.1361 44.748 20.0516 46.0684 19.8825 47.3524C19.7133 48.794 19.508 50.284 19.2543 51.8103C18.747 54.015 17.829 57.9762 16.4761 63.6938C15.2923 68.5151 13.6133 75.5047 11.4391 84.6626C9.25271 93.8206 6.26913 105.959 2.48833 121.101C2.74199 121.924 3.11645 122.554 3.62378 122.978C4.13111 123.414 4.62636 123.741 5.13368 123.972C5.72557 124.19 6.35369 124.323 7.01805 124.383C7.60993 124.371 8.18974 124.311 8.78162 124.226C9.28895 124.141 9.83252 123.984 10.4244 123.729C11.0163 123.475 11.5598 123.112 12.0672 122.651C12.6591 120.277 13.263 117.563 13.8911 114.523C14.5193 111.47 15.1353 108.648 15.7151 106.043C16.3916 102.954 17.0559 99.8169 17.7324 96.6431C18.8195 94.8139 20.0878 92.9242 21.5132 90.9739C22.9385 89.0236 24.4363 87.2307 25.9825 85.6075C27.5407 83.9843 29.0869 82.6154 30.6451 81.5009C32.2033 80.3865 33.6528 79.7324 34.9936 79.5143C36.9263 79.2115 38.0134 79.9141 38.2671 81.6463C38.5208 83.3786 38.3275 85.5469 37.6994 88.1635C37.0712 90.78 36.2257 93.5299 35.1748 96.4008C34.1239 99.2839 33.3025 101.755 32.7227 103.802C31.7926 107.097 31.3094 109.786 31.2732 111.87C31.2249 113.966 31.9617 115.795 33.4837 117.357C35.1627 119.138 36.8659 119.889 38.5932 119.611C40.3085 119.332 42.4344 118.327 44.959 116.594C47.2299 115.056 49.5854 113.19 52.0133 110.998C54.4533 108.805 56.8691 106.492 59.2608 104.069C60.6983 102.615 62.0753 101.137 63.404 99.6473C63.4523 100.338 63.4765 101.016 63.549 101.731C63.7543 104.129 64.3462 106.286 65.3125 108.175C66.2789 110.065 67.7526 111.543 69.7215 112.609C71.6904 113.675 74.4082 113.929 77.8508 113.384C80.7861 112.912 83.5039 111.955 85.9802 110.501C88.4564 109.048 90.679 107.218 92.66 105.014C94.6289 102.809 96.3321 100.301 97.7695 97.4789C99.1949 94.6564 100.33 91.6886 101.176 88.5632C103.7 87.3761 106.346 85.7771 109.112 83.7662C111.89 81.7553 114.451 79.7324 116.806 77.7094C117.845 76.8251 118.8 75.965 119.718 75.1413C117.797 83.0152 115.49 92.5002 112.772 103.584C113.026 104.408 113.4 105.038 113.907 105.462C114.415 105.898 114.91 106.225 115.417 106.455C116.009 106.673 116.589 106.819 117.181 106.879C117.857 106.855 118.485 106.794 119.077 106.697C119.585 106.613 120.128 106.455 120.72 106.201C121.312 105.946 121.807 105.595 122.23 105.135C126.095 90.2955 129.308 77.988 131.869 68.2243C134.43 58.4607 136.471 50.7443 137.981 45.0872C139.745 38.4368 141.134 33.349 142.137 29.7997C142.559 28.0069 142.934 26.3352 143.272 24.7846L143.284 24.8089ZM88.6497 97.5758C87.8524 99.0779 86.9465 100.447 85.9439 101.658C84.9413 102.882 83.8059 103.923 82.5376 104.796C81.2813 105.668 79.8922 106.213 78.3823 106.455C77.0415 106.673 75.9423 106.504 75.1088 105.971C74.2633 105.438 73.5989 104.674 73.0916 103.693C72.5843 102.712 72.246 101.549 72.089 100.205C71.9199 98.8599 71.8353 97.4789 71.8353 96.0616C71.8353 94.6443 72.0045 93.1301 72.3427 91.4948C72.6809 89.8715 73.1037 88.1877 73.5989 86.4555C74.8552 89.0114 76.6429 90.986 78.95 92.3791C81.2572 93.7842 84.0112 94.2325 87.2002 93.7237C87.8766 93.6147 88.4806 93.5056 89.0241 93.3724C89.5677 93.2512 90.1354 93.0938 90.7273 92.9242C90.1354 94.5111 89.4469 96.0616 88.6497 97.5637V97.5758ZM93.88 80.4107C93.88 81.0406 93.7713 81.7796 93.5659 82.6396C93.3606 83.4997 93.119 84.4567 92.8774 85.5227C92.4546 85.6681 92.0319 85.7892 91.6212 85.8982C91.1984 86.0073 90.7756 86.092 90.3649 86.1526C87.7558 86.5645 85.7265 86.516 84.2528 86.0073C82.7792 85.4985 81.7162 84.7474 81.0397 83.742C80.3633 82.7487 79.9405 81.5736 79.7835 80.229C79.6144 78.8844 79.5298 77.5761 79.5298 76.3163C79.5298 75.5289 79.6506 74.7657 79.9043 74.0147C81.1605 72.3188 82.5255 70.9499 83.9992 69.8839C85.4728 68.83 87.0069 68.1638 88.6014 67.9215C89.6039 67.764 90.4736 68.0426 91.1863 68.7452C91.899 69.4599 92.4909 70.429 92.9499 71.6525C93.4089 72.876 93.723 74.257 93.8921 75.8075C94.0612 77.3581 94.0612 78.8844 93.8921 80.4107H93.88Z" fill="white"/>
<path d="M141.436 18.2675C141.545 18.2675 141.666 18.2675 141.774 18.2675C142.366 18.2917 142.741 18.4855 142.91 18.8489C143.417 19.1639 143.647 19.9149 143.598 21.1021C143.55 22.2892 143.453 23.5248 143.284 24.8089C142.946 26.3594 142.571 28.0311 142.149 29.8239C141.146 33.3611 139.757 38.461 137.993 45.1114C136.484 50.7806 134.442 58.4849 131.881 68.2486C129.321 78.0122 126.107 90.3076 122.242 105.159C121.819 105.619 121.312 105.971 120.732 106.225C120.14 106.479 119.597 106.637 119.089 106.722C118.498 106.819 117.869 106.879 117.193 106.903C116.601 106.843 116.021 106.697 115.429 106.479C114.922 106.249 114.427 105.91 113.919 105.486C113.412 105.05 113.038 104.432 112.784 103.608C115.49 92.5244 117.809 83.0515 119.73 75.1655C118.824 75.9892 117.857 76.8372 116.819 77.7336C114.463 79.7566 111.902 81.7796 109.124 83.7904C106.346 85.8013 103.7 87.4003 101.188 88.5875C100.342 91.7128 99.2069 94.6807 97.7816 97.5031C96.3562 100.326 94.6531 102.833 92.6721 105.038C90.6911 107.243 88.4685 109.072 85.9922 110.525C83.516 111.979 80.7982 112.936 77.8629 113.408C76.6912 113.59 75.6041 113.687 74.6015 113.687C72.6567 113.687 71.0381 113.336 69.7336 112.633C67.7646 111.567 66.291 110.101 65.3246 108.2C64.3583 106.31 63.7664 104.166 63.5611 101.755C63.5007 101.04 63.4644 100.362 63.4161 99.6715C62.0874 101.161 60.7104 102.627 59.2729 104.093C56.8812 106.516 54.4654 108.829 52.0254 111.022C49.5854 113.215 47.242 115.08 44.9711 116.619C42.4465 118.351 40.3326 119.356 38.6053 119.635C38.3758 119.671 38.1463 119.695 37.9168 119.695C36.431 119.695 34.9574 118.92 33.4958 117.382C31.9859 115.819 31.249 113.99 31.2853 111.894C31.3215 109.811 31.8047 107.109 32.7348 103.826C33.3267 101.767 34.136 99.296 35.1869 96.425C36.2378 93.542 37.0833 90.8043 37.7114 88.1877C38.3396 85.5712 38.5328 83.4028 38.2792 81.6705C38.0617 80.2048 37.2404 79.4659 35.815 79.4659C35.5613 79.4659 35.2835 79.4901 34.9936 79.5385C33.6528 79.7566 32.2033 80.4107 30.6451 81.5252C29.0869 82.6396 27.5407 84.0085 25.9825 85.6317C24.4243 87.255 22.9385 89.0478 21.5132 90.9981C20.0878 92.9605 18.8195 94.8503 17.7324 96.6673C17.0559 99.8411 16.3916 102.979 15.7151 106.068C15.1232 108.672 14.5193 111.507 13.8911 114.547C13.263 117.6 12.647 120.301 12.0672 122.675C11.5598 123.148 11.0163 123.511 10.4244 123.754C9.83252 124.008 9.28895 124.165 8.78162 124.25C8.18974 124.347 7.60993 124.396 7.01805 124.408C6.34161 124.359 5.71349 124.226 5.13368 123.996C4.62636 123.766 4.13111 123.426 3.62378 123.002C3.11645 122.566 2.74199 121.949 2.48833 121.125C6.26913 105.983 9.25271 93.8327 11.4391 84.6869C13.6254 75.541 15.3044 68.5514 16.4761 63.718C17.8169 58.0004 18.747 54.0392 19.2543 51.8345C19.508 50.3082 19.7133 48.8182 19.8825 47.3767C20.0516 46.0926 20.1361 44.7843 20.1361 43.4397C20.1361 42.0951 20.0153 40.908 19.7617 39.8419C20.4381 39.3453 21.1629 38.9092 21.9722 38.5458C22.7694 38.1824 23.5425 37.8674 24.3035 37.5888C25.2215 37.2012 26.1516 36.862 27.0817 36.5591C27.9997 36.2563 28.8453 36.0382 29.6063 35.9171C30.1498 35.8323 30.6692 35.7839 31.1645 35.7839C31.2732 35.7839 31.394 35.7839 31.5027 35.7839C32.0946 35.8081 32.469 36.0019 32.6382 36.3653C33.1455 36.6803 33.375 37.4313 33.3267 38.6185C33.2784 39.8056 33.1817 41.0412 33.0126 42.3253C32.6744 43.8758 32.2999 45.5475 31.8772 47.3403C30.1136 53.9907 28.1326 60.4958 25.9583 66.8555C23.772 73.2152 21.7547 79.9625 19.9066 87.0975C20.9937 85.3531 22.2983 83.5361 23.8203 81.6463C25.3302 79.7566 26.9851 77.9759 28.797 76.3163C30.6088 74.6567 32.5174 73.2152 34.5346 71.9796C36.5518 70.7561 38.6899 69.9687 40.9608 69.6053C41.5526 69.5084 42.1204 69.4599 42.676 69.4599C43.2317 69.4599 43.7752 69.5084 44.2946 69.6053C45.3455 69.787 46.2636 70.2352 47.0729 70.9378C47.8701 71.6404 48.4741 72.6458 48.8968 73.9541C49.3196 75.2624 49.4887 76.9462 49.4042 79.0055C49.4042 80.2654 49.2592 81.5858 48.9572 82.9667C48.6673 84.3477 48.2687 85.8861 47.7614 87.582C47.2541 89.278 46.6018 91.1677 45.8045 93.2512C45.0073 95.3469 44.0651 97.7696 42.9659 100.544C42.2049 102.47 41.6251 104.093 41.2023 105.426C40.7796 106.746 40.8641 107.836 41.456 108.684C41.8546 109.278 42.4586 109.581 43.2679 109.581C43.9927 109.581 44.8865 109.338 45.9374 108.854C48.16 107.836 51.506 105.28 55.9511 101.186C56.9537 100.241 58.0891 99.0779 59.3575 97.697C60.6137 96.316 61.8337 94.9229 63.0175 93.5177C63.1383 93.3724 63.247 93.2391 63.3678 93.0938C63.4523 92.1004 63.6094 91.0344 63.8389 89.9079C64.2133 88.0424 64.7448 86.1042 65.4092 84.1175C66.0856 82.1188 66.9432 80.0958 67.9941 78.0485C69.045 76.0013 70.2771 74.0753 71.7146 72.2703C72.2219 70.853 72.995 69.5568 74.0458 68.3576C75.0967 67.1704 76.3168 66.1287 77.7059 65.2444C79.095 64.3601 80.5807 63.609 82.1752 63.0033C83.7697 62.3977 85.3279 61.9737 86.8378 61.7314C86.9586 61.7072 87.0673 61.7072 87.176 61.7072C87.2968 61.7072 87.4176 61.7072 87.5263 61.7435C87.7317 61.792 87.9732 61.8283 88.2148 61.8647C88.4081 61.8525 88.6014 61.8404 88.8188 61.8404C89.7972 61.8404 90.9689 62.0221 92.3097 62.3977C93.9525 62.8459 95.5469 63.6575 97.0931 64.8204C98.6513 65.9833 99.9679 67.5702 101.067 69.5568C102.154 71.5435 102.71 74.0753 102.71 77.14C102.71 77.7699 102.662 78.5452 102.589 79.4537C102.505 80.3744 102.42 81.1497 102.335 81.7917C104.268 80.7741 106.285 79.587 108.387 78.2424C110.489 76.8856 112.53 75.4804 114.499 74.0268C116.468 72.5732 118.304 71.1195 119.983 69.678C120.479 69.254 120.938 68.8421 121.372 68.4424C121.481 68.0063 121.578 67.5823 121.686 67.1583C123.909 58.0004 125.612 51.0108 126.796 46.1895C128.137 40.4719 129.067 36.5107 129.562 34.306C129.816 32.7797 130.021 31.2897 130.19 29.8481C130.359 28.5641 130.444 27.2558 130.444 25.9233C130.444 24.5908 130.323 23.3915 130.069 22.3255C130.746 21.8289 131.483 21.3928 132.28 21.0294C133.077 20.666 133.85 20.351 134.611 20.0724C135.529 19.6848 136.459 19.3456 137.389 19.0427C138.308 18.7399 139.153 18.5218 139.914 18.4128C140.458 18.328 140.977 18.2796 141.472 18.2796M87.2364 86.4555C88.1786 86.4555 89.2295 86.3585 90.3891 86.1768C90.8119 86.1163 91.2346 86.0194 91.6453 85.9225C92.0681 85.8134 92.4788 85.6923 92.9016 85.5469C93.1552 84.4809 93.3847 83.5239 93.5901 82.6639C93.7954 81.8038 93.9041 81.0649 93.9041 80.4349C94.0733 78.9207 94.0733 77.3823 93.9041 75.8317C93.735 74.2812 93.421 72.9002 92.962 71.6767C92.503 70.4533 91.9111 69.4842 91.1984 68.7695C90.6186 68.188 89.9301 67.8973 89.157 67.8973C88.9879 67.8973 88.8067 67.9094 88.6134 67.9457C87.019 68.2001 85.4849 68.8543 84.0112 69.9081C82.5376 70.9741 81.1726 72.343 79.9164 74.0389C79.6627 74.79 79.5419 75.5531 79.5419 76.3405C79.5419 77.6003 79.6265 78.9086 79.7956 80.2532C79.9647 81.5979 80.3875 82.7729 81.0518 83.7662C81.7283 84.7595 82.7912 85.5106 84.2649 86.0315C85.0742 86.3101 86.0647 86.4555 87.2243 86.4555M77.3072 106.564C77.6455 106.564 78.0079 106.528 78.3944 106.467C79.9043 106.225 81.2934 105.668 82.5496 104.808C83.8059 103.936 84.9413 102.894 85.956 101.67C86.9586 100.447 87.8645 99.09 88.6618 97.5879C89.459 96.0858 90.1475 94.5474 90.7394 92.9484C90.1475 93.118 89.5798 93.2755 89.0362 93.3966C88.4926 93.5177 87.8766 93.6389 87.2122 93.7479C86.3667 93.8812 85.5453 93.9538 84.7602 93.9538C82.5859 93.9538 80.6532 93.4451 78.9621 92.4154C76.655 91.0102 74.8672 89.0357 73.611 86.4918C73.1037 88.2241 72.6809 89.9079 72.3548 91.5311C72.0165 93.1543 71.8474 94.6807 71.8474 96.098C71.8474 97.5153 71.932 98.8962 72.1011 100.241C72.2702 101.585 72.6084 102.76 73.1037 103.73C73.611 104.711 74.2754 105.474 75.1209 106.007C75.7249 106.395 76.4496 106.576 77.3072 106.576M141.436 15.8447C140.82 15.8447 140.168 15.8932 139.503 16.0022C138.634 16.1354 137.655 16.3898 136.616 16.729C135.638 17.0561 134.672 17.4074 133.717 17.8071C132.896 18.11 132.075 18.4492 131.265 18.8126C130.311 19.2487 129.429 19.7696 128.62 20.3631L127.34 21.3201L127.714 22.8828C127.919 23.755 128.028 24.7725 128.028 25.9233C128.028 27.1468 127.956 28.3582 127.799 29.5453C127.629 30.9868 127.424 32.4284 127.195 33.8578C126.687 36.0746 125.769 39.9994 124.441 45.6444C123.269 50.4535 121.566 57.4432 119.343 66.6011L119.271 66.8797L119.21 67.1462C118.957 67.3764 118.691 67.6065 118.413 67.8367C116.782 69.2419 114.982 70.6713 113.074 72.0765C111.141 73.4938 109.124 74.8869 107.083 76.2073C106.43 76.6313 105.778 77.0431 105.126 77.4307C105.126 77.3338 105.126 77.2369 105.126 77.14C105.126 73.6755 104.474 70.7319 103.193 68.3939C101.937 66.1044 100.379 64.251 98.5547 62.8943C96.7669 61.5497 94.8826 60.5927 92.9499 60.0718C91.3796 59.6478 90.0267 59.4298 88.8188 59.4298C88.6497 59.4298 88.4926 59.4298 88.3356 59.4298C88.239 59.4177 88.1423 59.3935 88.0457 59.3692C87.7437 59.3087 87.4659 59.2723 87.176 59.2723C86.9344 59.2723 86.6928 59.2966 86.4513 59.3329C84.7843 59.5994 83.057 60.0718 81.3176 60.726C79.5782 61.3801 77.9233 62.2159 76.4013 63.1972C74.831 64.2026 73.4298 65.4018 72.234 66.7465C71.0744 68.0547 70.1926 69.4963 69.5765 71.059C68.1512 72.8881 66.8949 74.8626 65.844 76.9341C64.7448 79.0782 63.8268 81.2345 63.1262 83.3301C62.4256 85.4016 61.87 87.4488 61.4713 89.4112C61.2902 90.3197 61.1452 91.2161 61.0365 92.1004C59.9131 93.4329 58.7535 94.7655 57.5818 96.0495C56.3618 97.382 55.2626 98.5086 54.3083 99.405C49.0418 104.238 46.2998 106.007 44.9348 106.637C44.1134 107.012 43.6424 107.109 43.4008 107.134C43.3283 106.806 43.4491 106.346 43.5216 106.14C43.9202 104.88 44.5 103.281 45.2368 101.416C46.3843 98.5207 47.3144 96.1222 48.0754 94.1113C48.8968 91.9793 49.5733 90.0048 50.0927 88.2604C50.6121 86.5281 51.0228 84.917 51.3368 83.4634C51.663 81.937 51.8321 80.4471 51.8321 79.0419C51.9166 76.6918 51.7234 74.7779 51.2161 73.2031C50.6604 71.4708 49.8028 70.0899 48.6794 69.1086C47.544 68.1153 46.2273 67.4854 44.7416 67.2189C44.0772 67.0978 43.3887 67.0372 42.7002 67.0372C42.0117 67.0372 41.3231 67.0978 40.6105 67.2068C38.0497 67.6187 35.5855 68.5272 33.3025 69.9081C31.1524 71.2164 29.0989 72.767 27.1904 74.5235C26.6227 75.0444 26.067 75.5774 25.5356 76.1225C26.4173 73.2152 27.3354 70.3806 28.2775 67.6429C30.476 61.2469 32.4811 54.6207 34.2568 47.9702V47.9339L34.2689 47.8976C34.6916 46.0926 35.0782 44.4088 35.4164 42.8461L35.4405 42.7492V42.6523C35.6338 41.3198 35.7425 39.9873 35.7908 38.7154C35.8512 36.9104 35.4164 35.5658 34.4742 34.7057C34.0031 34.1122 33.1455 33.4338 31.6477 33.3732C31.5027 33.3732 31.3578 33.3732 31.2128 33.3732C30.5968 33.3732 29.9445 33.4217 29.2801 33.5307C28.3983 33.6761 27.432 33.9184 26.3811 34.2575C25.4027 34.5846 24.4243 34.9359 23.4821 35.3357C22.6607 35.6385 21.8393 35.9777 21.03 36.3532C20.0878 36.7772 19.1939 37.3102 18.3846 37.9038L17.1042 38.8607L17.4787 40.4113C17.684 41.2835 17.7927 42.301 17.7927 43.4397C17.7927 44.6753 17.7203 45.8867 17.5632 47.0496C17.3941 48.479 17.1888 49.9205 16.9593 51.3621C16.4519 53.5789 15.5339 57.5037 14.2052 63.1487C13.0939 67.7035 11.4874 74.366 9.16816 84.1054C6.98181 93.2634 3.97408 105.51 0.229506 120.519L0.0724754 121.173L0.265744 121.815C0.65228 123.087 1.2804 124.105 2.15011 124.832C2.81447 125.401 3.51506 125.861 4.21566 126.176L4.38477 126.249C5.182 126.552 6.03963 126.734 6.94557 126.806H7.18716C7.88775 126.782 8.58835 126.721 9.27687 126.612C9.97747 126.503 10.7022 126.285 11.4753 125.946C12.3088 125.595 13.106 125.074 13.8187 124.408L14.3381 123.923L14.5072 123.221C15.0991 120.822 15.7272 118.048 16.3553 114.995C16.9714 112.027 17.5753 109.181 18.1793 106.552C18.8316 103.572 19.4718 100.556 20.112 97.5274C21.1145 95.8799 22.2742 94.1477 23.5666 92.3791C24.9316 90.5135 26.369 88.7934 27.8306 87.255C29.2801 85.7407 30.7296 84.4688 32.155 83.4513C33.3992 82.567 34.5104 82.034 35.4768 81.8886C35.6459 81.8644 35.7908 81.8523 35.9116 81.8523C35.9237 81.8523 35.9479 81.8523 35.96 81.8523C35.96 81.8886 35.972 81.937 35.9841 81.9855C36.1895 83.3907 36.0083 85.2804 35.4526 87.582C34.8487 90.0896 34.0273 92.7667 33.0126 95.565C31.9496 98.4965 31.1041 101.04 30.5001 103.136C29.5096 106.661 29.0023 109.508 28.954 111.822C28.8936 114.571 29.872 116.994 31.8409 119.041C33.7494 121.052 35.8271 122.094 37.9893 122.094C38.3396 122.094 38.7019 122.07 39.0522 122.009C41.154 121.682 43.5578 120.556 46.4085 118.593C48.7519 117.006 51.2161 115.044 53.7165 112.791C56.1927 110.562 58.6569 108.2 61.0606 105.765C61.2781 105.547 61.4955 105.316 61.725 105.086C62.0753 106.588 62.5826 107.981 63.247 109.278C64.4308 111.603 66.2547 113.445 68.6706 114.741C70.3254 115.625 72.3427 116.086 74.6861 116.086C75.8094 116.086 77.0294 115.977 78.3219 115.771C81.5471 115.262 84.5669 114.184 87.2968 112.585C89.9784 111.01 92.4184 109.011 94.5564 106.637C96.6582 104.287 98.5064 101.573 100.016 98.5813C101.345 95.9526 102.456 93.1543 103.302 90.2713C105.645 89.0841 108.109 87.5578 110.622 85.7286C112.373 84.4567 114.064 83.1605 115.671 81.8765C114.149 88.115 112.434 95.1652 110.513 103.015L110.356 103.657L110.549 104.299C110.936 105.571 111.564 106.588 112.422 107.315C113.098 107.885 113.787 108.345 114.487 108.672L114.656 108.745C115.429 109.035 116.215 109.217 117 109.314L117.181 109.338H117.374C118.159 109.29 118.86 109.229 119.536 109.12C120.237 109.011 120.962 108.793 121.747 108.466C122.653 108.078 123.438 107.521 124.09 106.819L124.501 106.37L124.658 105.789C128.632 90.5014 131.785 78.4362 134.297 68.8906C136.822 59.2844 138.875 51.4953 140.409 45.7655C142.161 39.1515 143.562 34.0274 144.552 30.5265V30.4659L144.577 30.4054C144.999 28.6004 145.386 26.9166 145.724 25.354L145.748 25.2571V25.1601C145.942 23.8034 146.05 22.483 146.099 21.2232C146.159 19.4183 145.724 18.0736 144.782 17.2257C144.311 16.6321 143.453 15.9537 141.955 15.8811C141.81 15.8811 141.666 15.8811 141.521 15.8811L141.436 15.8447ZM82.0786 75.1534C83.1174 73.8088 84.2287 72.7064 85.4004 71.8706C86.572 71.0226 87.7317 70.526 88.9637 70.3321C89.0241 70.3321 89.0725 70.32 89.1208 70.32C89.2053 70.32 89.2899 70.32 89.459 70.4896C89.918 70.9499 90.3287 71.6404 90.6669 72.5368C91.0534 73.5544 91.3192 74.7536 91.4641 76.0982C91.6091 77.455 91.6091 78.8238 91.4641 80.1684V80.3017L91.4521 80.4349C91.4521 80.8589 91.3675 81.4162 91.2105 82.0945C91.0897 82.567 90.9689 83.0757 90.836 83.6208C90.5461 83.6935 90.2562 83.742 89.9663 83.7904C88.9275 83.96 87.9974 84.0327 87.1881 84.0327C86.3063 84.0327 85.5695 83.9358 85.0259 83.742C84.0596 83.4028 83.3831 82.9546 83.0207 82.4095C82.5617 81.7311 82.2718 80.9316 82.151 79.9504C81.994 78.7148 81.9215 77.4913 81.9215 76.3405C81.9215 75.9408 81.9699 75.541 82.0665 75.1655L82.0786 75.1534ZM77.2952 104.129C76.9086 104.129 76.6067 104.069 76.4013 103.936C75.9181 103.633 75.5437 103.197 75.2296 102.591C74.8552 101.864 74.6015 100.968 74.4686 99.9138C74.3116 98.6782 74.2391 97.382 74.2391 96.0616C74.2391 94.8503 74.3841 93.5177 74.674 92.1004C75.5799 92.9969 76.5946 93.7964 77.6938 94.4626C79.7593 95.7224 82.139 96.3523 84.7481 96.3523C85.352 96.3523 85.9802 96.316 86.6083 96.2433C86.572 96.3039 86.5479 96.3645 86.5117 96.425C85.799 97.7818 84.9776 99.0174 84.0716 100.108C83.214 101.149 82.2235 102.058 81.1605 102.785C80.1942 103.451 79.1554 103.863 77.9837 104.057C77.73 104.093 77.4884 104.117 77.271 104.117L77.2952 104.129Z" fill="#3B2314"/>
<path d="M157.815 33.9426C158.407 34.3181 159.156 34.3544 160.086 34.0516C161.004 33.7488 161.91 33.2642 162.792 32.6222C163.674 31.968 164.471 31.1807 165.184 30.2358C165.897 29.2909 166.38 28.3703 166.633 27.4739C166.887 26.6501 166.984 25.7295 166.947 24.7119C166.899 23.6944 166.718 22.8101 166.38 22.0348C166.041 21.2595 165.558 20.6781 164.93 20.2662C164.302 19.8543 163.517 19.8059 162.599 20.1087C161.669 20.4116 160.582 21.1142 159.325 22.2165C158.069 23.3189 157.018 24.5908 156.173 26.0202C155.327 27.4496 154.953 28.8912 155.037 30.3206C155.122 31.7621 156.04 32.9735 157.815 33.9547V33.9426Z" fill="white"/>
<path d="M163.698 19.9028C164.157 19.9028 164.568 20.0239 164.93 20.2541C165.558 20.666 166.041 21.2595 166.38 22.0227C166.718 22.798 166.899 23.6944 166.947 24.6998C166.984 25.7174 166.887 26.638 166.633 27.4618C166.38 28.3703 165.897 29.2909 165.184 30.2237C164.471 31.1685 163.674 31.9559 162.792 32.6101C161.91 33.2642 161.004 33.7366 160.086 34.0395C159.676 34.1727 159.301 34.2454 158.951 34.2454C158.516 34.2454 158.142 34.1364 157.815 33.9305C156.052 32.9493 155.122 31.75 155.037 30.2964C154.953 28.8548 155.327 27.4254 156.173 25.996C157.006 24.5666 158.069 23.2946 159.325 22.1923C160.582 21.0899 161.681 20.3874 162.599 20.0845C162.985 19.9513 163.36 19.8907 163.698 19.8907M163.698 17.468C163.106 17.468 162.478 17.577 161.85 17.7829C160.594 18.1948 159.253 19.0427 157.731 20.3752C156.281 21.6472 155.049 23.125 154.083 24.7725C152.996 26.6138 152.501 28.5278 152.621 30.4538C152.706 32.0407 153.479 34.2818 156.583 36.0261C157.284 36.4622 158.081 36.6803 158.951 36.6803C159.555 36.6803 160.183 36.5713 160.835 36.3532C161.995 35.9656 163.142 35.372 164.217 34.5725C165.28 33.7851 166.247 32.8281 167.104 31.7015C167.998 30.5144 168.626 29.3151 168.965 28.1159C169.279 27.0983 169.424 25.887 169.363 24.6029C169.303 23.2825 169.049 22.0954 168.602 21.0536C168.071 19.8422 167.286 18.8853 166.259 18.219C165.498 17.7223 164.64 17.468 163.71 17.468H163.698Z" fill="#3B2314"/>
<path d="M339.113 25.1844C338.569 24.0941 337.156 23.6459 334.885 23.8519C333.955 23.9246 333.037 24.1426 332.107 24.5302C331.262 24.821 330.319 25.2692 329.268 25.8627C328.218 26.4684 327.142 27.2437 326.055 28.2007C327.396 29.3273 327.988 30.7203 327.819 32.4041C327.65 34.0758 327.275 36.4259 326.683 39.418C326.261 40.9806 325.608 42.7735 324.727 44.7964C323.845 46.8194 322.842 48.9151 321.707 51.0592C320.571 53.2034 319.327 55.3475 317.986 57.4916C316.646 59.6357 315.281 61.5618 313.892 63.2698C312.502 64.99 311.137 66.3952 309.797 67.5217C308.456 68.6362 307.236 69.2903 306.137 69.4599C303.866 69.8233 302.392 69.0965 301.728 67.2674C301.051 65.4503 301.1 62.7126 301.849 59.0543C301.933 58.2548 302.308 56.8738 302.984 54.9235C303.66 52.9732 304.409 50.8291 305.255 48.4911C306.088 46.1532 306.898 43.8879 307.647 41.6832C308.408 39.4785 308.951 37.6857 309.289 36.2926C309.966 33.6761 310.111 31.7621 309.736 30.5629C309.362 29.3636 308.033 28.7943 305.762 28.8306C304.832 28.9033 303.914 29.0486 302.996 29.2667C302.15 29.5574 301.208 29.9208 300.157 30.369C299.107 30.8172 297.995 31.4835 296.811 32.3678C297.983 33.5913 298.346 35.3114 297.887 37.504C297.428 39.6966 296.691 42.3737 295.676 45.5233C295.422 46.1895 295.06 47.2919 294.601 48.8182C294.142 50.3445 293.659 52.0525 293.151 53.9423C292.862 55.0325 292.584 56.1591 292.318 57.2978C291.122 58.9089 289.878 60.5685 288.549 62.2765C286.906 64.3843 285.336 66.3225 283.826 68.0911C282.316 69.8597 280.879 71.3497 279.538 72.5489C278.197 73.7482 277.098 74.4144 276.265 74.5477C275.262 74.7052 274.477 74.6204 273.933 74.2691C273.39 73.9299 272.991 73.4211 272.738 72.7549C272.484 72.0886 272.339 71.3497 272.291 70.5259C272.242 69.7143 272.266 68.939 272.351 68.2122C272.605 66.9887 272.81 65.9833 272.979 65.1596C273.148 64.3479 273.293 63.6332 273.414 63.0276C273.547 62.4219 273.668 61.8041 273.788 61.1984C273.909 60.5927 274.066 59.9143 274.235 59.1875C275.069 55.4444 275.745 52.3796 276.253 50.0174C276.76 47.6553 277.134 45.7898 277.388 44.4088C277.642 43.0279 277.762 42.0951 277.762 41.5742C277.762 41.0533 277.714 40.7384 277.642 40.593C277.473 40.5445 277.134 40.5567 276.639 40.6415C276.216 40.702 275.612 40.8474 274.815 41.0533C274.018 41.2593 273.027 41.5742 271.856 41.9982C273.619 39.1999 274.32 37.0679 273.933 35.59C273.559 34.1122 272.774 33.0825 271.602 32.4768C270.177 31.8348 268.329 31.5077 266.058 31.4714C264.125 31.6167 261.685 32.6343 258.75 34.524C255.802 36.4017 252.831 38.9819 249.799 42.2526C246.779 45.5233 243.977 49.327 241.416 53.6637C239.266 57.3099 237.635 61.1863 236.464 65.2807C235.074 66.9766 233.613 68.7452 232.03 70.5986C230.098 72.876 228.165 74.9838 226.232 76.9462C224.3 78.9086 222.476 80.5682 220.748 81.9492C219.021 83.318 217.572 84.1054 216.4 84.2871C215.397 84.4446 214.467 84.166 213.634 83.427C212.788 82.7002 212.414 81.3435 212.498 79.3568C212.583 78.0122 212.812 76.2073 213.187 73.942C213.561 71.6767 213.96 69.3025 214.383 66.7949C217.149 62.4219 219.734 57.8671 222.138 53.1186C224.529 48.37 226.655 43.6699 228.503 39.0182C230.351 34.3666 231.849 29.8966 232.973 25.6326C234.108 21.3686 234.76 17.4922 234.929 14.0034C235.099 11.1446 235.099 8.90357 234.929 7.28033C234.76 5.6571 234.446 4.46995 233.987 3.71891C233.528 2.96786 232.961 2.54388 232.284 2.45908C231.608 2.37428 230.859 2.3864 230.013 2.51965C229.337 2.62867 228.624 2.85883 227.875 3.21013C227.199 3.47663 226.486 3.82793 225.737 4.26402C224.976 4.70011 224.179 5.29369 223.345 6.05685C222.005 10.442 220.785 14.597 219.685 18.5461C218.586 22.4951 217.62 25.9839 216.786 29.0365C215.856 32.5616 214.975 35.8444 214.141 38.885C213.634 40.9322 213.138 43.0884 212.631 45.3779C212.124 47.6553 211.58 49.9811 210.988 52.3554C210.735 51.2894 210.336 50.187 209.793 49.012C209.249 47.837 208.548 46.7952 207.715 45.8624C206.869 44.9297 205.867 44.2271 204.695 43.7426C203.523 43.258 202.219 43.1369 200.793 43.367C197.52 43.8879 194.259 45.2931 191.021 47.5705C187.784 49.8479 184.885 52.7188 182.324 56.147C179.763 59.5752 177.638 63.4758 175.959 67.8246C175.113 70.0293 174.449 72.2582 173.965 74.5235C171.9 77.0552 169.701 79.587 167.334 82.1066C164.689 84.9291 162.079 87.4003 159.519 89.5323C156.958 91.6643 154.832 92.8757 153.153 93.1422C152.561 93.2391 152.017 93.1422 151.51 92.8757C151.003 92.5971 150.544 92.0278 150.121 91.1556C149.698 90.4409 149.577 89.3143 149.747 87.8001C149.916 86.2859 150.23 84.6384 150.689 82.8698C151.148 81.1012 151.679 79.2963 152.259 77.4307C152.851 75.5652 153.346 73.8935 153.769 72.4157C154.192 70.9378 154.82 69.0117 155.653 66.6374C156.487 64.2632 157.296 61.9494 158.045 59.7084C158.806 57.4674 159.434 55.5171 159.929 53.8696C160.437 52.2221 160.642 51.3621 160.557 51.2894C160.388 51.2409 159.784 51.3136 158.734 51.5195C157.683 51.7255 156.523 52.0283 155.267 52.4281C154.011 52.8278 152.791 53.276 151.607 53.7727C150.435 54.2694 149.638 54.7902 149.215 55.3354C147.874 57.1282 146.678 59.7084 145.628 63.1002C144.577 66.4921 143.719 70.0293 143.043 73.7118C142.366 77.3944 141.907 80.968 141.653 84.4204C141.4 87.8849 141.4 90.5741 141.653 92.5002C141.738 93.8206 142.161 95.032 142.91 96.1343C143.671 97.2366 144.613 98.1452 145.748 98.872C146.884 99.5988 148.14 100.108 149.529 100.398C150.918 100.689 152.319 100.677 153.757 100.374C155.52 100.011 157.803 98.6297 160.63 96.2191C163.444 93.8085 166.319 90.9739 169.267 87.7153C170.547 86.298 171.779 84.8564 172.999 83.4028C173.035 85.4137 173.301 87.1459 173.808 88.5875C174.473 90.5257 175.342 92.0399 176.393 93.1301C177.444 94.2203 178.64 94.935 179.981 95.2742C181.322 95.6134 182.59 95.6861 183.762 95.4923C187.035 94.9714 190.466 93.3481 194.029 90.6226C197.605 87.897 201.156 84.4082 204.683 80.1442C204.514 81.5131 204.393 82.4701 204.309 83.0394C204.224 84.3113 204.417 85.5348 204.876 86.722C205.335 87.9091 205.988 88.9388 206.833 89.8352C207.667 90.7195 208.621 91.3978 209.672 91.8582C210.723 92.3185 211.834 92.4638 213.006 92.27C214.6 92.0156 216.388 91.2404 218.357 89.9442C220.326 88.648 222.391 87.049 224.529 85.1351C226.667 83.2211 228.817 81.077 230.955 78.6906C232.272 77.2248 233.528 75.7591 234.76 74.2691C234.712 75.2139 234.712 76.1346 234.797 76.9583C235.05 79.478 235.642 81.4646 236.56 82.9304C237.478 84.3961 238.614 85.3895 239.967 85.9225C241.307 86.4555 242.576 86.625 243.747 86.4433C246.272 85.8861 248.784 84.9776 251.309 83.7056C253.495 82.5791 255.802 80.9679 258.242 78.8965C260.682 76.8251 262.905 74.051 264.922 70.5865C264.838 72.7185 264.983 74.475 265.369 75.8196C265.744 77.1764 266.142 78.2545 266.565 79.054C267.072 79.9989 267.7 80.6772 268.461 81.1133C269.222 81.4646 270.104 81.6584 271.107 81.6948C272.109 81.7311 273.184 81.6221 274.32 81.3677C275.455 81.1133 276.567 80.7378 277.654 80.2411C278.741 79.7566 279.707 79.2115 280.553 78.6058C281.809 77.6246 283.391 76.0134 285.276 73.7845C287.136 71.5919 289.032 69.2055 290.977 66.6253C290.941 70.2352 291.774 73.0698 293.466 75.1413C295.362 77.4307 298.575 78.4968 303.105 78.3272C304.953 78.2666 306.741 77.8063 308.456 76.9462C310.171 76.0861 311.79 74.9838 313.312 73.6392C314.834 72.2945 316.211 70.7803 317.467 69.0844C318.723 67.3885 319.907 65.632 320.994 63.8028C320.571 65.4382 320.173 67.0978 319.798 68.7695C319.424 70.4411 319.025 72.1371 318.602 73.8572C317.515 77.7215 316.332 82.0824 315.075 86.9158C313.904 91.1071 312.575 96.0374 311.101 101.694C309.628 107.352 307.924 113.639 305.992 120.543C306.33 121.355 306.753 121.973 307.248 122.409C307.755 122.833 308.214 123.221 308.637 123.548C309.144 123.863 309.688 124.129 310.28 124.347C311.79 124.735 313.239 124.662 314.628 124.129C316.018 123.596 316.911 122.312 317.334 120.277C318.929 112.003 320.426 104.65 321.803 98.2179C323.193 91.7855 324.388 86.2859 325.391 81.7311C326.563 76.5101 327.662 71.8948 328.664 67.8852C329.667 63.0033 330.742 58.5939 331.878 54.6449C333.013 50.6958 334.088 47.1586 335.091 44.0575C336.093 40.9443 336.975 38.3156 337.736 36.1473C338.497 33.9789 338.992 32.2103 339.246 30.8415C339.669 28.1765 339.596 26.3109 339.053 25.2086L339.113 25.1844ZM207.908 64.8931C207.606 66.4315 207.292 67.9821 206.966 69.5205C206.036 70.7682 204.84 72.3309 203.378 74.2206C201.905 76.1104 200.31 77.9759 198.583 79.8171C196.856 81.6584 195.092 83.2817 193.292 84.6626C191.48 86.0557 189.826 86.8673 188.316 87.1096C186.298 87.4246 184.704 86.8552 183.532 85.3894C182.348 83.9237 181.853 81.295 182.022 77.4913C182.191 75.1049 182.868 72.3309 184.04 69.1571C185.211 65.9833 186.685 62.9428 188.448 60.0234C190.212 57.104 192.108 54.5722 194.126 52.4039C196.143 50.2355 198.112 48.9999 200.045 48.6971C201.385 48.479 202.436 48.8061 203.197 49.6662C203.958 50.5262 204.526 51.5801 204.9 52.8157C205.275 54.0513 205.504 55.2748 205.589 56.4741C205.673 57.6854 205.71 58.5213 205.71 58.9937C205.71 59.9386 205.879 60.6048 206.217 60.9803C206.555 61.3559 207.183 61.2832 208.101 60.7381C208.271 60.6412 208.415 60.5321 208.548 60.4352C208.669 60.3383 208.826 60.2293 208.995 60.1324C208.573 61.7677 208.222 63.3667 207.92 64.9052L207.908 64.8931ZM268.401 45.9109C268.196 47.2434 267.87 48.9272 267.459 50.9502C267.036 52.9853 266.529 55.1052 265.949 57.322C265.357 59.5388 264.862 61.4649 264.439 63.1002C264.355 63.5121 263.992 64.1905 263.364 65.1596C262.736 66.1287 261.939 67.1947 260.972 68.3697C260.006 69.5447 258.907 70.7076 257.699 71.8342C256.479 72.9729 255.259 73.9299 254.039 74.7173C252.819 75.5047 251.623 76.0013 250.451 76.2315C249.28 76.4617 248.229 76.2194 247.299 75.4925C246.791 75.1049 246.453 74.1479 246.296 72.6458C246.127 71.1437 246.187 69.3388 246.489 67.2552C246.779 65.1596 247.311 62.8943 248.06 60.4595C248.821 58.0246 249.823 55.6745 251.079 53.4335C254.099 47.9945 256.769 44.1786 259.088 41.9618C261.395 39.745 263.014 38.9213 263.944 39.4785C264.197 39.7572 264.367 40.1569 264.451 40.6899C264.536 41.1502 264.512 41.8044 264.391 42.6402C264.306 43.1853 264.113 43.8516 263.799 44.6147C263.594 45.1235 264.065 45.6444 264.572 45.4748C265.514 45.1599 266.589 44.8086 266.843 44.6632C267.35 44.4209 267.809 44.2392 268.232 44.0939C268.57 43.9606 268.631 44.5663 268.425 45.8867L268.401 45.9109Z" fill="white"/>
<path d="M231.451 2.42274C231.753 2.42274 232.03 2.43485 232.308 2.47119C232.985 2.5681 233.552 2.97997 234.011 3.73102C234.47 4.48207 234.784 5.66921 234.954 7.29245C235.123 8.91568 235.123 11.1567 234.954 14.0155C234.784 17.5043 234.132 21.3807 232.997 25.6447C231.861 29.9087 230.376 34.3787 228.527 39.0303C226.679 43.682 224.553 48.3821 222.162 53.1307C219.77 57.8792 217.185 62.434 214.407 66.807C213.984 69.3146 213.585 71.6889 213.211 73.9541C212.836 76.2194 212.607 78.0243 212.522 79.3689C212.438 81.3435 212.812 82.7002 213.658 83.4391C214.346 84.0448 215.095 84.3356 215.893 84.3356C216.074 84.3356 216.243 84.3234 216.436 84.2871C217.608 84.1054 219.057 83.318 220.785 81.9492C222.5 80.5803 224.336 78.9086 226.269 76.9462C228.201 74.9838 230.134 72.876 232.067 70.5986C233.649 68.7331 235.111 66.9766 236.5 65.2807C237.671 61.1863 239.302 57.3099 241.452 53.6637C244.013 49.327 246.803 45.5233 249.835 42.2526C252.855 38.9819 255.839 36.4017 258.786 34.524C261.721 32.6464 264.161 31.6289 266.094 31.4714C268.365 31.5077 270.213 31.8348 271.638 32.4768C272.81 33.0825 273.595 34.1122 273.97 35.59C274.344 37.0679 273.656 39.1999 271.892 41.9982C273.064 41.5742 274.054 41.2593 274.851 41.0533C275.649 40.8474 276.253 40.7141 276.675 40.6415C276.977 40.593 277.231 40.5688 277.412 40.5688C277.533 40.5688 277.618 40.5688 277.69 40.593C277.775 40.7384 277.811 41.0654 277.811 41.5742C277.811 42.083 277.69 43.0279 277.436 44.4088C277.183 45.7898 276.808 47.6553 276.301 50.0175C275.794 52.3796 275.129 55.4323 274.284 59.1875C274.115 59.9265 273.97 60.5927 273.837 61.1984C273.716 61.8041 273.583 62.4219 273.462 63.0276C273.341 63.6332 273.184 64.348 273.027 65.1596C272.858 65.9712 272.653 66.9887 272.399 68.2122C272.315 68.9269 272.291 69.7022 272.339 70.5259C272.375 71.3497 272.532 72.0886 272.786 72.7549C273.04 73.4211 273.438 73.9299 273.982 74.2691C274.356 74.5113 274.839 74.6204 275.419 74.6204C275.697 74.6204 275.987 74.5961 276.301 74.5477C277.146 74.4144 278.234 73.7482 279.574 72.5489C280.915 71.3497 282.353 69.8718 283.863 68.0911C285.372 66.3225 286.955 64.3843 288.586 62.2765C289.914 60.5564 291.158 58.9089 292.354 57.2978C292.62 56.1591 292.886 55.0325 293.188 53.9423C293.695 52.0526 294.178 50.3445 294.637 48.8182C295.096 47.2919 295.459 46.1895 295.712 45.5233C296.715 42.3737 297.452 39.7087 297.923 37.504C298.382 35.3114 298.031 33.5913 296.848 32.3678C298.019 31.4714 299.131 30.8051 300.194 30.369C301.245 29.9329 302.187 29.5574 303.032 29.2667C303.95 29.0486 304.88 28.8912 305.798 28.8306C305.883 28.8306 305.968 28.8306 306.04 28.8306C308.166 28.8306 309.398 29.4121 309.773 30.5629C310.147 31.7621 310.002 33.6761 309.326 36.2926C308.987 37.6857 308.444 39.4785 307.683 41.6832C306.922 43.8879 306.125 46.1532 305.291 48.4911C304.446 50.8291 303.697 52.9732 303.02 54.9235C302.344 56.8738 301.969 58.2548 301.885 59.0543C301.124 62.7126 301.088 65.4503 301.764 67.2674C302.32 68.7816 303.443 69.5447 305.122 69.5447C305.448 69.5447 305.811 69.5205 306.185 69.4599C307.272 69.2903 308.492 68.6362 309.845 67.5217C311.186 66.4073 312.551 64.99 313.94 63.2698C315.329 61.5618 316.694 59.6357 318.035 57.4916C319.376 55.3596 320.62 53.2155 321.755 51.0592C322.891 48.9151 323.893 46.8316 324.775 44.7964C325.657 42.7735 326.309 40.9806 326.732 39.418C327.324 36.4138 327.698 34.0758 327.867 32.4041C328.036 30.7324 327.444 29.3273 326.104 28.2007C327.191 27.2437 328.266 26.4684 329.317 25.8627C330.368 25.2692 331.31 24.821 332.155 24.5302C333.073 24.1426 334.004 23.9246 334.934 23.8519C335.284 23.8155 335.622 23.8034 335.936 23.8034C337.627 23.8034 338.69 24.2637 339.161 25.1844C339.705 26.2746 339.765 28.1522 339.355 30.8172C339.101 32.1982 338.594 33.9668 337.845 36.123C337.084 38.2914 336.202 40.9201 335.199 44.0333C334.197 47.1465 333.122 50.6716 331.986 54.6207C330.851 58.5697 329.776 62.9912 328.773 67.8609C327.771 71.8706 326.671 76.4859 325.5 81.7069C324.497 86.2737 323.289 91.7612 321.912 98.1936C320.523 104.626 319.037 111.979 317.443 120.253C317.02 122.288 316.114 123.572 314.737 124.105C313.94 124.408 313.106 124.565 312.261 124.565C311.645 124.565 311.017 124.48 310.389 124.323C309.797 124.105 309.253 123.838 308.746 123.523C308.323 123.196 307.864 122.821 307.357 122.385C306.849 121.949 306.427 121.331 306.1 120.519C308.033 113.602 309.736 107.327 311.21 101.67C312.684 96.0132 314 91.0829 315.184 86.8915C316.44 82.0461 317.624 77.6972 318.711 73.833C319.134 72.1128 319.533 70.4169 319.907 68.7452C320.281 67.0735 320.68 65.414 321.103 63.7786C320.004 65.6078 318.832 67.3643 317.576 69.0602C316.319 70.7561 314.93 72.2703 313.42 73.6149C311.911 74.9596 310.292 76.0619 308.565 76.922C306.837 77.782 305.05 78.2424 303.213 78.3029C302.899 78.3029 302.597 78.315 302.295 78.315C298.237 78.315 295.326 77.249 293.574 75.117C291.871 73.0577 291.05 70.211 291.086 66.6011C289.141 69.1813 287.245 71.5677 285.385 73.7603C283.488 75.9892 281.918 77.6003 280.662 78.5815C279.816 79.1872 278.85 79.7323 277.762 80.2169C276.663 80.7014 275.552 81.077 274.429 81.3435C273.426 81.5736 272.484 81.6827 271.578 81.6827C271.457 81.6827 271.336 81.6827 271.203 81.6827C270.201 81.6463 269.307 81.4525 268.558 81.1012C267.797 80.6772 267.169 79.9867 266.662 79.0419C266.239 78.2424 265.84 77.1642 265.466 75.8075C265.091 74.4508 264.934 72.7064 265.019 70.5744C263.002 74.0389 260.779 76.8129 258.339 78.8844C255.899 80.9679 253.592 82.5669 251.406 83.6935C248.881 84.9533 246.368 85.874 243.844 86.4312C243.542 86.4797 243.228 86.5039 242.914 86.5039C242.008 86.5039 241.066 86.3101 240.063 85.9103C238.722 85.3773 237.587 84.384 236.657 82.9182C235.739 81.4525 235.147 79.4658 234.893 76.9462C234.809 76.1225 234.809 75.2139 234.857 74.257C233.625 75.7348 232.357 77.2127 231.052 78.6784C228.914 81.0648 226.764 83.209 224.626 85.1229C222.488 87.0369 220.422 88.6359 218.453 89.9321C216.484 91.2282 214.697 92.0035 213.102 92.2579C212.764 92.3064 212.426 92.3427 212.1 92.3427C211.29 92.3427 210.505 92.1731 209.756 91.846C208.705 91.3857 207.763 90.7074 206.918 89.8231C206.072 88.9388 205.42 87.897 204.961 86.7098C204.502 85.5227 204.309 84.2992 204.393 83.0273C204.478 82.47 204.598 81.5009 204.768 80.1321C201.24 84.384 197.689 87.8849 194.114 90.6104C190.538 93.336 187.12 94.9593 183.846 95.4802C183.423 95.5528 182.989 95.5771 182.554 95.5771C181.757 95.5771 180.935 95.468 180.065 95.25C178.725 94.9108 177.529 94.1961 176.478 93.1059C175.427 92.0156 174.569 90.5014 173.893 88.5632C173.386 87.1096 173.12 85.3773 173.084 83.3786C171.864 84.8322 170.632 86.2737 169.351 87.691C166.416 90.9496 163.529 93.7842 160.715 96.1949C157.9 98.6055 155.605 99.9864 153.841 100.35C153.105 100.507 152.38 100.58 151.667 100.58C150.954 100.58 150.302 100.507 149.626 100.362C148.237 100.071 146.98 99.5625 145.845 98.8356C144.709 98.1088 143.767 97.2003 143.006 96.0979C142.245 94.9956 141.835 93.7964 141.75 92.4638C141.496 90.5378 141.496 87.8485 141.75 84.384C142.004 80.9195 142.463 77.3581 143.139 73.6755C143.816 69.9929 144.673 66.4557 145.724 63.0639C146.775 59.6721 147.971 57.0919 149.312 55.299C149.734 54.766 150.532 54.2451 151.703 53.7364C152.875 53.2397 154.095 52.7915 155.363 52.3917C156.62 51.992 157.779 51.6891 158.83 51.4832C159.676 51.3136 160.231 51.2409 160.509 51.2409C160.582 51.2409 160.63 51.2409 160.666 51.2531C160.751 51.3136 160.545 52.1737 160.038 53.8333C159.531 55.4807 158.903 57.431 158.154 59.6721C157.393 61.9131 156.595 64.2268 155.762 66.6011C154.916 68.9754 154.288 70.9015 153.878 72.3793C153.455 73.8572 152.948 75.5289 152.368 77.3944C151.776 79.2599 151.256 81.0648 150.797 82.8334C150.338 84.602 150.024 86.2374 149.855 87.7637C149.686 89.2901 149.807 90.4045 150.23 91.1192C150.652 91.9914 151.111 92.5729 151.619 92.8394C151.993 93.0453 152.392 93.1422 152.815 93.1422C152.96 93.1422 153.105 93.1422 153.262 93.1059C154.941 92.8394 157.067 91.6401 159.627 89.496C162.188 87.364 164.797 84.8807 167.443 82.0703C169.81 79.5506 172.009 77.031 174.074 74.4871C174.557 72.2219 175.222 69.9808 176.067 67.7882C177.746 63.4394 179.872 59.5388 182.433 56.1106C184.994 52.6825 187.893 49.8236 191.13 47.5341C194.367 45.2568 197.617 43.8516 200.902 43.3307C201.361 43.258 201.808 43.2217 202.231 43.2217C203.149 43.2217 204.007 43.3913 204.804 43.7062C205.975 44.1908 206.99 44.8934 207.824 45.8261C208.657 46.7589 209.358 47.8006 209.901 48.9757C210.445 50.1507 210.843 51.2652 211.097 52.3191C211.689 49.9448 212.233 47.6189 212.74 45.3416C213.247 43.0642 213.742 40.8958 214.25 38.8486C215.083 35.8081 215.965 32.5253 216.895 29.0002C217.741 25.9597 218.707 22.4588 219.794 18.5097C220.881 14.5607 222.101 10.4057 223.454 6.02051C224.288 5.25734 225.097 4.66377 225.846 4.22768C226.607 3.79159 227.32 3.44029 227.984 3.17379C228.745 2.82249 229.458 2.59233 230.122 2.48331C230.629 2.39851 231.1 2.36217 231.535 2.36217M249.702 76.2557C249.968 76.2557 250.246 76.2315 250.536 76.1709C251.708 75.9529 252.903 75.4441 254.123 74.6567C255.343 73.8693 256.563 72.9123 257.783 71.7737C259.003 70.635 260.091 69.4842 261.057 68.3091C262.023 67.1341 262.82 66.0681 263.449 65.099C264.077 64.1299 264.439 63.4515 264.524 63.0397C264.946 61.4043 265.442 59.4782 266.034 57.2614C266.625 55.0446 267.121 52.9247 267.543 50.8896C267.966 48.8545 268.28 47.1707 268.486 45.8503C268.679 44.639 268.643 44.0333 268.377 44.0333C268.353 44.0333 268.329 44.0333 268.292 44.0454C267.87 44.1908 267.411 44.3846 266.903 44.6147C266.65 44.748 265.575 45.1114 264.632 45.4264C264.56 45.4506 264.499 45.4627 264.427 45.4627C264.004 45.4627 263.678 45.0145 263.847 44.5663C264.161 43.8031 264.355 43.1369 264.439 42.5918C264.56 41.7438 264.584 41.1018 264.499 40.6415C264.415 40.1084 264.246 39.6966 263.992 39.4301C263.811 39.3211 263.594 39.2605 263.352 39.2605C262.386 39.2605 260.984 40.1448 259.148 41.9134C256.841 44.1302 254.172 47.946 251.14 53.3851C249.884 55.6261 248.869 57.9762 248.12 60.411C247.359 62.8459 246.84 65.1111 246.55 67.2068C246.26 69.3025 246.187 71.0953 246.356 72.5974C246.526 74.0995 246.864 75.0565 247.359 75.4441C248.06 75.9892 248.833 76.2678 249.678 76.2678M187.325 87.1459C187.663 87.1459 188.014 87.1217 188.376 87.0611C189.886 86.8189 191.541 86.0072 193.353 84.6142C195.165 83.2211 196.928 81.61 198.643 79.7687C200.371 77.9274 201.965 76.0619 203.439 74.1722C204.912 72.2824 206.108 70.7198 207.026 69.472C207.365 67.9215 207.679 66.3831 207.969 64.8446C208.258 63.3062 208.621 61.7193 209.044 60.0718C208.874 60.1808 208.73 60.2778 208.597 60.3747C208.476 60.4716 208.319 60.5806 208.15 60.6775C207.606 60.9925 207.159 61.1499 206.821 61.1499C206.579 61.1499 206.398 61.0773 206.253 60.9198C205.915 60.5443 205.746 59.878 205.746 58.9331C205.746 58.4607 205.698 57.6249 205.625 56.4135C205.541 55.2142 205.311 53.9907 204.937 52.7551C204.562 51.5196 203.994 50.4657 203.233 49.6056C202.63 48.9151 201.832 48.5638 200.842 48.5638C200.6 48.5638 200.347 48.588 200.081 48.6244C198.148 48.9272 196.179 50.1749 194.162 52.3312C192.145 54.4995 190.248 57.0434 188.485 59.9507C186.721 62.8701 185.247 65.9106 184.076 69.0844C182.904 72.2582 182.228 75.0443 182.059 77.4186C181.889 81.2223 182.397 83.851 183.568 85.3168C184.535 86.516 185.779 87.1217 187.313 87.1217M231.451 2.49594e-07C230.883 2.49594e-07 230.279 0.048455 229.651 0.145365C228.781 0.278615 227.863 0.569344 226.933 1.00544C226.184 1.30828 225.375 1.69592 224.553 2.18047C223.647 2.70135 222.693 3.41606 221.739 4.28825L221.244 4.73646L221.05 5.36637C219.71 9.75153 218.465 13.9671 217.378 17.9162C216.279 21.8652 215.313 25.354 214.479 28.4066C213.561 31.8954 212.679 35.2024 211.834 38.2551V38.2914L211.822 38.3277C211.302 40.4234 210.795 42.6281 210.3 44.8691C210.288 44.9418 210.264 45.0266 210.252 45.0993C210.022 44.8086 209.78 44.5178 209.539 44.2392C208.452 43.0521 207.147 42.1314 205.637 41.5136C204.538 41.0654 203.366 40.8474 202.146 40.8474C201.591 40.8474 201.011 40.8958 200.431 40.9806C196.807 41.5621 193.171 43.1126 189.656 45.596C186.226 48.0187 183.122 51.0713 180.416 54.7055C177.734 58.3032 175.487 62.4219 173.736 66.9645C172.927 69.0723 172.25 71.2528 171.755 73.4575C169.81 75.8317 167.733 78.1818 165.595 80.4592C163.034 83.1847 160.473 85.6196 157.997 87.691C155.098 90.1138 153.491 90.6589 152.803 90.7679C152.778 90.7679 152.754 90.7679 152.742 90.7679C152.742 90.7679 152.742 90.7679 152.742 90.78C152.694 90.7316 152.537 90.5499 152.331 90.1017L152.283 90.0048L152.235 89.92C152.235 89.92 152.017 89.4839 152.174 88.0545C152.331 86.6614 152.621 85.1229 153.056 83.4755C153.503 81.7432 154.023 79.9625 154.602 78.1576C155.182 76.3042 155.702 74.5961 156.136 73.0698C156.535 71.6646 157.151 69.7628 157.985 67.4248C158.891 64.8567 159.676 62.5794 160.388 60.4716C161.149 58.2184 161.79 56.2318 162.297 54.5601C163.094 51.9435 163.541 50.502 162.116 49.3754L161.753 49.0847L161.306 48.9514C161.053 48.8788 160.775 48.8424 160.473 48.8424C160.147 48.8424 159.639 48.8788 158.335 49.1332C157.199 49.3512 155.943 49.6783 154.614 50.1022C153.286 50.5262 151.981 50.9987 150.737 51.5317C149.167 52.1979 148.068 52.949 147.379 53.8333C145.821 55.9047 144.528 58.6787 143.381 62.3734C142.306 65.8379 141.412 69.5084 140.723 73.2636C140.035 77.0068 139.564 80.7014 139.31 84.2386C139.044 87.8485 139.044 90.6347 139.31 92.7303C139.431 94.4626 139.999 96.0616 140.989 97.5031C141.919 98.8599 143.115 100.011 144.516 100.907C145.881 101.779 147.427 102.397 149.094 102.76C149.928 102.93 150.785 103.027 151.631 103.027C152.476 103.027 153.419 102.93 154.312 102.736C156.487 102.3 159.084 100.762 162.249 98.0483C165.136 95.5771 168.107 92.6455 171.103 89.3264C171.211 89.2052 171.32 89.0841 171.429 88.963C171.477 89.0962 171.513 89.2416 171.562 89.3748C172.347 91.6401 173.398 93.4693 174.69 94.8018C176.055 96.2191 177.65 97.164 179.437 97.6122C180.488 97.8787 181.515 98.0119 182.505 98.0119C183.073 98.0119 183.629 97.9635 184.172 97.8787C187.832 97.2972 191.649 95.5044 195.527 92.5365C197.786 90.8164 200.045 88.7813 202.279 86.4797C202.388 86.8552 202.509 87.2307 202.654 87.5941C203.221 89.0599 204.043 90.3682 205.106 91.4826C206.157 92.5971 207.377 93.4693 208.717 94.0628C209.768 94.5232 210.892 94.7654 212.027 94.7654C212.474 94.7654 212.945 94.7291 213.404 94.6564C215.361 94.3415 217.415 93.4693 219.71 91.9672C221.787 90.5983 223.961 88.9024 226.172 86.94C228.37 84.9776 230.605 82.7487 232.791 80.3017C232.84 80.2532 232.876 80.2048 232.924 80.1563C233.299 81.7311 233.854 83.0878 234.567 84.2144C235.763 86.1163 237.297 87.4488 239.121 88.1635C240.389 88.6723 241.646 88.9266 242.853 88.9266C243.3 88.9266 243.735 88.8903 244.17 88.8297H244.243L244.315 88.8055C247.021 88.2119 249.751 87.2186 252.432 85.874C254.788 84.6505 257.276 82.9304 259.849 80.7378C261.045 79.7202 262.192 78.5452 263.304 77.2127C263.666 78.3998 264.053 79.381 264.475 80.1684C265.2 81.5252 266.154 82.5427 267.314 83.1969L267.398 83.2453L267.483 83.2817C268.534 83.7662 269.73 84.0448 271.059 84.0812C271.203 84.0812 271.36 84.0812 271.518 84.0812C272.593 84.0812 273.728 83.9479 274.9 83.6814C276.18 83.3907 277.461 82.9546 278.693 82.4095C279.937 81.8522 281.048 81.2223 282.014 80.5197L282.087 80.4713C283.488 79.381 285.155 77.6851 287.172 75.3108C287.921 74.4265 288.682 73.5059 289.455 72.5489C289.963 74.0995 290.699 75.4683 291.666 76.6312C293.9 79.3447 297.464 80.7136 302.247 80.7136C302.573 80.7136 302.911 80.7136 303.25 80.6893C305.424 80.6166 307.562 80.0715 309.591 79.054C311.488 78.097 313.3 76.8735 314.967 75.3956C315.305 75.0928 315.631 74.79 315.957 74.475C314.967 78.0122 313.904 81.9734 312.792 86.2495C311.621 90.4045 310.28 95.3954 308.818 101.028C307.357 106.649 305.641 112.972 303.721 119.841L303.491 120.652L303.805 121.428C304.289 122.591 304.929 123.523 305.726 124.202C306.294 124.686 306.777 125.074 307.212 125.413L307.308 125.486L307.417 125.546C308.057 125.946 308.746 126.285 309.483 126.564L309.603 126.612L309.724 126.649C310.558 126.867 311.391 126.964 312.2 126.964C313.336 126.964 314.459 126.758 315.534 126.346C317.044 125.764 319.001 124.311 319.75 120.725C321.332 112.536 322.83 105.135 324.219 98.6903C325.56 92.4881 326.768 86.94 327.807 82.2157C328.966 77.0794 330.066 72.452 331.068 68.4424V68.3939L331.092 68.3455C332.083 63.5485 333.146 59.1512 334.257 55.2748C335.368 51.3863 336.443 47.8491 337.446 44.7601C338.424 41.7196 339.318 39.0788 340.079 36.8983C340.889 34.5967 341.408 32.7312 341.686 31.2291C342.205 27.9342 342.072 25.6689 341.287 24.082C340.659 22.8343 339.222 21.3564 335.912 21.3564C335.525 21.3564 335.115 21.3807 334.692 21.417C333.569 21.5018 332.409 21.7804 331.274 22.2407C330.307 22.5799 329.268 23.0766 328.109 23.7307C326.925 24.4091 325.705 25.2934 324.497 26.3473L322.371 28.2128L324.545 30.0299C325.282 30.6477 325.548 31.2533 325.451 32.1255C325.294 33.7003 324.932 35.9535 324.364 38.8365C323.978 40.2659 323.362 41.9376 322.552 43.8031C321.695 45.7777 320.704 47.8249 319.605 49.8963C318.506 51.9678 317.286 54.0755 315.981 56.1712C314.689 58.2305 313.372 60.0961 312.055 61.7193C310.775 63.3062 309.507 64.6145 308.299 65.632C306.982 66.7222 306.173 66.9887 305.811 67.0372C305.569 67.0735 305.339 67.0978 305.134 67.0978C304.385 67.0978 304.228 66.8797 304.047 66.4073C303.697 65.4624 303.455 63.5 304.276 59.5267L304.301 59.4056V59.2844C304.337 59.0058 304.494 58.1094 305.327 55.6988C305.992 53.7606 306.753 51.6043 307.586 49.3027C308.456 46.9042 309.265 44.6026 309.99 42.4585C310.775 40.1569 311.331 38.3277 311.693 36.8499C312.49 33.7366 312.623 31.4956 312.092 29.8239C311.596 28.2613 310.147 26.3957 306.064 26.3957H305.629C304.578 26.4805 303.515 26.6501 302.477 26.9045L302.368 26.9287L302.259 26.9651C301.365 27.28 300.363 27.6677 299.276 28.1159C298.044 28.6368 296.739 29.4121 295.41 30.4175L293.248 32.065L295.132 34.0274C295.374 34.2818 296.014 34.948 295.579 36.9831C295.132 39.0909 294.42 41.6832 293.453 44.6995C293.176 45.4385 292.801 46.5772 292.354 48.0914C291.895 49.6177 291.4 51.3742 290.881 53.2882C290.639 54.1725 290.397 55.1415 290.144 56.2318C288.948 57.8429 287.812 59.3329 286.701 60.7623C285.095 62.8216 283.536 64.7477 282.051 66.4921C280.613 68.1759 279.248 69.5932 277.992 70.7076C276.555 71.9917 275.963 72.1128 275.939 72.125C275.745 72.1613 275.576 72.1734 275.431 72.1734C275.335 72.1734 275.262 72.1734 275.238 72.1613C275.19 72.125 275.117 72.0401 275.057 71.8584C274.9 71.4345 274.803 70.9257 274.767 70.3685C274.731 69.7264 274.743 69.1207 274.803 68.5635L275.02 67.4975L275.407 65.632L275.661 64.3722L275.842 63.4879L276.108 62.2159L276.216 61.6708C276.337 61.0773 276.482 60.4231 276.651 59.7084C277.545 55.6867 278.197 52.7673 278.681 50.502C279.2 48.0793 279.574 46.2259 279.828 44.8328C280.118 43.258 280.251 42.2526 280.251 41.5621C280.251 40.5809 280.118 39.9267 279.804 39.3816L279.321 38.5337L278.379 38.2551C278.089 38.1703 277.775 38.1339 277.424 38.1339C277.11 38.1339 276.748 38.1703 276.313 38.2429C276.301 38.2429 276.289 38.2429 276.277 38.2429C276.567 37.0437 276.579 35.9656 276.325 34.9722C275.781 32.8402 274.537 31.2291 272.75 30.3085L272.629 30.26C270.889 29.4847 268.763 29.085 266.142 29.0486H265.925C263.569 29.2303 260.815 30.3569 257.506 32.4647C254.413 34.4514 251.236 37.1769 248.084 40.593C244.955 43.9727 242.032 47.9581 239.399 52.416C237.273 56.0016 235.582 59.9386 234.338 64.1178C232.936 65.8379 231.596 67.4369 230.255 69.0238C228.382 71.2285 226.462 73.3242 224.578 75.2382C222.717 77.1158 220.954 78.739 219.311 80.0473C217.427 81.5494 216.436 81.8401 216.086 81.8886C216.025 81.8886 215.977 81.9007 215.929 81.9007C215.844 81.9007 215.627 81.9007 215.277 81.5979C215.277 81.5979 214.89 81.1739 214.975 79.4658C215.047 78.2666 215.277 76.5343 215.639 74.3418L215.929 72.5853C216.195 71.0105 216.472 69.3751 216.75 67.6792C219.456 63.3789 222.017 58.8605 224.36 54.2209C226.776 49.4481 228.95 44.6269 230.81 39.9267C232.695 35.1903 234.229 30.5871 235.376 26.2625C236.548 21.8531 237.237 17.7708 237.406 14.1246C237.587 11.1325 237.575 8.80666 237.406 7.03806C237.2 5.02718 236.778 3.52509 236.113 2.44697C235.05 0.702595 233.661 0.181706 232.683 0.048455C232.296 2.49594e-07 231.91 -0.0242271 231.511 -0.0242271L231.451 2.49594e-07ZM248.953 73.7118C248.893 73.5422 248.772 73.1546 248.688 72.3914C248.543 71.0953 248.603 69.4842 248.869 67.6065C249.147 65.6562 249.642 63.5 250.355 61.1984C251.055 58.9331 252.01 56.7284 253.181 54.6449C256.08 49.436 258.629 45.7777 260.755 43.7304C261.202 43.3065 261.588 42.9673 261.902 42.7008C261.83 42.9552 261.721 43.2943 261.54 43.7304C261.154 44.6753 261.262 45.7534 261.83 46.6135C262.398 47.4615 263.34 47.9702 264.355 47.9702C264.681 47.9702 265.007 47.9218 265.321 47.8128L265.393 47.7885C265.478 47.7643 265.562 47.728 265.647 47.7037C265.49 48.5396 265.309 49.4723 265.103 50.4778C264.693 52.4644 264.197 54.5601 263.618 56.7163C263.026 58.9452 262.518 60.8713 262.096 62.5188V62.5672C262.047 62.652 261.89 63.0154 261.347 63.8513C260.779 64.7356 260.018 65.741 259.112 66.8434C258.218 67.9215 257.192 69.0117 256.056 70.0777C254.945 71.1074 253.833 71.9917 252.746 72.6943C251.792 73.3121 250.874 73.6997 250.004 73.8693C249.859 73.8936 249.739 73.9057 249.63 73.9057C249.388 73.9057 249.183 73.8451 248.966 73.7118H248.953ZM184.426 77.6367C184.583 75.5047 185.211 72.9366 186.298 70.0051C187.41 67.0009 188.835 64.0693 190.514 61.2832C192.181 58.5213 193.993 56.0985 195.889 54.0513C197.52 52.2948 199.042 51.3015 200.419 51.0835C200.552 51.0592 200.685 51.0471 200.806 51.0471C201.168 51.0471 201.277 51.144 201.385 51.2652C201.917 51.8708 202.315 52.6098 202.593 53.5304C202.919 54.5843 203.113 55.6382 203.185 56.6558C203.282 58.0852 203.306 58.7272 203.306 59.0058C203.306 60.5806 203.668 61.7556 204.429 62.6036C204.792 63.0154 205.239 63.3062 205.746 63.4758C205.673 63.8028 205.613 64.1299 205.553 64.4449C205.287 65.8016 205.021 67.1583 204.731 68.503C203.886 69.6416 202.823 71.0226 201.482 72.7306C200.045 74.5598 198.486 76.389 196.831 78.1576C195.213 79.8898 193.534 81.4404 191.831 82.7365C190.357 83.8752 189.04 84.5294 187.941 84.7111C187.7 84.7474 187.482 84.7716 187.277 84.7716C186.48 84.7716 185.924 84.5051 185.417 83.8752C184.97 83.318 184.257 81.7796 184.438 77.6367H184.426Z" fill="#3B2314"/>
</g>
<defs>
<clipPath id="clip0_50_104">
<rect width="342" height="127" fill="white"/>
</clipPath>
</defs>
</svg>
