<svg width="281" height="281" viewBox="0 0 281 281" fill="none" xmlns="http://www.w3.org/2000/svg">
<path d="M52.4939 55.3971C54.6251 47.5145 65.808 47.5145 67.9392 55.3971L109.638 209.621C111.013 214.706 107.183 219.709 101.915 219.709H18.5178C13.2501 219.709 9.42017 214.706 10.7951 209.621L52.4939 55.3971Z" fill="#67A7BB"/>
<rect x="53.4252" y="216.087" width="13.5827" height="43.4646" fill="#67A7BB"/>
<path d="M206.777 28.5625C208.909 20.6799 220.091 20.6799 222.223 28.5625L269.363 202.912C270.738 207.997 266.908 213 261.64 213H167.36C162.092 213 158.262 207.997 159.637 202.912L206.777 28.5625Z" fill="#5297AC"/>
<rect x="207" y="209" width="15" height="48" fill="#5297AC"/>
<path d="M134.494 89.5625C136.625 81.6799 147.808 81.6799 149.939 89.5625L184.71 218.162C186.085 223.247 182.255 228.25 176.987 228.25H107.446C102.178 228.25 98.3484 223.247 99.7233 218.162L134.494 89.5625Z" fill="#40879D"/>
<rect x="136.327" y="225.109" width="11.7782" height="37.6901" fill="#40879D"/>
</svg>
