<svg width="26" height="26" viewBox="0 0 26 26" fill="none" xmlns="http://www.w3.org/2000/svg">
<path fill-rule="evenodd" clip-rule="evenodd" d="M0.880188 12.6267C0.880188 5.70408 6.4921 0.0921631 13.4148 0.0921631C20.3374 0.0921631 25.9493 5.70408 25.9493 12.6267C25.9493 19.5494 20.3374 25.1613 13.4148 25.1613C6.4921 25.1613 0.880188 19.5494 0.880188 12.6267ZM7.30415 10.5115V18.894H9.96775V10.5115H7.30415ZM7.14747 7.84792C7.14747 8.70967 7.7742 9.3364 8.63595 9.3364C9.4977 9.3364 10.1244 8.70967 10.1244 7.84792C10.1244 6.98617 9.4977 6.35944 8.63595 6.35944C7.85254 6.35944 7.14747 6.98617 7.14747 7.84792ZM17.0184 18.894H19.5254V13.7235C19.5254 11.1382 17.9585 10.2765 16.47 10.2765C15.1383 10.2765 14.1982 11.1382 13.9631 11.6866V10.5115H11.4562V18.894H14.1198V14.4286C14.1198 13.2535 14.9032 12.6267 15.6866 12.6267C16.47 12.6267 17.0184 13.0184 17.0184 14.3502V18.894Z" fill="#F9E6CB"/>
</svg>
