<svg width="267" height="281" viewBox="0 0 267 281" fill="none" xmlns="http://www.w3.org/2000/svg">
<path d="M198.494 55.3971C200.625 47.5145 211.808 47.5145 213.939 55.3971L255.638 209.621C257.013 214.706 253.183 219.709 247.915 219.709H164.518C159.25 219.709 155.42 214.706 156.795 209.621L198.494 55.3971Z" fill="#67A7BB"/>
<rect x="199.425" y="216.087" width="13.5827" height="43.4646" fill="#67A7BB"/>
<path d="M44.4938 89.5625C46.6251 81.6799 57.808 81.6799 59.9392 89.5625L94.7098 218.162C96.0847 223.247 92.2548 228.25 86.9871 228.25H17.446C12.1783 228.25 8.34837 223.247 9.72329 218.162L44.4938 89.5625Z" fill="#40879D"/>
<rect x="46.3275" y="225.109" width="11.7782" height="37.6901" fill="#40879D"/>
<path d="M116.777 28.5625C118.909 20.6799 130.091 20.6799 132.223 28.5625L179.363 202.912C180.738 207.997 176.908 213 171.64 213H77.3596C72.0919 213 68.262 207.997 69.6369 202.912L116.777 28.5625Z" fill="#5297AC"/>
<rect x="117" y="209" width="15" height="48" fill="#5297AC"/>
</svg>
