<svg width="597" height="161" viewBox="0 0 597 161" fill="none" xmlns="http://www.w3.org/2000/svg">
<g clip-path="url(#clip0_50_18)">
<path d="M64.4832 131.116C64.4832 137.1 61.8171 142.115 56.5092 146.161C51.1891 150.207 43.5665 153.017 33.6292 154.592C24.3948 156.058 17.4023 155.864 12.6276 154.011C7.85287 152.157 5.4655 148.753 5.4655 143.787C5.4655 140.734 6.65312 138.045 9.02838 135.731C11.4036 133.406 14.4454 131.952 18.1658 131.37C22.4558 130.692 25.8733 131.031 28.4061 132.4C30.9389 133.769 32.1992 135.949 32.1992 138.929C32.1992 141.207 31.363 143.133 29.7028 144.707C28.0304 146.282 25.6915 147.372 22.6861 147.978C22.2983 148.402 22.1044 148.814 22.1044 149.238C22.1044 149.662 22.3104 149.953 22.7345 150.122C23.1466 150.292 23.6798 150.328 24.3221 150.231C27.5214 149.722 30.1996 148.341 32.3446 146.088C34.4896 143.835 35.5682 141.267 35.5682 138.396C35.5682 136.058 35.0592 134.217 34.0291 132.848C32.999 131.479 31.3509 130.389 29.0726 129.553C26.7943 128.718 23.704 128.039 19.7897 127.518C15.3664 126.961 12.0338 125.604 9.79185 123.448C7.5499 121.292 6.42287 118.385 6.42287 114.739C6.42287 111.093 7.62262 107.773 10.0221 104.612C12.4216 101.45 15.8875 98.7005 20.4078 96.3747C24.928 94.0489 30.1996 92.4015 36.2226 91.4445C44.6814 90.0999 51.2981 90.4028 56.0729 92.3409C60.8476 94.2791 63.235 97.6466 63.235 102.431C63.235 105.484 61.9989 108.185 59.5388 110.511C57.0666 112.849 53.8794 114.327 49.9772 114.945C45.9417 115.587 42.6818 115.199 40.2217 113.794C37.7495 112.389 36.5255 110.22 36.5255 107.289C36.5255 105.012 37.3617 103.086 39.022 101.511C40.6822 99.9361 43.0211 98.8458 46.0387 98.2402C46.4265 97.8162 46.6204 97.4043 46.6204 96.9804C46.6204 96.5564 46.4143 96.2657 45.9902 96.0961C45.5782 95.9265 45.0449 95.8901 44.4026 95.9871C42.3546 96.3141 40.4762 97.0409 38.7796 98.1796C37.083 99.3183 35.7136 100.736 34.6956 102.419C33.6655 104.103 33.1566 105.908 33.1566 107.822C33.1566 111.117 34.3442 113.576 36.7194 115.199C39.0947 116.834 43.1544 117.937 48.935 118.518C54.2551 119.051 58.1815 120.347 60.7143 122.394C63.2471 124.454 64.5075 127.361 64.5075 131.128L64.4832 131.116Z" fill="white"/>
<path d="M70.9303 97.6829C70.9303 96.1809 70.797 95.1149 70.5425 94.4608C70.288 93.8187 69.8396 93.2615 69.1974 92.7891C68.5551 92.3167 67.4644 91.7352 65.9253 91.0205C65.5981 90.8873 65.4406 90.645 65.4406 90.2937V89.2156C65.4406 88.6221 65.8284 88.2587 66.5919 88.1375L94.4768 83.7282C95.6281 83.5465 96.4521 83.6556 96.9248 84.0553C97.4095 84.455 97.6398 85.2303 97.6398 86.369V109.978L101.287 109.397V85.7875C101.287 84.6489 101.53 83.8009 102.015 83.2558C102.499 82.6986 103.311 82.3352 104.463 82.1535L124.846 78.9313C125.997 78.7496 126.821 78.8586 127.294 79.2584C127.779 79.6581 128.009 80.4334 128.009 81.572V134.992C128.009 136.131 127.767 136.979 127.294 137.524C126.809 138.081 125.997 138.445 124.846 138.626L104.463 141.849C103.311 142.03 102.487 141.921 102.015 141.522C101.53 141.122 101.287 140.347 101.287 139.208V113.806L97.6398 114.387V139.789C97.6398 140.928 97.3974 141.776 96.9248 142.333C96.4521 142.89 95.6281 143.254 94.4768 143.435L74.0933 146.658C72.942 146.839 72.1179 146.73 71.6453 146.331C71.1606 145.931 70.9182 145.156 70.9182 144.017V97.6951L70.9303 97.6829Z" fill="white"/>
<path d="M167.843 133.345C157.336 135.005 149.205 133.551 143.472 128.984C137.74 124.417 134.868 117.137 134.868 107.144C134.868 97.1499 137.74 88.9734 143.472 82.6138C149.205 76.2663 157.336 72.2568 167.843 70.5851C178.35 68.9256 186.481 70.355 192.214 74.8975C197.946 79.4401 200.818 86.7081 200.818 96.7018C200.818 106.695 197.946 114.884 192.214 121.268C186.481 127.652 178.35 131.673 167.843 133.345ZM167.843 128.766C169.055 128.572 169.673 127.664 169.673 126.053V77.296C169.673 75.6849 169.067 74.9702 167.843 75.164C166.631 75.3578 166.013 76.2663 166.013 77.8774V126.622C166.013 128.233 166.619 128.948 167.843 128.754V128.766Z" fill="white"/>
<path d="M268.888 105.133C269.276 105.436 269.749 105.532 270.33 105.448C271.421 105.278 271.966 104.624 271.966 103.485C271.966 103.182 271.93 102.88 271.869 102.553C271.809 102.238 271.736 101.959 271.675 101.729L264.368 67.157C263.726 64.2619 262.829 62.2511 261.678 61.1245C261.169 60.5431 260.829 60.1433 260.672 59.8889C260.514 59.6467 260.429 59.3438 260.429 58.9804V58.3505C260.429 57.757 260.841 57.3815 261.678 57.2603L289.938 52.7905C291.223 52.5845 292.192 52.7178 292.871 53.1781C293.55 53.6384 293.877 54.3773 293.877 55.3949C293.877 57.6116 291.974 64.3346 288.157 75.5517C284.339 86.7808 280.061 98.2159 275.323 109.857C274.62 111.71 273.602 113.128 272.293 114.109C270.985 115.102 269.264 115.756 267.155 116.095L255.618 117.925C253.497 118.264 251.789 118.143 250.468 117.573C249.159 117.004 248.141 115.902 247.438 114.278C246.032 117.791 243.172 119.887 238.882 120.565L226.582 122.516C222.292 123.194 219.565 121.983 218.414 118.869L201.69 74.2071C201.363 73.3591 200.878 72.6808 200.2 72.1478C199.521 71.6269 198.358 71.0212 196.685 70.3186C196.37 70.1854 196.201 69.9431 196.201 69.5918V68.5137C196.201 67.9202 196.588 67.5568 197.352 67.4356L215.615 64.5405C220.038 63.8379 223.431 64.2013 225.806 65.6186C228.182 67.0359 229.939 69.7493 231.09 73.7589L240.991 109.445C241.379 109.687 241.827 109.76 242.336 109.675C242.845 109.59 243.269 109.385 243.584 109.033C243.899 108.682 244.069 108.27 244.069 107.786C244.069 107.483 244.033 107.18 243.972 106.853C243.912 106.538 243.815 106.174 243.681 105.775L234.253 71.8934C233.744 70.1248 233.271 68.8045 232.859 67.9444C232.447 67.0843 231.975 66.3939 231.466 65.873C230.957 65.2915 230.617 64.8918 230.46 64.6374C230.302 64.3952 230.218 64.0923 230.218 63.7289V63.099C230.218 62.5055 230.63 62.142 231.466 62.0088L245.596 59.7678C250.141 59.0531 253.655 59.4165 256.127 60.8822C258.599 62.348 260.248 65.0493 261.084 68.9862L268.876 105.096L268.888 105.133Z" fill="white"/>
<path d="M332.147 46.1038C341.636 44.6018 349.016 46.0554 354.312 50.4526C359.596 54.8497 362.25 61.7181 362.25 71.0576C362.25 76.9205 361.038 82.311 358.602 87.2169C356.166 92.1229 352.652 96.2051 348.071 99.4757C343.49 102.746 338.146 104.866 332.062 105.823L305.717 109.99C304.565 110.172 303.753 110.063 303.269 109.663C302.784 109.263 302.554 108.488 302.554 107.349V60.9307C302.554 59.0168 302.299 57.6964 301.79 56.9696C301.281 56.2428 299.863 55.3706 297.561 54.3652C297.246 54.232 297.076 53.9897 297.076 53.6384V52.5603C297.076 51.9667 297.464 51.6033 298.227 51.4822L332.159 46.1038H332.147ZM328.306 101.39C328.694 101.814 329.299 101.947 330.136 101.814C330.717 101.717 331.154 101.438 331.481 100.978C331.796 100.505 331.966 99.9482 331.966 99.2819V52.6814C331.966 52.0273 331.808 51.5064 331.481 51.143C331.166 50.7796 330.717 50.6343 330.136 50.7312C329.299 50.8644 328.694 51.2036 328.306 51.7366V101.39Z" fill="white"/>
<path d="M399.26 96.7018C388.753 98.3613 380.622 96.9077 374.89 92.3409C369.158 87.7741 366.285 80.4939 366.285 70.5003C366.285 60.5067 369.158 52.3301 374.89 45.9706C380.622 39.6231 388.753 35.6136 399.26 33.9419C409.767 32.2824 417.899 33.7118 423.631 38.2543C429.363 42.7969 432.235 50.0649 432.235 60.0585C432.235 70.0521 429.363 78.2408 423.631 84.6246C417.899 91.0084 409.767 95.0301 399.26 96.7018ZM399.26 92.1229C400.472 91.9291 401.09 91.0205 401.09 89.4094V40.6649C401.09 39.0538 400.484 38.3391 399.26 38.5329C398.036 38.7267 397.43 39.6352 397.43 41.2463V89.9909C397.43 91.602 398.036 92.3167 399.26 92.1229Z" fill="white"/>
<path d="M500.305 68.5016C500.693 68.8045 501.166 68.9014 501.747 68.8166C502.838 68.647 503.384 67.9928 503.384 66.8542C503.384 66.5513 503.347 66.2485 503.287 65.9214C503.226 65.6065 503.153 65.3279 503.093 65.0977L495.785 30.5259C495.143 27.6308 494.246 25.62 493.095 24.4934C492.586 23.912 492.246 23.5122 492.089 23.2578C491.931 23.0156 491.847 22.7127 491.847 22.3493V21.7194C491.847 21.1259 492.259 20.7625 493.095 20.6292L521.355 16.1594C522.64 15.9534 523.609 16.0867 524.288 16.547C524.955 17.0073 525.294 17.7462 525.294 18.7637C525.294 20.9805 523.391 27.7035 519.574 38.9205C515.757 50.1497 511.479 61.5848 506.74 73.2259C506.037 75.0792 505.02 76.4965 503.711 77.4777C502.402 78.471 500.681 79.1251 498.572 79.4643L487.036 81.2934C484.915 81.6326 483.206 81.5115 481.885 80.9421C480.576 80.3728 479.558 79.2705 478.855 77.6473C477.45 81.1602 474.59 83.2558 470.3 83.9342L457.987 85.8844C453.697 86.5628 450.97 85.3514 449.819 82.2383L433.095 37.576C432.78 36.728 432.284 36.0497 431.605 35.5167C430.926 34.9958 429.763 34.3901 428.09 33.6875C427.775 33.5543 427.606 33.312 427.606 32.9607V31.8826C427.606 31.2891 427.994 30.9257 428.757 30.8045L447.02 27.9094C451.443 27.2068 454.836 27.5702 457.212 28.9875C459.587 30.4048 461.344 33.1182 462.495 37.1278L472.396 72.814C472.784 73.0563 473.232 73.129 473.741 73.0442C474.25 72.9594 474.674 72.7534 474.99 72.4022C475.305 72.0509 475.474 71.639 475.474 71.1545C475.474 70.8516 475.438 70.5488 475.377 70.2217C475.317 69.9068 475.22 69.5434 475.087 69.1436L465.658 35.2623C465.149 33.4937 464.677 32.1733 464.265 31.3133C463.853 30.4532 463.38 29.7628 462.871 29.2419C462.362 28.6604 462.023 28.2607 461.865 28.0063C461.708 27.764 461.623 27.4612 461.623 27.0978V26.4679C461.623 25.8743 462.035 25.5109 462.871 25.3777L477.001 23.1367C481.558 22.422 485.06 22.7854 487.532 24.2511C490.005 25.7169 491.653 28.4182 492.489 32.355L500.281 68.4653L500.305 68.5016Z" fill="white"/>
<path d="M583.948 47.7997C584.263 47.8724 584.59 47.8724 584.906 47.8239C585.293 47.7634 585.645 47.5696 585.96 47.2546C586.275 46.9397 586.445 46.5641 586.445 46.1402C586.445 45.3649 586.093 44.517 585.39 43.6206L563.274 13.0099C562.947 12.5859 562.741 12.2709 562.644 12.0771C562.547 11.8833 562.498 11.641 562.498 11.3382V10.7931C562.498 10.3207 562.595 9.98149 562.789 9.8119C562.983 9.6302 563.298 9.50906 563.746 9.43638L588.359 5.53585C589.511 5.35415 590.335 5.46317 590.807 5.86291C591.292 6.26266 591.522 7.03792 591.522 8.17658V61.5969C591.522 62.7356 591.28 63.5835 590.807 64.1287C590.322 64.6859 589.511 65.0493 588.359 65.231L576.059 67.1812C573.114 67.6537 570.799 67.5325 569.139 66.8421C567.467 66.1516 565.807 64.6495 564.146 62.3359L541.557 31.0831C541.23 31.0105 540.951 30.9983 540.697 31.0347C540.309 31.0953 539.945 31.2891 539.594 31.6161C539.243 31.9432 539.061 32.3187 539.061 32.7306C539.061 33.3847 539.412 34.2326 540.115 35.2502L562.232 65.8609C562.547 66.2849 562.765 66.5998 562.862 66.7936C562.959 66.9874 563.007 67.2297 563.007 67.5325V68.0655C563.007 68.4895 562.922 68.7923 562.765 68.9983C562.607 69.2042 562.268 69.3496 561.759 69.4222L537.146 73.3228C535.995 73.5045 535.171 73.3955 534.698 72.9957C534.213 72.596 533.983 71.8207 533.983 70.682V24.3844C533.983 22.8823 533.85 21.8163 533.595 21.1622C533.341 20.5202 532.892 19.963 532.25 19.4906C531.608 19.0181 530.517 18.4367 528.978 17.722C528.651 17.5887 528.493 17.3465 528.493 16.9952V15.9171C528.493 15.3235 528.881 14.9601 529.645 14.839L549.446 11.7016C552.391 11.2413 554.706 11.3503 556.366 12.0408C558.026 12.7312 559.699 14.2333 561.371 16.547L583.96 47.7997H583.948Z" fill="white"/>
<path d="M64.4832 131.116C64.4832 137.1 61.8171 142.115 56.5092 146.161C51.1891 150.207 43.5665 153.017 33.6292 154.592C24.3948 156.058 17.4023 155.864 12.6276 154.011C7.85287 152.157 5.4655 148.753 5.4655 143.787C5.4655 140.734 6.65312 138.045 9.02838 135.731C11.4036 133.406 14.4454 131.952 18.1658 131.37C22.4558 130.692 25.8733 131.031 28.4061 132.4C30.9389 133.769 32.1992 135.949 32.1992 138.929C32.1992 141.207 31.363 143.133 29.7028 144.707C28.0304 146.282 25.6915 147.372 22.6861 147.978C22.2983 148.402 22.1044 148.814 22.1044 149.238C22.1044 149.662 22.3104 149.953 22.7345 150.122C23.1466 150.292 23.6798 150.328 24.3221 150.231C27.5214 149.722 30.1996 148.341 32.3446 146.088C34.4896 143.835 35.5682 141.267 35.5682 138.396C35.5682 136.058 35.0592 134.217 34.0291 132.848C32.999 131.479 31.3509 130.389 29.0726 129.553C26.7943 128.718 23.704 128.039 19.7897 127.518C15.3664 126.961 12.0338 125.604 9.79185 123.448C7.5499 121.292 6.42287 118.385 6.42287 114.739C6.42287 111.093 7.62262 107.773 10.0221 104.612C12.4216 101.45 15.8875 98.7005 20.4078 96.3747C24.928 94.0489 30.1996 92.4015 36.2226 91.4445C44.6814 90.0999 51.2981 90.4028 56.0729 92.3409C60.8476 94.2791 63.235 97.6466 63.235 102.431C63.235 105.484 61.9989 108.185 59.5388 110.511C57.0666 112.849 53.8794 114.327 49.9772 114.945C45.9417 115.587 42.6818 115.199 40.2217 113.794C37.7495 112.389 36.5255 110.22 36.5255 107.289C36.5255 105.012 37.3617 103.086 39.022 101.511C40.6822 99.9361 43.0211 98.8458 46.0387 98.2402C46.4265 97.8162 46.6204 97.4043 46.6204 96.9804C46.6204 96.5564 46.4143 96.2657 45.9902 96.0961C45.5782 95.9265 45.0449 95.8901 44.4026 95.9871C42.3546 96.3141 40.4762 97.0409 38.7796 98.1796C37.083 99.3183 35.7136 100.736 34.6956 102.419C33.6655 104.103 33.1566 105.908 33.1566 107.822C33.1566 111.117 34.3442 113.576 36.7194 115.199C39.0947 116.834 43.1544 117.937 48.935 118.518C54.2551 119.051 58.1815 120.347 60.7143 122.394C63.2471 124.454 64.5075 127.361 64.5075 131.128L64.4832 131.116Z" stroke="white" stroke-width="9" stroke-miterlimit="10"/>
<path d="M70.9303 97.6829C70.9303 96.1809 70.797 95.1149 70.5425 94.4608C70.288 93.8187 69.8396 93.2615 69.1974 92.7891C68.5551 92.3167 67.4644 91.7352 65.9253 91.0205C65.5981 90.8873 65.4406 90.645 65.4406 90.2937V89.2156C65.4406 88.6221 65.8284 88.2587 66.5919 88.1375L94.4768 83.7282C95.6281 83.5465 96.4521 83.6556 96.9248 84.0553C97.4095 84.455 97.6398 85.2303 97.6398 86.369V109.978L101.287 109.397V85.7875C101.287 84.6489 101.53 83.8009 102.015 83.2558C102.499 82.6986 103.311 82.3352 104.463 82.1535L124.846 78.9313C125.997 78.7496 126.821 78.8586 127.294 79.2584C127.779 79.6581 128.009 80.4334 128.009 81.572V134.992C128.009 136.131 127.767 136.979 127.294 137.524C126.809 138.081 125.997 138.445 124.846 138.626L104.463 141.849C103.311 142.03 102.487 141.921 102.015 141.522C101.53 141.122 101.287 140.347 101.287 139.208V113.806L97.6398 114.387V139.789C97.6398 140.928 97.3974 141.776 96.9248 142.333C96.4521 142.89 95.6281 143.254 94.4768 143.435L74.0933 146.658C72.942 146.839 72.1179 146.73 71.6453 146.331C71.1606 145.931 70.9182 145.156 70.9182 144.017V97.6951L70.9303 97.6829Z" stroke="white" stroke-width="9" stroke-miterlimit="10"/>
<path d="M167.843 133.345C157.336 135.005 149.205 133.551 143.472 128.984C137.74 124.417 134.868 117.137 134.868 107.144C134.868 97.1499 137.74 88.9734 143.472 82.6138C149.205 76.2663 157.336 72.2568 167.843 70.5851C178.35 68.9256 186.481 70.355 192.214 74.8975C197.946 79.4401 200.818 86.7081 200.818 96.7018C200.818 106.695 197.946 114.884 192.214 121.268C186.481 127.652 178.35 131.673 167.843 133.345ZM167.843 128.766C169.055 128.572 169.673 127.664 169.673 126.053V77.296C169.673 75.6849 169.067 74.9702 167.843 75.164C166.631 75.3578 166.013 76.2663 166.013 77.8774V126.622C166.013 128.233 166.619 128.948 167.843 128.754V128.766Z" stroke="white" stroke-width="9" stroke-miterlimit="10"/>
<path d="M268.888 105.133C269.276 105.436 269.749 105.532 270.33 105.448C271.421 105.278 271.966 104.624 271.966 103.485C271.966 103.182 271.93 102.88 271.869 102.553C271.809 102.238 271.736 101.959 271.675 101.729L264.368 67.157C263.726 64.2619 262.829 62.2511 261.678 61.1245C261.169 60.5431 260.829 60.1433 260.672 59.8889C260.514 59.6467 260.429 59.3438 260.429 58.9804V58.3505C260.429 57.757 260.841 57.3815 261.678 57.2603L289.938 52.7905C291.223 52.5845 292.192 52.7178 292.871 53.1781C293.55 53.6384 293.877 54.3773 293.877 55.3949C293.877 57.6116 291.974 64.3346 288.157 75.5517C284.339 86.7808 280.061 98.2159 275.323 109.857C274.62 111.71 273.602 113.128 272.293 114.109C270.985 115.102 269.264 115.756 267.155 116.095L255.618 117.925C253.497 118.264 251.789 118.143 250.468 117.573C249.159 117.004 248.141 115.902 247.438 114.278C246.032 117.791 243.172 119.887 238.882 120.565L226.582 122.516C222.292 123.194 219.565 121.983 218.414 118.869L201.69 74.2071C201.363 73.3591 200.878 72.6808 200.2 72.1478C199.521 71.6269 198.358 71.0212 196.685 70.3186C196.37 70.1854 196.201 69.9431 196.201 69.5918V68.5137C196.201 67.9202 196.588 67.5568 197.352 67.4356L215.615 64.5405C220.038 63.8379 223.431 64.2013 225.806 65.6186C228.182 67.0359 229.939 69.7493 231.09 73.7589L240.991 109.445C241.379 109.687 241.827 109.76 242.336 109.675C242.845 109.59 243.269 109.385 243.584 109.033C243.899 108.682 244.069 108.27 244.069 107.786C244.069 107.483 244.033 107.18 243.972 106.853C243.912 106.538 243.815 106.174 243.681 105.775L234.253 71.8934C233.744 70.1248 233.271 68.8045 232.859 67.9444C232.447 67.0843 231.975 66.3939 231.466 65.873C230.957 65.2915 230.617 64.8918 230.46 64.6374C230.302 64.3952 230.218 64.0923 230.218 63.7289V63.099C230.218 62.5055 230.63 62.142 231.466 62.0088L245.596 59.7678C250.141 59.0531 253.655 59.4165 256.127 60.8822C258.599 62.348 260.248 65.0493 261.084 68.9862L268.876 105.096L268.888 105.133Z" stroke="white" stroke-width="9" stroke-miterlimit="10"/>
<path d="M332.147 46.1038C341.636 44.6018 349.016 46.0554 354.312 50.4526C359.596 54.8497 362.25 61.7181 362.25 71.0576C362.25 76.9205 361.038 82.311 358.602 87.2169C356.166 92.1229 352.652 96.2051 348.071 99.4757C343.49 102.746 338.146 104.866 332.062 105.823L305.717 109.99C304.565 110.172 303.753 110.063 303.269 109.663C302.784 109.263 302.554 108.488 302.554 107.349V60.9307C302.554 59.0168 302.299 57.6964 301.79 56.9696C301.281 56.2428 299.863 55.3706 297.561 54.3652C297.246 54.232 297.076 53.9897 297.076 53.6384V52.5603C297.076 51.9667 297.464 51.6033 298.227 51.4822L332.159 46.1038H332.147ZM328.306 101.39C328.694 101.814 329.299 101.947 330.136 101.814C330.717 101.717 331.154 101.438 331.481 100.978C331.796 100.505 331.966 99.9482 331.966 99.2819V52.6814C331.966 52.0273 331.808 51.5064 331.481 51.143C331.166 50.7796 330.717 50.6343 330.136 50.7312C329.299 50.8644 328.694 51.2036 328.306 51.7366V101.39Z" stroke="white" stroke-width="9" stroke-miterlimit="10"/>
<path d="M399.26 96.7018C388.753 98.3613 380.622 96.9077 374.89 92.3409C369.158 87.7741 366.285 80.4939 366.285 70.5003C366.285 60.5067 369.158 52.3301 374.89 45.9706C380.622 39.6231 388.753 35.6136 399.26 33.9419C409.767 32.2824 417.899 33.7118 423.631 38.2543C429.363 42.7969 432.235 50.0649 432.235 60.0585C432.235 70.0521 429.363 78.2408 423.631 84.6246C417.899 91.0084 409.767 95.0301 399.26 96.7018ZM399.26 92.1229C400.472 91.9291 401.09 91.0205 401.09 89.4094V40.6649C401.09 39.0538 400.484 38.3391 399.26 38.5329C398.036 38.7267 397.43 39.6352 397.43 41.2463V89.9909C397.43 91.602 398.036 92.3167 399.26 92.1229Z" stroke="white" stroke-width="9" stroke-miterlimit="10"/>
<path d="M500.305 68.5016C500.693 68.8045 501.166 68.9014 501.747 68.8166C502.838 68.647 503.384 67.9928 503.384 66.8542C503.384 66.5513 503.347 66.2485 503.287 65.9214C503.226 65.6065 503.153 65.3279 503.093 65.0977L495.785 30.5259C495.143 27.6308 494.246 25.62 493.095 24.4934C492.586 23.912 492.246 23.5122 492.089 23.2578C491.931 23.0156 491.847 22.7127 491.847 22.3493V21.7194C491.847 21.1259 492.259 20.7625 493.095 20.6292L521.355 16.1594C522.64 15.9534 523.609 16.0867 524.288 16.547C524.955 17.0073 525.294 17.7462 525.294 18.7637C525.294 20.9805 523.391 27.7035 519.574 38.9205C515.757 50.1497 511.479 61.5848 506.74 73.2259C506.037 75.0792 505.02 76.4965 503.711 77.4777C502.402 78.471 500.681 79.1251 498.572 79.4643L487.036 81.2934C484.915 81.6326 483.206 81.5115 481.885 80.9421C480.576 80.3728 479.558 79.2705 478.855 77.6473C477.45 81.1602 474.59 83.2558 470.3 83.9342L457.987 85.8844C453.697 86.5628 450.97 85.3514 449.819 82.2383L433.095 37.576C432.78 36.728 432.284 36.0497 431.605 35.5167C430.926 34.9958 429.763 34.3901 428.09 33.6875C427.775 33.5543 427.606 33.312 427.606 32.9607V31.8826C427.606 31.2891 427.994 30.9257 428.757 30.8045L447.02 27.9094C451.443 27.2068 454.836 27.5702 457.212 28.9875C459.587 30.4048 461.344 33.1182 462.495 37.1278L472.396 72.814C472.784 73.0563 473.232 73.129 473.741 73.0442C474.25 72.9594 474.674 72.7534 474.99 72.4022C475.305 72.0509 475.474 71.639 475.474 71.1545C475.474 70.8516 475.438 70.5488 475.377 70.2217C475.317 69.9068 475.22 69.5434 475.087 69.1436L465.658 35.2623C465.149 33.4937 464.677 32.1733 464.265 31.3133C463.853 30.4532 463.38 29.7628 462.871 29.2419C462.362 28.6604 462.023 28.2607 461.865 28.0063C461.708 27.764 461.623 27.4612 461.623 27.0978V26.4679C461.623 25.8743 462.035 25.5109 462.871 25.3777L477.001 23.1367C481.558 22.422 485.06 22.7854 487.532 24.2511C490.005 25.7169 491.653 28.4182 492.489 32.355L500.281 68.4653L500.305 68.5016Z" stroke="white" stroke-width="9" stroke-miterlimit="10"/>
<path d="M583.948 47.7997C584.263 47.8724 584.59 47.8724 584.906 47.8239C585.293 47.7634 585.645 47.5696 585.96 47.2546C586.275 46.9397 586.445 46.5641 586.445 46.1402C586.445 45.3649 586.093 44.517 585.39 43.6206L563.274 13.0099C562.947 12.5859 562.741 12.2709 562.644 12.0771C562.547 11.8833 562.498 11.641 562.498 11.3382V10.7931C562.498 10.3207 562.595 9.98149 562.789 9.8119C562.983 9.6302 563.298 9.50906 563.746 9.43638L588.359 5.53585C589.511 5.35415 590.335 5.46317 590.807 5.86291C591.292 6.26266 591.522 7.03792 591.522 8.17658V61.5969C591.522 62.7356 591.28 63.5835 590.807 64.1287C590.322 64.6859 589.511 65.0493 588.359 65.231L576.059 67.1812C573.114 67.6537 570.799 67.5325 569.139 66.8421C567.467 66.1516 565.807 64.6495 564.146 62.3359L541.557 31.0831C541.23 31.0105 540.951 30.9983 540.697 31.0347C540.309 31.0953 539.945 31.2891 539.594 31.6161C539.243 31.9432 539.061 32.3187 539.061 32.7306C539.061 33.3847 539.412 34.2326 540.115 35.2502L562.232 65.8609C562.547 66.2849 562.765 66.5998 562.862 66.7936C562.959 66.9874 563.007 67.2297 563.007 67.5325V68.0655C563.007 68.4895 562.922 68.7923 562.765 68.9983C562.607 69.2042 562.268 69.3496 561.759 69.4222L537.146 73.3228C535.995 73.5045 535.171 73.3955 534.698 72.9957C534.213 72.596 533.983 71.8207 533.983 70.682V24.3844C533.983 22.8823 533.85 21.8163 533.595 21.1622C533.341 20.5202 532.892 19.963 532.25 19.4906C531.608 19.0181 530.517 18.4367 528.978 17.722C528.651 17.5887 528.493 17.3465 528.493 16.9952V15.9171C528.493 15.3235 528.881 14.9601 529.645 14.839L549.446 11.7016C552.391 11.2413 554.706 11.3503 556.366 12.0408C558.026 12.7312 559.699 14.2333 561.371 16.547L583.96 47.7997H583.948Z" stroke="white" stroke-width="9" stroke-miterlimit="10"/>
<path d="M64.4832 131.116C64.4832 137.1 61.8171 142.115 56.5092 146.161C51.1891 150.207 43.5665 153.017 33.6292 154.592C24.3948 156.058 17.4023 155.864 12.6276 154.011C7.85287 152.157 5.4655 148.753 5.4655 143.787C5.4655 140.734 6.65312 138.045 9.02838 135.731C11.4036 133.406 14.4454 131.952 18.1658 131.37C22.4558 130.692 25.8733 131.031 28.4061 132.4C30.9389 133.769 32.1992 135.949 32.1992 138.929C32.1992 141.207 31.363 143.133 29.7028 144.707C28.0304 146.282 25.6915 147.372 22.6861 147.978C22.2983 148.402 22.1044 148.814 22.1044 149.238C22.1044 149.662 22.3104 149.953 22.7345 150.122C23.1466 150.292 23.6798 150.328 24.3221 150.231C27.5214 149.722 30.1996 148.341 32.3446 146.088C34.4896 143.835 35.5682 141.267 35.5682 138.396C35.5682 136.058 35.0592 134.217 34.0291 132.848C32.999 131.479 31.3509 130.389 29.0726 129.553C26.7943 128.718 23.704 128.039 19.7897 127.518C15.3664 126.961 12.0338 125.604 9.79185 123.448C7.5499 121.292 6.42287 118.385 6.42287 114.739C6.42287 111.093 7.62262 107.773 10.0221 104.612C12.4216 101.45 15.8875 98.7005 20.4078 96.3747C24.928 94.0489 30.1996 92.4015 36.2226 91.4445C44.6814 90.0999 51.2981 90.4028 56.0729 92.3409C60.8476 94.2791 63.235 97.6466 63.235 102.431C63.235 105.484 61.9989 108.185 59.5388 110.511C57.0666 112.849 53.8794 114.327 49.9772 114.945C45.9417 115.587 42.6818 115.199 40.2217 113.794C37.7495 112.389 36.5255 110.22 36.5255 107.289C36.5255 105.012 37.3617 103.086 39.022 101.511C40.6822 99.9361 43.0211 98.8458 46.0387 98.2402C46.4265 97.8162 46.6204 97.4043 46.6204 96.9804C46.6204 96.5564 46.4143 96.2657 45.9902 96.0961C45.5782 95.9265 45.0449 95.8901 44.4026 95.9871C42.3546 96.3141 40.4762 97.0409 38.7796 98.1796C37.083 99.3183 35.7136 100.736 34.6956 102.419C33.6655 104.103 33.1566 105.908 33.1566 107.822C33.1566 111.117 34.3442 113.576 36.7194 115.199C39.0947 116.834 43.1544 117.937 48.935 118.518C54.2551 119.051 58.1815 120.347 60.7143 122.394C63.2471 124.454 64.5075 127.361 64.5075 131.128L64.4832 131.116Z" fill="#3B2314"/>
<path d="M70.9303 97.6829C70.9303 96.1809 70.797 95.1149 70.5425 94.4608C70.288 93.8187 69.8396 93.2615 69.1974 92.7891C68.5551 92.3167 67.4644 91.7352 65.9253 91.0205C65.5981 90.8873 65.4406 90.645 65.4406 90.2937V89.2156C65.4406 88.6221 65.8284 88.2587 66.5919 88.1375L94.4768 83.7282C95.6281 83.5465 96.4521 83.6556 96.9248 84.0553C97.4095 84.455 97.6398 85.2303 97.6398 86.369V109.978L101.287 109.397V85.7875C101.287 84.6489 101.53 83.8009 102.015 83.2558C102.499 82.6986 103.311 82.3352 104.463 82.1535L124.846 78.9313C125.997 78.7496 126.821 78.8586 127.294 79.2584C127.779 79.6581 128.009 80.4334 128.009 81.572V134.992C128.009 136.131 127.767 136.979 127.294 137.524C126.809 138.081 125.997 138.445 124.846 138.626L104.463 141.849C103.311 142.03 102.487 141.921 102.015 141.522C101.53 141.122 101.287 140.347 101.287 139.208V113.806L97.6398 114.387V139.789C97.6398 140.928 97.3974 141.776 96.9248 142.333C96.4521 142.89 95.6281 143.254 94.4768 143.435L74.0933 146.658C72.942 146.839 72.1179 146.73 71.6453 146.331C71.1606 145.931 70.9182 145.156 70.9182 144.017V97.6951L70.9303 97.6829Z" fill="#3B2314"/>
<path d="M167.843 133.345C157.336 135.005 149.205 133.551 143.472 128.984C137.74 124.417 134.868 117.137 134.868 107.144C134.868 97.1499 137.74 88.9734 143.472 82.6138C149.205 76.2663 157.336 72.2568 167.843 70.5851C178.35 68.9256 186.481 70.355 192.214 74.8975C197.946 79.4401 200.818 86.7081 200.818 96.7018C200.818 106.695 197.946 114.884 192.214 121.268C186.481 127.652 178.35 131.673 167.843 133.345ZM167.843 128.766C169.055 128.572 169.673 127.664 169.673 126.053V77.296C169.673 75.6849 169.067 74.9702 167.843 75.164C166.631 75.3578 166.013 76.2663 166.013 77.8774V126.622C166.013 128.233 166.619 128.948 167.843 128.754V128.766Z" fill="#3B2314"/>
<path d="M268.888 105.133C269.276 105.436 269.749 105.532 270.33 105.448C271.421 105.278 271.966 104.624 271.966 103.485C271.966 103.182 271.93 102.88 271.869 102.553C271.809 102.238 271.736 101.959 271.675 101.729L264.368 67.157C263.726 64.2619 262.829 62.2511 261.678 61.1245C261.169 60.5431 260.829 60.1433 260.672 59.8889C260.514 59.6467 260.429 59.3438 260.429 58.9804V58.3505C260.429 57.757 260.841 57.3815 261.678 57.2603L289.938 52.7905C291.223 52.5845 292.192 52.7178 292.871 53.1781C293.55 53.6384 293.877 54.3773 293.877 55.3949C293.877 57.6116 291.974 64.3346 288.157 75.5517C284.339 86.7808 280.061 98.2159 275.323 109.857C274.62 111.71 273.602 113.128 272.293 114.109C270.985 115.102 269.264 115.756 267.155 116.095L255.618 117.925C253.497 118.264 251.789 118.143 250.468 117.573C249.159 117.004 248.141 115.902 247.438 114.278C246.032 117.791 243.172 119.887 238.882 120.565L226.582 122.516C222.292 123.194 219.565 121.983 218.414 118.869L201.69 74.2071C201.363 73.3591 200.878 72.6808 200.2 72.1478C199.521 71.6269 198.358 71.0212 196.685 70.3186C196.37 70.1854 196.201 69.9431 196.201 69.5918V68.5137C196.201 67.9202 196.588 67.5568 197.352 67.4356L215.615 64.5405C220.038 63.8379 223.431 64.2013 225.806 65.6186C228.182 67.0359 229.939 69.7493 231.09 73.7589L240.991 109.445C241.379 109.687 241.827 109.76 242.336 109.675C242.845 109.59 243.269 109.385 243.584 109.033C243.899 108.682 244.069 108.27 244.069 107.786C244.069 107.483 244.033 107.18 243.972 106.853C243.912 106.538 243.815 106.174 243.681 105.775L234.253 71.8934C233.744 70.1248 233.271 68.8045 232.859 67.9444C232.447 67.0843 231.975 66.3939 231.466 65.873C230.957 65.2915 230.617 64.8918 230.46 64.6374C230.302 64.3952 230.218 64.0923 230.218 63.7289V63.099C230.218 62.5055 230.63 62.142 231.466 62.0088L245.596 59.7678C250.141 59.0531 253.655 59.4165 256.127 60.8822C258.599 62.348 260.248 65.0493 261.084 68.9862L268.876 105.096L268.888 105.133Z" fill="#3B2314"/>
<path d="M332.147 46.1038C341.636 44.6018 349.016 46.0554 354.312 50.4526C359.596 54.8497 362.25 61.7181 362.25 71.0576C362.25 76.9205 361.038 82.311 358.602 87.2169C356.166 92.1229 352.652 96.2051 348.071 99.4757C343.49 102.746 338.146 104.866 332.062 105.823L305.717 109.99C304.565 110.172 303.753 110.063 303.269 109.663C302.784 109.263 302.554 108.488 302.554 107.349V60.9307C302.554 59.0168 302.299 57.6964 301.79 56.9696C301.281 56.2428 299.863 55.3706 297.561 54.3652C297.246 54.232 297.076 53.9897 297.076 53.6384V52.5603C297.076 51.9667 297.464 51.6033 298.227 51.4822L332.159 46.1038H332.147ZM328.306 101.39C328.694 101.814 329.299 101.947 330.136 101.814C330.717 101.717 331.154 101.438 331.481 100.978C331.796 100.505 331.966 99.9482 331.966 99.2819V52.6814C331.966 52.0273 331.808 51.5064 331.481 51.143C331.166 50.7796 330.717 50.6343 330.136 50.7312C329.299 50.8644 328.694 51.2036 328.306 51.7366V101.39Z" fill="#3B2314"/>
<path d="M399.26 96.7018C388.753 98.3613 380.622 96.9077 374.89 92.3409C369.158 87.7741 366.285 80.4939 366.285 70.5003C366.285 60.5067 369.158 52.3301 374.89 45.9706C380.622 39.6231 388.753 35.6136 399.26 33.9419C409.767 32.2824 417.899 33.7118 423.631 38.2543C429.363 42.7969 432.235 50.0649 432.235 60.0585C432.235 70.0521 429.363 78.2408 423.631 84.6246C417.899 91.0084 409.767 95.0301 399.26 96.7018ZM399.26 92.1229C400.472 91.9291 401.09 91.0205 401.09 89.4094V40.6649C401.09 39.0538 400.484 38.3391 399.26 38.5329C398.036 38.7267 397.43 39.6352 397.43 41.2463V89.9909C397.43 91.602 398.036 92.3167 399.26 92.1229Z" fill="#3B2314"/>
<path d="M500.305 68.5016C500.693 68.8045 501.166 68.9014 501.747 68.8166C502.838 68.647 503.384 67.9928 503.384 66.8542C503.384 66.5513 503.347 66.2485 503.287 65.9214C503.226 65.6065 503.153 65.3279 503.093 65.0977L495.785 30.5259C495.143 27.6308 494.246 25.62 493.095 24.4934C492.586 23.912 492.246 23.5122 492.089 23.2578C491.931 23.0156 491.847 22.7127 491.847 22.3493V21.7194C491.847 21.1259 492.259 20.7625 493.095 20.6292L521.355 16.1594C522.64 15.9534 523.609 16.0867 524.288 16.547C524.955 17.0073 525.294 17.7462 525.294 18.7637C525.294 20.9805 523.391 27.7035 519.574 38.9205C515.757 50.1497 511.479 61.5848 506.74 73.2259C506.037 75.0792 505.02 76.4965 503.711 77.4777C502.402 78.471 500.681 79.1251 498.572 79.4643L487.036 81.2934C484.915 81.6326 483.206 81.5115 481.885 80.9421C480.576 80.3728 479.558 79.2705 478.855 77.6473C477.45 81.1602 474.59 83.2558 470.3 83.9342L457.987 85.8844C453.697 86.5628 450.97 85.3514 449.819 82.2383L433.095 37.576C432.78 36.728 432.284 36.0497 431.605 35.5167C430.926 34.9958 429.763 34.3901 428.09 33.6875C427.775 33.5543 427.606 33.312 427.606 32.9607V31.8826C427.606 31.2891 427.994 30.9257 428.757 30.8045L447.02 27.9094C451.443 27.2068 454.836 27.5702 457.212 28.9875C459.587 30.4048 461.344 33.1182 462.495 37.1278L472.396 72.814C472.784 73.0563 473.232 73.129 473.741 73.0442C474.25 72.9594 474.674 72.7534 474.99 72.4022C475.305 72.0509 475.474 71.639 475.474 71.1545C475.474 70.8516 475.438 70.5488 475.377 70.2217C475.317 69.9068 475.22 69.5434 475.087 69.1436L465.658 35.2623C465.149 33.4937 464.677 32.1733 464.265 31.3133C463.853 30.4532 463.38 29.7628 462.871 29.2419C462.362 28.6604 462.023 28.2607 461.865 28.0063C461.708 27.764 461.623 27.4612 461.623 27.0978V26.4679C461.623 25.8743 462.035 25.5109 462.871 25.3777L477.001 23.1367C481.558 22.422 485.06 22.7854 487.532 24.2511C490.005 25.7169 491.653 28.4182 492.489 32.355L500.281 68.4653L500.305 68.5016Z" fill="#3B2314"/>
<path d="M583.948 47.7997C584.263 47.8724 584.59 47.8724 584.906 47.8239C585.293 47.7634 585.645 47.5696 585.96 47.2546C586.275 46.9397 586.445 46.5641 586.445 46.1402C586.445 45.3649 586.093 44.517 585.39 43.6206L563.274 13.0099C562.947 12.5859 562.741 12.2709 562.644 12.0771C562.547 11.8833 562.498 11.641 562.498 11.3382V10.7931C562.498 10.3207 562.595 9.98149 562.789 9.8119C562.983 9.6302 563.298 9.50906 563.746 9.43638L588.359 5.53585C589.511 5.35415 590.335 5.46317 590.807 5.86291C591.292 6.26266 591.522 7.03792 591.522 8.17658V61.5969C591.522 62.7356 591.28 63.5835 590.807 64.1287C590.322 64.6859 589.511 65.0493 588.359 65.231L576.059 67.1812C573.114 67.6537 570.799 67.5325 569.139 66.8421C567.467 66.1516 565.807 64.6495 564.146 62.3359L541.557 31.0831C541.23 31.0105 540.951 30.9983 540.697 31.0347C540.309 31.0953 539.945 31.2891 539.594 31.6161C539.243 31.9432 539.061 32.3187 539.061 32.7306C539.061 33.3847 539.412 34.2326 540.115 35.2502L562.232 65.8609C562.547 66.2849 562.765 66.5998 562.862 66.7936C562.959 66.9874 563.007 67.2297 563.007 67.5325V68.0655C563.007 68.4895 562.922 68.7923 562.765 68.9983C562.607 69.2042 562.268 69.3496 561.759 69.4222L537.146 73.3228C535.995 73.5045 535.171 73.3955 534.698 72.9957C534.213 72.596 533.983 71.8207 533.983 70.682V24.3844C533.983 22.8823 533.85 21.8163 533.595 21.1622C533.341 20.5202 532.892 19.963 532.25 19.4906C531.608 19.0181 530.517 18.4367 528.978 17.722C528.651 17.5887 528.493 17.3465 528.493 16.9952V15.9171C528.493 15.3235 528.881 14.9601 529.645 14.839L549.446 11.7016C552.391 11.2413 554.706 11.3503 556.366 12.0408C558.026 12.7312 559.699 14.2333 561.371 16.547L583.96 47.7997H583.948Z" fill="#3B2314"/>
</g>
<defs>
<clipPath id="clip0_50_18">
<rect width="597" height="161" fill="white"/>
</clipPath>
</defs>
</svg>
