<svg width="26" height="26" viewBox="0 0 26 26" fill="none" xmlns="http://www.w3.org/2000/svg">
<path fill-rule="evenodd" clip-rule="evenodd" d="M0.880188 12.5899C0.880188 5.66721 6.4921 0.0552979 13.4148 0.0552979C20.3374 0.0552979 25.9493 5.66721 25.9493 12.5899C25.9493 19.5125 20.3374 25.1244 13.4148 25.1244C6.4921 25.1244 0.880188 19.5125 0.880188 12.5899ZM18.1936 9.06451C18.7419 8.98617 19.212 8.90783 19.682 8.67281C19.3687 9.2212 18.8986 9.69124 18.3502 10.0046C18.5069 13.6866 15.8433 17.682 11.0645 17.682C9.65438 17.682 8.32258 17.212 7.14747 16.5069C8.47927 16.6636 9.8894 16.2719 10.8295 15.5668C9.65438 15.5668 8.71429 14.7834 8.40093 13.765C8.79263 13.8433 9.18434 13.765 9.57604 13.6866C8.40093 13.3733 7.53917 12.2765 7.53917 11.1014C7.93088 11.2581 8.32258 11.4147 8.71429 11.4147C7.61752 10.6313 7.22581 9.14286 7.93088 7.96774C9.26268 9.53456 11.1429 10.553 13.2581 10.6313C12.8664 9.06451 14.1198 7.49769 15.765 7.49769C16.47 7.49769 17.1751 7.81106 17.6452 8.2811C18.2719 8.12442 18.8203 7.96774 19.2903 7.65438C19.1336 8.2811 18.7419 8.75115 18.1936 9.06451Z" fill="#40879D"/>
</svg>
